<?xml version="1.0" encoding="utf-8"?>
<!-- Generator: Adobe Illustrator 26.5.0, SVG Export Plug-In . SVG Version: 6.00 Build 0)  -->
<svg version="1.1" id="Layer_1" xmlns="http://www.w3.org/2000/svg" xmlns:xlink="http://www.w3.org/1999/xlink" x="0px" y="0px"
	 viewBox="0 0 560 520" style="enable-background:new 0 0 560 520;" xml:space="preserve">
<style type="text/css">
	.st0{fill:#105867;stroke:#105867;stroke-width:10;stroke-miterlimit:10;}
</style>
<g>
	<path class="st0" d="M-0.5,263.1c0-48.5-0.6-97,0.2-145.5C0.5,67.2,26.4,31.3,75.3,10.1C89.9,3.8,105.6,1,121.7,1
		c105.7,0,211.5-0.2,317.2,0.1C499.8,1.2,552.4,45.4,559.8,102c0.7,5,0.9,10.1,0.9,15.1c0,97.4,0,194.8,0,292.3
		c0,65-55.1,116.5-124.6,116.5c-104.2,0-208.5,0.1-312.7,0c-57.3-0.2-106.3-36.1-120.3-88.1c-2.6-9.7-3.7-19.6-3.7-29.7
		C-0.5,359.8-0.5,311.4-0.5,263.1z M237.1,346.1c0,25,0,50-0.1,75c0,3,0.8,3.7,4,3.7c19.5-0.1,39.1-0.2,58.6,0
		c4.2,0,5.1-1.1,5.1-4.9c-0.1-49.6-0.1-99.2-0.2-148.8c0-3.2,0.8-4.3,4.5-4.2c14,0.2,28,0,42,0.1c2.8,0,3.8-0.6,4.1-3.4
		c1.7-18.8,3.5-37.5,5.6-56.2c0.3-3.2-0.6-3.7-3.7-3.7c-15.3,0.1-30.7,0-46,0.1c-2.9,0-3.9-0.6-3.8-3.5c0.2-7.2,0-14.3,0.1-21.5
		c0.2-10.6,5.4-15.4,16.8-15.4c10.8,0,21.7,0,32.5,0c2,0,3.8,0.3,3.8-2.6c-0.1-16.3-0.1-32.6,0-48.9c0-1.9-0.4-2.8-2.7-2.8
		c-20,0.3-40-0.8-60,0.6c-31.7,2.2-53.8,21.2-59.2,50.5c-2.4,12.9-1.3,25.8-1.4,38.7c0,3.6-0.6,5.1-5,4.9c-8.4-0.4-16.8,0-25.3-0.2
		c-2.8-0.1-3.5,0.8-3.5,3.4c0.1,18.8,0.1,37.7,0,56.5c0,2.9,1,3.5,3.8,3.4c8.4-0.2,16.8,0.1,25.3-0.1c3.8-0.1,5.1,0.7,5.1,4.5
		C237,296.3,237.1,321.2,237.1,346.1z"/>
</g>
</svg>
