<?xml version="1.0" encoding="utf-8"?>
<!-- Generator: Adobe Illustrator 26.5.0, SVG Export Plug-In . SVG Version: 6.00 Build 0)  -->
<svg version="1.1" id="Layer_1" xmlns="http://www.w3.org/2000/svg" xmlns:xlink="http://www.w3.org/1999/xlink" x="0px" y="0px"
	 viewBox="0 0 505 505" style="enable-background:new 0 0 505 505;" xml:space="preserve">
<style type="text/css">
	.st0{fill:#105867;stroke:#105867;stroke-width:10;stroke-miterlimit:10;}
	.st1{fill:#FFFFFF;}
	.st2{fill:none;}
</style>
<path class="st0" d="M359.5,502.5c-71.3,0-142.6,0-213.9,0c-0.8-1.7-0.8-1.7-2.9-1.8c-10.5-0.6-20.9-1.8-31.1-4.1
	c-49.8-11.1-84-40-100.6-88.7C5.8,392.7,3.5,377,2.4,361c-0.1-1.2,1.3-3.6-1.8-3.4c0-71.3,0-142.6,0-213.9c1.7-0.8,1.7-0.8,1.8-2.9
	c0.6-10.5,1.8-20.9,4.1-31.1c11.1-49.8,40-84,88.7-100.6c15.2-5.2,30.9-7.5,46.9-8.6c1.2-0.1,3.6,1.3,3.4-1.8
	c71.3,0,142.6,0,213.9,0c0.8,1.7,0.8,1.7,2.9,1.8c10.5,0.6,20.8,1.8,31.1,4.1c49.8,11.1,84,40,100.6,88.7
	c5.2,15.2,7.5,30.9,8.6,46.9c0.1,1.2-1.3,3.6,1.8,3.4c0,71.3,0,142.6,0,213.9c-1.7,0.8-1.7,0.8-1.8,2.9c-0.6,10.5-1.8,20.8-4.1,31.1
	c-11.1,49.8-40,84-88.7,100.6c-15.2,5.2-30.9,7.5-46.9,8.6C361.7,500.8,359.3,499.4,359.5,502.5z M458.6,250.8
	c0-21.1,0.2-42.3,0-63.4c-0.2-19.6-0.3-39.3-3.1-58.8c-2.7-18.9-8.7-36.4-21.5-51.2c-17.8-20.4-41.2-28.3-67.1-30.8
	c-29.5-2.9-59.2-2.1-88.8-2.4c-29.5-0.3-59,0-88.4,0.3c-19.8,0.2-39.6,0.3-59.3,3.1c-18.9,2.7-36.4,8.8-51.1,21.7
	c-20.4,17.8-28.1,41.3-30.6,67.2c-2.8,29.5-2.1,59.2-2.4,88.8c-0.3,29.3,0,58.6,0.3,87.9c0.2,19.8,0.3,39.6,3.1,59.3
	c2.7,18.9,8.7,36.4,21.5,51.2c17.8,20.4,41.2,28.3,67.1,30.8c29.5,2.8,59.2,2.1,88.8,2.4c29.5,0.3,59,0.1,88.4-0.3
	c21.8-0.3,43.6-0.1,65.2-4.1c31.5-5.9,55.1-22.2,67.7-52.6c6.3-15.3,8.3-31.4,9.1-47.8C459.1,318.4,458.5,284.6,458.6,250.8z"/>
<path class="st0" d="M382,250.8c0,71.5-58,129.3-129.7,129.2c-71.5,0-129.3-58-129.2-129.7c0-71.5,58.1-129.3,129.7-129.2
	C324.3,121.1,382.1,179.1,382,250.8z M252.4,334.4c45.8,0,83.9-37.5,83.9-82.7c0-46.8-37.1-84.9-82.7-84.9
	c-47,0-84.9,37.1-84.9,83.2C168.7,296.7,206.1,334.4,252.4,334.4z"/>
<path class="st0" d="M417.3,116.3c0,16.8-13.8,30.4-30.7,30.2c-16.5-0.1-30.1-13.8-30.1-30.3c-0.1-16.7,13.7-30.5,30.5-30.4
	C403.9,85.8,417.4,99.4,417.3,116.3z"/>
<ellipse class="st1" cx="-769.5" cy="-307" rx="61" ry="18.5"/>
<line class="st2" x1="192.5" y1="104.6" x2="311.5" y2="-0.4"/>
<line class="st2" x1="48.5" y1="136.6" x2="0.5" y2="143.6"/>
</svg>
