<?xml version="1.0" encoding="utf-8"?>
<!-- Generator: Adobe Illustrator 26.5.0, SVG Export Plug-In . SVG Version: 6.00 Build 0)  -->
<svg version="1.1" id="Layer_1" xmlns="http://www.w3.org/2000/svg" xmlns:xlink="http://www.w3.org/1999/xlink" x="0px" y="0px"
	 viewBox="0 0 163.8 113.2" style="enable-background:new 0 0 163.8 113.2;" xml:space="preserve">
<style type="text/css">
	.st0{fill:#155968;stroke:#155968;stroke-miterlimit:10;}
</style>
<path class="st0" d="M77.4,0.2c21.6,0,43.2,0,64.8,0c0.9,0,1.8,0.1,2.5,0.6c0.1,0,0.1,0,0.2,0c1,0,1.7,0.6,2.4,1.1
	c0.3,0.2,0.7,0.2,1.1,0.5c0.9,0.7,1.6,1.6,2.2,2.5c0.2,0.2,0,0.4,0.1,0.6c0.9,1.6,0.6,3.4,0.6,5.2c0,31.5,0,63,0,94.5
	c0,0.6,0.1,1.3-0.2,1.7c-0.5,0.8-0.8,1.8-1.4,2.5c-0.5,0.6-1.2,1-1.8,1.5c-0.8,0.8-2,1-2.9,1.6c-0.2,0.1-0.6,0-0.9,0.1
	c-1.6,0.6-3.2,0.6-4.8,0.6c-42,0-84,0-125.9,0c-1.1,0-2.2-0.4-3.3-0.6c-0.9-0.2-1.7-0.7-2.6-1.1c-0.8-0.4-1.4-0.9-2-1.4
	c-0.5-0.4-1-1-1.4-1.6c-0.3-0.5-0.3-1.2-0.6-1.5c-0.6-0.8-0.4-1.7-0.4-2.4c0-32.1,0-64.1,0-96.2c0-0.6-0.1-1.5,0.2-1.8
	C3.7,6.1,3.4,5.2,4.1,5C4,4.4,4.8,4.2,4.8,3.7c0-0.4,0.3-0.3,0.5-0.5c0.8-0.6,1.6-1.4,2.5-1.9C8.2,1,8.7,1,9.2,0.8
	c0.8-0.3,1.7-0.4,2.5-0.6C12.9-0.1,14,0,15.1,0C35.8,0.2,56.6,0.2,77.4,0.2z M61.1,69.6c0,8.8,0,17.5,0,26.3c0,0.6,0.1,0.7,0.7,0.7
	c6.7,0,13.5,0,20.2,0c0.6,0,0.7-0.2,0.7-0.7c0-7.2,0-14.4,0-21.6c0-1.1-0.1-2.2,0-3.2s0-2,0.3-3.1c0.4-1.4,0-3.1,0.6-4.6
	c0.2-0.5,0-1.2,0.4-1.6c0.3-0.4,0.4-1,0.8-1.3c0.3-0.2,0.5-0.5,0.5-0.7c0.2-0.6,0.6-0.9,1-1.2c0.6-0.4,1.2-0.8,1.8-1.1
	c0.9-0.6,2-1,3-1.2c1.1-0.3,2.3-0.6,3.5-0.5c1.5,0.1,2.9-0.1,4.4,0.2c1.1,0.2,2.2,0.6,3.3,0.9c0.6,0.2,1.4,0.5,1.8,1.1
	c0.4,0.6,1,1.2,1.5,1.8c0.5,0.8,1,1.5,1.3,2.4c0.1,0.4,0,0.7,0.1,1.1c0.4,0.9,0.5,1.9,0.5,2.9c0,9.9,0,19.7,0,29.6
	c0,0.7,0.2,0.8,0.8,0.8c6.8,0,13.7,0,20.5,0c0.6,0,0.8-0.1,0.8-0.7c0-9,0-18,0-27c0-1.4,0.3-2.8-0.3-4.3c-0.5-1.3,0.1-2.9-0.4-4.3
	c-0.4-1-0.1-2.1-0.5-3.2c-0.3-0.7-0.4-1.7-0.7-2.5c-0.1-0.3,0-0.7-0.1-0.9c-0.6-1.1-1.2-2.3-1.8-3.4c-0.5-0.9-1.3-1.5-1.8-2.2
	c-0.2-0.3-0.4-0.7-0.8-0.9c-0.7-0.4-1.3-0.9-2-1.4c-0.8-0.7-1.7-1.2-2.6-1.6c-0.8-0.4-1.7-0.9-2.7-1c-0.7-0.1-1.4-0.6-2-0.6
	c-1-0.1-1.9-0.5-2.9-0.5c-0.6,0-1.3,0-1.8-0.1c-1.1-0.3-2.2-0.5-3.3-0.5c-2.2,0-4.4-0.3-6.6,0.2c-0.8,0.2-1.7,0.3-2.6,0.4
	c-0.3,0-0.6-0.1-0.9,0.1c-0.9,0.5-2,0.7-3,1c-1,0.2-1.8,0.8-2.7,1.1c-1.1,0.3-1.9,1.1-2.8,1.7c-0.9,0.6-1.8,1.1-2.5,2
	c-0.6,0.7-1.2,1.4-2,2c-0.3,0.3-0.6,0.2-0.8,0.2c-0.4,0-0.2-0.4-0.2-0.5c0-2,0-4,0-6c0-0.5-0.1-0.7-0.7-0.7c-6.4,0-12.8,0-19.2,0
	c-0.6,0-0.7,0.2-0.7,0.8C61.1,52.2,61.1,60.9,61.1,69.6z M47.1,69.7c0-8.8,0-17.5,0-26.3c0-0.6-0.2-0.7-0.8-0.7
	c-6.8,0-13.5,0-20.3,0c-0.6,0-0.7,0.1-0.7,0.7c0,17.5,0,35.1,0,52.6c0,0.6,0.2,0.7,0.7,0.7c6.8,0,13.5,0,20.3,0
	c0.6,0,0.8-0.1,0.8-0.7C47.1,87.2,47.1,78.4,47.1,69.7z M36.7,35c1.3,0.1,3.1-0.1,4.9-0.8c1.7-0.6,3.1-1.5,4.4-2.7
	c0.2-0.2,0.5-0.1,0.6-0.5c0.1-0.5,0.5-0.9,0.8-1.2c0.8-1,1.3-2.1,1.3-3.4c0-0.2-0.1-0.4,0.3-0.6c0.3-0.1,0.3-0.7,0-0.9
	c-0.2-0.1-0.2-0.2-0.2-0.4c0-0.7,0-1.3-0.5-2c-0.3-0.5-0.5-1.1-0.8-1.7c-0.4-0.6-1-1.1-1.4-1.6c-0.8-0.8-1.9-1.2-2.9-1.8
	c-1.3-0.8-2.8-1.2-4.3-1.4c-2-0.3-4.1-0.3-6,0.3c-0.3,0.1-0.6,0-0.8,0.1c-0.9,0.3-1.8,0.6-2.6,1.1c-0.6,0.3-1.1,0.7-1.7,1
	s-0.9,1.1-1.6,1.4c-0.2,0.1-0.5,0.4-0.5,0.6c-0.1,0.7-0.6,1-0.9,1.6s-0.7,1.1-0.7,1.8c0.2,1.5-0.4,3,0.5,4.5
	c0.4,0.6,0.8,1.2,1.1,1.9c0.1,0.2,0.3,0.6,0.6,0.8c1.1,0.6,2.1,1.6,3.2,2.2c1.2,0.6,2.4,1,3.7,1.4C34,35.1,35.1,35,36.7,35z"/>
<path class="st0" d="M159.1,105.5c0.5,0.3,0.6,0.8,1,1.1c0.5,0.4,0.8,1.1,1.4,1.5c0.1,0,0.2,0,0.2,0.1c0.1,0.3,0.4,0.6,0.3,0.8
	c-0.1,0.3-0.5,0.1-0.7,0.1c-1.1,0.3-1.5-0.6-2.1-1.2s-1.1-1.4-1.6-2.1c-0.6-0.8-1.1-0.3-1.7-0.5c-0.3-0.1-0.3,0.2-0.3,0.4
	c0,0.9,0,1.8,0,2.7c0,0.4,0,0.6-0.5,0.6c-1.3,0-1.3,0-1.3-1.3c0-2.2,0-4.4,0-6.7c0-0.5,0.1-0.6,0.6-0.6c1.5,0,3.1-0.1,4.6,0.1
	c0.9,0.1,2.1,0.2,2.6,1.2c0.5,0.9,0.4,2.9-1.1,3.2C160.1,105.1,159.6,105.2,159.1,105.5z M157.5,101.8c-0.6,0-1,0-1.5,0
	c-0.3,0-0.4,0.1-0.4,0.4c0,0.6,0,1.2,0,1.8c0,0.2,0,0.4,0.3,0.4c1.1,0.1,2.2-0.1,3.3-0.4c0.5-0.1,0.6-0.7,0.8-1
	c0.3-0.5-0.3-0.7-0.7-0.9C158.8,101.6,158.1,101.9,157.5,101.8z"/>
</svg>
