<?xml version="1.0" encoding="utf-8"?>
<!-- Generator: Adobe Illustrator 26.5.0, SVG Export Plug-In . SVG Version: 6.00 Build 0)  -->
<svg version="1.1" id="Layer_1" xmlns="http://www.w3.org/2000/svg" xmlns:xlink="http://www.w3.org/1999/xlink" x="0px" y="0px"
	 viewBox="0 0 305.2 308.7" style="enable-background:new 0 0 305.2 308.7;" xml:space="preserve">
<style type="text/css">
	.st0{fill:#155968;stroke:#155968;stroke-width:10;stroke-miterlimit:10;}
</style>
<path class="st0" d="M191.6,16.3c1.1,0.4,2.2,0.4,3.3,0.7c11.9,2.6,20.8,12,22.7,23.9c0.3,1.7,0.4,3.3,0.4,5c0,23.9,0,47.9,0,71.8
	c0,14.2-9.2,25.8-23,29c-12.5,2.9-26.1-3.5-32-15.1c-2.2-4.3-3.3-8.8-3.3-13.7c0-24.1,0-48.2,0-72.3c0-14.1,9.6-25.9,23.3-28.8
	c1-0.2,2.1-0.2,3.2-0.6C188.1,16.3,189.8,16.3,191.6,16.3z"/>
<path class="st0" d="M13.9,115.8c0.4-1.2,0.4-2.4,0.7-3.6c2.6-11.8,12-20.6,23.9-22.6c1.6-0.3,3.3-0.4,4.9-0.4c24,0,48.1,0,72.1,0
	c12.7,0,23.8,7.6,27.8,19.7c3.5,10.4,1.6,20-5.5,28.5c-4.7,5.5-10.7,8.7-17.9,9.8c-1.3,0.2-2.5,0.3-3.8,0.3c-24.5,0-48.9,0-73.4,0
	c-13.8,0-26-10.3-28.4-23.8c-0.2-0.9-0.1-1.8-0.5-2.6C13.9,119.2,13.9,117.5,13.9,115.8z"/>
<path class="st0" d="M13.9,188.7c0.4-1.1,0.4-2.2,0.6-3.3c2.7-12.5,12.7-21.5,25.4-23c0.9-0.1,1.8-0.2,2.7-0.2c9.5,0,19.1,0,28.6,0
	c0.7,0,0.9,0.2,0.9,0.9c0,9.5,0,18.9,0,28.4c0,12.2-8.1,23.5-19.7,27.4c-16.7,5.6-34.4-4.6-37.9-21.9c-0.2-1-0.1-2-0.6-3
	C13.9,192.3,13.9,190.5,13.9,188.7z"/>
<path class="st0" d="M118.5,16.3c1.1,0.4,2.3,0.4,3.5,0.7c11.1,2.3,20.3,11.6,22.4,22.8c0.4,1.9,0.5,3.8,0.5,5.7c0,9.3,0,18.6,0,28
	c0,0.8-0.2,1.1-1.1,1.1c-9.5,0-19,0.1-28.5-0.1c-9.1-0.1-16.6-3.9-22.3-11c-4.5-5.6-6.6-12-6.4-19.2c0.5-13.9,10.7-25.3,24.3-27.7
	c0.7-0.1,1.5-0.1,2.2-0.4C115,16.3,116.8,16.3,118.5,16.3z"/>
<path class="st0" d="M145,227.8c0,12.1,0,24.2,0,36.3c0,14.3-10.4,26.5-24.5,28.8c-15.8,2.6-31.1-8.5-33.4-24.3
	c-0.2-1.6-0.4-3.3-0.4-4.9c0-24,0-48,0-72c0-7.7,2.5-14.5,7.8-20.1c6.4-6.8,14.4-9.9,23.7-9.3c13.3,1,24.3,11.3,26.4,24.4
	c0.2,1.5,0.4,3,0.4,4.6C145,203.5,145,215.7,145,227.8z"/>
<path class="st0" d="M225.4,162.3c12.1,0,24.2,0,36.3,0c14.3,0,26.5,10.3,28.8,24.5c2.6,15.6-8.1,30.6-23.7,33.3
	c-1.8,0.3-3.6,0.5-5.5,0.5c-24,0-48,0-72,0c-14,0-25.6-9.2-28.8-22.8c-3-12.6,3.4-26.2,15-32.1c4.3-2.2,8.8-3.3,13.7-3.3
	C201.2,162.3,213.3,162.3,225.4,162.3z"/>
<path class="st0" d="M248.6,147.4c-5,0-10.1,0-15.1,0c-0.6,0-0.9-0.1-0.9-0.8c0-9.7,0-19.4,0-29.1c0-11.7,8.3-23,19.7-26.7
	c11.3-3.6,21.5-1.4,29.9,7c8.2,8.1,10.7,18.1,7.2,29.1c-3.4,10.9-11.1,17.5-22.3,20c-1.7,0.4-3.5,0.5-5.3,0.5
	C257.5,147.4,253,147.4,248.6,147.4z"/>
<path class="st0" d="M175.6,235.1c4.6,0,9.2-0.1,13.8,0c6.9,0.1,13,2.4,18.3,6.9c5.2,4.4,8.4,9.9,9.8,16.5c0.3,1.5,0.4,3.1,0.5,4.6
	c0.2,4.2-0.5,8.3-2.2,12.2c-1.4,3.2-3.2,6.1-5.6,8.6s-5.1,4.6-8.2,6.2c-2.8,1.4-5.7,2.4-8.8,2.8c-5.2,0.8-10.2,0.2-15-1.7
	c-3.2-1.2-6-3-8.6-5.3c-4.8-4.2-7.7-9.4-9.2-15.5c-0.5-2-0.6-4-0.6-6c0-9.5,0-19.1,0-28.6c0-0.8,0.2-0.9,0.9-0.9
	C165.7,235.1,170.7,235.1,175.6,235.1z"/>
</svg>
