<?xml version="1.0" encoding="utf-8"?>
<!-- Generator: Adobe Illustrator 26.5.0, SVG Export Plug-In . SVG Version: 6.00 Build 0)  -->
<svg version="1.1" id="Layer_1" xmlns="http://www.w3.org/2000/svg" xmlns:xlink="http://www.w3.org/1999/xlink" x="0px" y="0px"
	 viewBox="0 0 1152.8 299.9" style="enable-background:new 0 0 1152.8 299.9;" xml:space="preserve">
<style type="text/css">
	.st0{fill:#105867;stroke:#105867;stroke-width:10;stroke-miterlimit:10;}
</style>
<g>
	<path class="st0" d="M313.4,118.6c2.9,2.6,2.9,2.6,4.3-2.7c0.8-0.2,1.6-0.4,2.2-0.8c4.2-2.8,8.7-5.1,12.7-8.3
		c1.8-1.4,4-2.1,4.9-4.4c9-0.6,18-0.1,26.9-0.3c1.9,0,2.3,0.9,2.3,2.6c-0.1,14-0.1,28.1-0.2,42.1c-0.7,1.7-1,3.5-1.1,5.3
		c-0.4,6.5-1,13.1-1.6,19.6c-0.1,1.1,0.4,3.8-2.4,1.9c-0.8-0.9-1.6-1.7-2.3-2.6c-8.8-12-20.9-19-35-22.2c-8-1.8-16.4-1.4-24.1,2.7
		c-3.4-1.5-6.6-3.5-10.1-4.9c-8.5-3.5-17.2-3.8-25.5-1c-10.6,3.6-17.9,11.8-22.2,21.8c-10.9,25.5-9.5,50.1,8.2,72.5
		c5,6.4,11.5,11.3,20.2,12.4c4.4,0.6,8.7,0.7,13.1,0.4c1.9,6.7,4.4,13.2,7.1,19.6c2.8,6.5,5.5,13,9.1,19.1c-1.2,2.8-4.2,3.5-6.3,4.8
		c-5,3.2-10.5,6.1-16.9,4.6c0.7-3.3-0.1-6.4-1.8-9.2c-1.5-2.4-4.2-3.3-6.5-2.9c-4,0.7-6.9,3.7-9.9,6.2c-2,1.7-4.7,3-5.6,5.8
		c-6.4-0.1-13,1.5-19.1-1.1c-11.5-4.8-21-12.2-28.9-21.9c-12-14.7-16.9-32-19.5-50.2c-2.1-15.2-2.4-30.5-0.7-45.7
		c1.1-9.6,2.6-19.1,6.4-28c5.8-2.5,12.1-3,18.1-4.6c6.6-1.8,13.4-2.7,20.1-3.9c9.9-1.8,19.5-4.2,29.2-6.8c7.9-2.1,15.7-4.5,23.5-7
		C293.1,128.1,303.2,123.2,313.4,118.6z"/>
	<path class="st0" d="M1140,102c0.2,0,0.5-0.1,0.7-0.1c3.8,3,7.5,6.1,11.9,8.2c0.8,3.4,0.4,6.8,0.4,10.2c-0.1,9.6,0.4,19.2-0.3,28.8
		c-1.4-2-0.6-4.2-0.7-6.3c-0.1-9.8,0-19.7,0-30.1c-1,1.6-0.7,2.8-0.7,3.9c0,9.1,0,18.1,0,27.2c0,5.4,0,5.4-5.2,5.4
		c-9.4,0-18.9,0-28.3,0c-1.6,0-3.5-0.3-3.1,2.3c0,47.8,0,95.6,0,143.4c0,1.1,0.3,2.3-0.5,3.3c-0.1-1.7-0.2-3.4-0.2-5.2
		c0-46,0-92,0-138.1c0-1.2,0.3-2.5-0.7-4.5c0,2,0,3.2,0,4.5c0,46.2,0,92.5,0.1,138.8c0,3.2-0.8,4.1-4,4c-13.8-0.2-27.6-0.1-41.5,0
		c-1.3,0-2.8-0.5-3.8,0.9c-1-1.1-0.6-2.4-0.6-3.6c0-46.1,0-92.2,0-138.2c0-1.7,0-3.4,0-5.2c-0.1-1.9-0.9-2.5-2.9-2.5
		c-6,0.2-12,0-17.9,0.1c-2.3,0-3.3-0.8-3.3-3.2c0.1-13.2,0.1-26.4,0-39.7c0-2.9,1.3-4.2,4.2-4.1c5.2,0,10.4,0,15.5,0
		c4.4,0,5.1-0.7,5.2-5.2c0-0.9,0-1.8,0-2.8c0-10,0-10,10.2-10c3.9,0,7.9,0.1,11.8,0.1c1.7-0.4,3.2,0.4,4.8,0.5c0.5,0,1,0,1.4,0.1
		c1.4-0.1,2.9-0.1,4.2,0.4c0.4,1.2,1.1,1.2,1.9,0.5c0.6,0.1,1.1,0.1,1.7,0.2c1.6,1.2,3.1,2.5,5.3,1.7c0.9,0.2,1.9,0.4,2.8,0.6
		c0.1,0,0.3,0,0.4,0c0.6,0.1,1.1,0.3,1.7,0.5c2,1.4,3.2,3.1,2.8,5.6c-0.2,1-0.1,2.1,0,3.1c0.1,3,1.5,4.6,4.7,4.6
		C1125.4,102.1,1132.7,102,1140,102z"/>
	<path class="st0" d="M71.5,133.1c3.2,5.1,4.7,10.8,6.9,16.3c5.7,14.1,11.1,28.3,16.7,42.5c0.3,0.8,0.3,2,1.6,1.9
		c0.9-0.1,1.1-1.2,1.3-1.9c8.9-25.8,17.8-51.5,26.8-77.3c1.2-3.5,2.6-6.9,3.6-10.4c0.5-1.7,1.4-2.1,3-2.1c17.3,0,34.5,0,51.8,0
		c2.9,0,2.3,1.4,1.6,3c-6.4,14.3-12.9,28.5-19.3,42.8c-3.5,7.7-7,15.4-10.5,23.1c-4.8,0.3-8.2,3.6-11.8,5.9
		c-8.5,5.6-16.6,11.9-24.2,18.8C106.6,206.9,95.1,219,84.7,232c-5.1,6.3-9.9,12.8-14.8,19.2c-5.7-11.9-11.5-23.8-17.1-35.8
		c-9.5-20-18.9-40-28.4-60.1c-0.7-1.5-1.3-3.2-2-4.8c2.7,0.7,4.1-2.3,6.5-2.3c2.7,0.1,5.2-1.1,7.6-1.8c6.4-1.8,12.5-4.8,18.9-6.6
		c0.8-0.2,1.1-0.9,1.6-1.1C61.9,137,66.3,133.9,71.5,133.1z"/>
	<path class="st0" d="M300.2,151.5c7.7-4,16-4.5,24.1-2.7c14.2,3.1,26.2,10.2,35,22.2c0.7,0.9,1.5,1.7,2.3,2.6
		c1.3,2.5,2.4,5,5.1,6.3c0.6,1.3,0.4,2.7,0.4,4.1c0,36.9,0,73.9,0,110.8c0,5,0,5-4.9,5c-14.2,0-28.3-0.1-42.5,0.1
		c-3.4,0-4.2-1.2-4.1-4.2c0.1-4.9,0-9.9,0-14.8c0-1.1,0.4-2.3-0.7-3.3c-4.8,4.8-8.4,10.8-14.7,13.8c-3.7-6.1-6.4-12.6-9.1-19.1
		c-2.8-6.4-5.3-12.9-7.1-19.6c1-0.6,2.1-0.7,3.3-0.9c4.2-0.7,8-2.5,11.5-4.9c4.9-3.3,8.8-7.8,11.9-13c2.9-4.8,5.4-9.6,5.2-15.6
		c-0.4-12.5-0.3-25,0-37.6c0.1-5.8-1.8-10.7-4.3-15.6C308.6,159.8,304,156,300.2,151.5z"/>
	<path class="st0" d="M443.7,102.4c2.5-0.9,5-0.3,7.5-0.4c1.8-0.1,1.9,1.3,2,2.6c0.8,9.1,1.6,18.3,2.4,27.4c0.4,4,0.8,8.1,1.6,12.2
		c2.3-4,4.3-8,6.8-11.7c4.7-7.3,10-14.1,16.4-19.9c2.9-2.7,5.4-5.9,9.2-7.4c3.8,1.4,7.7,2.7,11.5,4.3c5,2.1,9.8,4.4,14.8,6.6
		c0.6,8.1-0.4,16.1-0.6,24.1c-0.1,4.1-0.4,8.3-0.5,12.4c0,2-0.8,2.9-2.9,2.8c-2.2-0.2-4.4-0.3-6.6-0.1c-10,0.9-18.3,4.9-25.5,12
		c-16.1,15.9-21.9,35.5-22,57.4c-0.1,23.6-0.1,47.2,0,70.8c0,3.2-0.7,4.4-4.2,4.3c-14.5-0.2-29-0.1-43.5,0c-2.5,0-3.5-0.8-3.5-3.3
		c0-17,0-34.1,0-51.1c0-0.8,0.3-1.5,0.5-2.3c3.8,1.1,6.5,4.2,10.4,5.1c7.1,1.5,14.1,1.6,21.2-0.2c5.2-1.3,5.2-1.3,5.2-6.7
		c0-43.3,0-86.7,0-130C443.9,108.4,443.8,105.4,443.7,102.4z"/>
	<path class="st0" d="M1008.2,159.5c0.2,1.7,0.5,3.4,0.5,5.1c0,43.2,0,86.5,0,129.8c0,5.5,0,5.5-5.5,5.5c-13.7,0-27.4,0-41.1,0
		c-4.8,0-4.8,0-4.8-4.8c0-35,0-69.9,0-104.9c0-6.4,0.1-12.9,0.1-19.3c10.1,1.1,20.1,1.6,30.2-1.4
		C995.1,167.2,1001.9,163.9,1008.2,159.5z"/>
	<path class="st0" d="M677.6,96.5c12.2-5.5,25.1-5.2,37.8-3.1c6,1,12.2,3,17.4,6.5c6,4,11.5,8.9,16.1,14.5c1.4,1.6,2.5,3.5,3.9,5.2
		c0.4,0.5,1,1.2,1.5,1.2c1-0.1,0.9-1.1,1-1.9c0.7-4.5,1.5-9.1,2.1-13.6c0.3-2.1,1-3,3.3-3c13.9,0.1,27.9,0.1,41.8,0
		c1.8,0,2.8,0.2,2.8,2.4c-0.1,10.7-0.2,21.4-0.2,32.1c-1.2,2.8-2.6,5.5-3.6,8.4c-2.9,8.9-6.1,17.7-8.6,26.7
		c-3.2,11.2-4.6,22.6-5,34.1c-0.4,9.5-0.5,19,1.3,28.4c-0.3-0.2-0.6-0.4-0.8-0.6c-6.9-10.9-13.8-21.7-20.5-32.7
		c-4.3-7-8.4-14.1-13.2-20.7c-0.2-7.3-3.4-13.4-7.4-19.4c-3.6-5.4-8.9-8.8-13.9-12.6c-0.7-1.4-1.1-2.9-2.1-4.3
		c-6.5-8.7-13.2-17.2-20.9-25.1c-8.9-9.1-19-16-30.8-20.6C678.5,97.9,677.8,97.5,677.6,96.5z"/>
	<path class="st0" d="M845.2,222.6c0-0.5,0-1,0-1.5c1.1-0.8,1.5-1.9,2-3.1c4.2-10.5,9.4-20.4,15.9-29.8c6.9-9.9,15.4-18,24.5-25.6
		c8-6.7,16.8-12.4,26.1-17.3c1.6-0.9,3.4-2.3,5.3-0.5c1.2,1.4,2.4,2.8,3.6,4.2c-1.2,2.6-4,3.2-5.9,5c-7.8,7-11.7,16.1-14.8,25.8
		c-4.4,13.7-5.4,27.9-5.4,42.2c0.1,24.4,0,48.8,0,73.2c0,4.8,0,4.8-4.7,4.8c-14.5,0-29-0.1-43.5,0c-2.3,0-3.3-0.7-3.3-3.1
		c0-24.3,0-48.5,0.1-72.8C845,223.5,845.1,223,845.2,222.6L845.2,222.6z"/>
	<path class="st0" d="M696,300.9c-6.2,0-12.4,0.2-18.6,0c-4.7-0.1-8.8-2.7-12.7-4.8c-4.2-2.3-8.1-5.2-11.8-8.4
		c-9.7-8.5-16.9-18.7-21.6-30.7c-8.8-22.8-9.9-46.5-8.3-70.5c0.2-3.4,0.8-6.8,1.2-10.2c1.6-0.3,3.2-0.5,4.7-1
		c8.4-2.8,17.1-2.8,25.8-2.3c2.5,0.1,5,0.5,7.4,1.3c4.9,1.5,9,4.7,13.7,6.8c-1.8,9.6-2.2,19.3-0.8,29c1.1,7.1,3.7,13.6,6.5,20.1
		c-0.6,1-0.9,2.1-1,3.2c-0.8,6-2,12-2.5,18c-1,12.8,0.5,25.1,7.6,36.4C688.6,292.5,692.7,296.4,696,300.9z"/>
	<path class="st0" d="M919,144.8c-1.9-1.8-3.7-0.4-5.3,0.5c-9.2,5-18.1,10.6-26.1,17.3c-9,7.6-17.6,15.6-24.5,25.5
		c-6.6,9.4-11.8,19.2-16,29.8c-0.5,1.2-0.9,2.3-2,3.1c0-4.5-0.1-9-0.1-13.5c0-33.8,0.2-67.7,0.1-101.5c0-3,0.6-3.9,3.8-3.9
		c13,0.2,26,0.2,39.1,0.1c3.2,0,4.3,0.8,4.5,4.1c0.6,8.3,1.8,16.6,2.7,25.1c2.6-1.1,2.7-3.5,3.7-5.1c5.1-9,11.8-16.7,20.2-22.7
		c6.4-4.5,13.6-7.8,21.5-9.5c0.4-0.1,0.8,0.3,1.2,0.5c0.3,5.2,0.2,10.3-0.7,15.4c-1.8,11.6-6.5,21.4-16.6,28.3
		C922.5,139.9,918.4,140.5,919,144.8z"/>
	<path class="st0" d="M443.7,102.4c0.1,3,0.2,6,0.2,8.9c0,43.3,0,86.7,0,130c0,5.4,0,5.4-5.2,6.7c-7,1.8-14.1,1.7-21.2,0.2
		c-3.9-0.9-6.6-4-10.4-5.1c-0.1-2.3-0.2-4.6-0.2-6.9c0-43.5,0-87-0.1-130.4c0-3,0.9-3.6,3.7-3.6
		C421.6,102.4,432.7,102.4,443.7,102.4z"/>
	<path class="st0" d="M543.7,148.6c-0.1-14.6-0.1-29.2-0.2-43.8c0-1.9,0.6-2.6,2.6-2.6c15.3,0,30.6,0.1,45.9,0c2,0,2.6,0.9,2.5,2.7
		c-0.3,20.9,0.5,41.9-0.5,62.8c-0.4,9.1,0.5,18.1,0.4,27.2c0,2,0.2,3.9-0.4,5.8c-0.4,0.2-0.9,0.4-1.1,0.7c-7.7,12.6-13,26.1-15,41
		c-0.4,3,0.7,6.5-1.9,9.1c-7-15.1-11.7-30.9-15.9-46.9c-3.8-14.5-6.8-29.2-11.2-43.6C547.6,156.7,546.8,152.1,543.7,148.6z"/>
	<path class="st0" d="M919,144.7c-0.6-4.2,3.5-4.9,5.6-6.4c10.1-7,14.7-16.8,16.5-28.4c0.8-5.1,0.9-10.3,0.6-15.4
		c0.3-1,1.2-1.3,2.1-1.4c7.3-0.7,14.8-1.5,22,0.2c7.7,1.8,15.1,5,21.2,10.2c9.6,8.2,16.1,18.4,19.3,30.7c2.2,8.3,2.5,16.8,1.8,25.3
		c-6.3,4.4-13.1,7.8-20.6,10c-10.1,3-20.1,2.5-30.2,1.4c-1-6-2.1-11.9-6-16.9c-3.5-4.4-8-6.6-13.5-6.9c-5.2-0.3-10.3,0.4-15.3,1.9
		C921.4,147.5,920.2,146.1,919,144.7z"/>
	<path class="st0" d="M313.4,118c-10.2,4.7-20.3,9.7-31,13.2c-7.8,2.6-15.5,5.1-23.4,7.2c-9.7,2.6-19.3,5.2-29.2,7.1
		c-6.7,1.3-13.5,2.2-20.1,4.1c-6,1.7-12.3,2.2-18,4.8c1.8-8.2,5.5-15.7,9.6-23c4.3-7.7,9.7-14.6,16.1-20.6c5.4-5,11.3-9.3,18-12.7
		c12.6-6.4,26-7.1,39.5-5.3c11.3,1.5,21.3,6.4,29.5,14.6C307.7,110.8,311.3,113.8,313.4,118z"/>
	<path class="st0" d="M696,300.9c-3.3-4.5-7.3-8.4-10.3-13.2c-7-11.3-8.5-23.6-7.6-36.4c0.5-6,1.7-12,2.5-18c0.2-1.2,0.4-2.2,1-3.2
		c1.5,2,2.9,4,4.3,6.1c4.6,6.4,10,12.2,17.5,14.6c15.9,5.1,30.5,1.6,42.3-11.7c0.8,1.4,1.7,2.7,2.3,4.2c4.2,8.8,8.6,17.6,12.5,26.6
		c4.2,9.6,8.3,19.3,10.5,29.7c-4.9,0.7-9.9,0.2-14.8,0.3c-2.4,0.1-2.4-1.6-2.4-3.3c0-5.2,0-10.3,0-15.5c0-1.2-0.1-2.4-0.2-4.2
		c-4.9,6-9.6,11.5-15.4,15.6c-6.4,4.6-12.8,9.4-21.6,8.7C709.8,300.6,702.9,300.9,696,300.9z"/>
	<path class="st0" d="M69.9,251.3c4.9-6.4,9.7-12.9,14.8-19.2c10.4-13,21.9-25.1,34.3-36.3c7.7-6.8,15.7-13.1,24.2-18.8
		c3.5-2.4,7-5.6,11.8-5.9c-5.2,11.8-10.3,23.7-15.6,35.5c-6.9,15.5-13.8,30.9-20.7,46.4c-6.9,15.3-13.8,30.6-20.6,46
		c-0.6,1.3-1.1,2.1-2.7,2.1c-1.4,0-2.4-0.2-3.1-1.6c-7.2-15.4-14.6-30.8-21.8-46.2C70.3,252.6,70.2,251.9,69.9,251.3z"/>
	<path class="st0" d="M771.1,299.4c-2.2-10.4-6.3-20-10.5-29.7c-3.9-9-8.3-17.7-12.5-26.6c-0.7-1.4-1.5-2.8-2.3-4.2
		c5.8-7.7,9.4-15.8,8.7-26c-0.7-10.9-0.5-21.8,0.1-32.8c4.8,6.6,8.9,13.7,13.2,20.7c6.7,11,13.7,21.8,20.5,32.7
		c0.2,0.3,0.5,0.4,0.8,0.6c0.4,2.1,1.9,3.6,3,5.3c4.2,6.3,7.7,13.1,13,18.7c0.1,13,0.2,25.9,0.2,38.9c0,1.6-0.5,2.5-2.4,2.5
		C792.2,299.6,781.6,299.5,771.1,299.4z"/>
	<path class="st0" d="M1108.6,88.3c-0.9-0.2-1.9-0.4-2.8-0.6c-1.2-2.2-3.3-1.9-5.3-1.7c-0.6-0.1-1.1-0.1-1.7-0.2
		c-0.5-0.9-1.2-0.8-1.9-0.5c-1.4-0.5-2.8-0.5-4.2-0.4c-0.5-0.6-0.9-0.5-1.4-0.1c-1.6,0-3.1-0.9-4.8-0.5c-0.3-2-1.8-1.4-2.9-1.4
		c-6.5-0.1-13,0-19.5,0c0-21.7,0-43.4-0.1-65.2c0-2,0.9-2.3,2.5-2.3c15.3,0,30.6,0.1,45.9,0c2.5,0,2.4,1.3,2.4,3.1
		c0,20.9,0,41.9,0,62.8c0,2.7,0.6,5.5-0.2,8.2c-1.2-0.3-2.4-1.1-3.7-0.7c-0.6-0.1-1.1-0.3-1.7-0.5
		C1108.9,87.9,1108.7,88.1,1108.6,88.3z"/>
	<path class="st0" d="M543.7,148.6c3.2,3.5,4,8.1,5.3,12.4c4.5,14.3,7.5,29,11.2,43.6c4.2,16,8.9,31.9,15.9,46.9
		c0.4,1.9,1.4,3.5,1.3,5.6c-0.4,6.7,1.1,13.2,2.4,19.7c1.5,7.6,4.4,14.9,5.4,22.7c-5.6,0.7-11.3,0.2-16.9,0.3
		c-7.1,0.1-14.3-0.1-21.4,0.1c-2.8,0.1-3.6-0.9-3.6-3.6c0.1-11.7,0-23.5,0-35.2c0-35.8,0-71.6,0-107.3
		C543.4,152,543.6,150.3,543.7,148.6z"/>
	<path class="st0" d="M677.6,96.5c0.3,1,1,1.4,1.9,1.8c11.8,4.6,21.9,11.6,30.8,20.6c7.7,7.8,14.3,16.4,20.9,25.1
		c1,1.3,1.5,2.8,2.1,4.3c-1.3,0-2.5-0.5-3.6-1.1c-6-3.1-12.5-3.3-19-2.9c-3.1,0.2-6.1,0.9-9.2,2.2c-5.1,2.1-8.9,5.7-13.1,9
		c-13.9-12.5-29.6-21.4-48.1-25.2c2.5-5.3,6.3-9.7,10.1-14.1c5.3-6.1,11.6-11.1,18.3-15.6C671.4,98.8,674.6,97.9,677.6,96.5z"/>
	<path class="st0" d="M71.5,133.1c-5.3,0.8-9.6,3.9-14.4,5.8c-0.5,0.2-0.9,0.9-1.6,1.1c-6.5,1.8-12.5,4.7-18.9,6.6
		c-2.4,0.7-4.9,1.8-7.6,1.8c-2.4,0-3.8,2.9-6.5,2.3c-5.8-12-11.6-24-17.4-36c-1.5-3.2-3-6.4-4.6-9.6c-0.9-1.9-0.8-2.9,1.8-2.9
		c18.4,0.1,36.9,0,55.3,0c1.2,0,2.3,0.1,2.8,1.4c3.7,9.5,7.4,19,11.1,28.5C71.6,132.4,71.5,132.8,71.5,133.1z"/>
	<path class="st0" d="M640.3,130.3c18.5,3.8,34.2,12.7,48.1,25.2c-0.3,2-1.9,3.1-3,4.5c-4.7,6.4-7.4,13.6-9.7,21
		c-4.6-2.1-8.8-5.3-13.7-6.8c-2.4-0.7-4.9-1.1-7.4-1.3c-8.7-0.5-17.4-0.5-25.8,2.3c-1.5,0.5-3.1,0.7-4.7,1c0.5-8.3,2.8-16.2,5.4-24
		c2.2-6.7,5.2-13.1,8.6-19.4C638.7,131.8,639.4,131,640.3,130.3z"/>
	<path class="st0" d="M597.6,30.2c1.2,12.4-4.9,26-17.8,31.8c-10.2,4.5-19.2,1.7-26.9-5.3c-10.2-9.2-12.1-20.9-9.3-33.9
		c0.9,0,1.8,0.2,2.7,0.6c5.5,2.6,11.2,4.5,17.1,5.5C574.7,30.9,586.2,31.2,597.6,30.2z"/>
	<path class="st0" d="M805,258.3c-5.2-5.6-8.8-12.4-13-18.7c-1.1-1.7-2.6-3.2-3-5.3c-1.8-9.4-1.7-18.9-1.3-28.4
		c0.4-11.5,1.9-22.9,5-34.1c2.5-9,5.7-17.8,8.6-26.7c0.9-2.9,2.4-5.6,3.6-8.4c0.7,1.4,0.3,2.9,0.3,4.4c0,37.6,0,75.2,0,112.7
		C805.3,255.3,805.6,256.8,805,258.3z"/>
	<path class="st0" d="M585.2,299.5c-0.9-7.8-3.8-15.1-5.4-22.7c-1.3-6.5-2.8-13-2.4-19.7c0.1-2.1-0.9-3.7-1.3-5.6
		c2.6-2.6,1.5-6.1,1.9-9.1c1.9-14.8,7.2-28.3,15-41c0.2-0.3,0.8-0.5,1.1-0.7c0.6,3.6,0.3,7.3,0.3,11c0,27.7,0,55.3,0,83
		c0,4.9,0,4.9-5,4.9C588,299.6,586.6,299.5,585.2,299.5z"/>
	<path class="st0" d="M597.6,30.2c-11.5,1-22.9,0.7-34.2-1.3c-5.9-1.1-11.6-2.9-17.1-5.5c-0.9-0.4-1.7-0.6-2.7-0.6
		c1-7.4,5.7-12.4,10.9-17.1c4.1-3.8,9.3-4.9,14.3-5.7c7-1.1,13,2.1,18.1,6.5C594,12.7,598.3,20.4,597.6,30.2z"/>
	<path class="st0" d="M515.9,116.2c-4.9-2.2-9.8-4.5-14.8-6.6c-3.8-1.6-7.7-2.9-11.5-4.3c1.2-2.4,3.9-3,5.9-4.4
		c5.7-3.8,11.8-7.2,18.7-8.5c1.5-0.3,2.8-0.3,2.7,1.8C516.6,101.6,516.3,108.9,515.9,116.2z"/>
	<path class="st0" d="M253,300.8c0.9-2.8,3.6-4.1,5.6-5.8c3-2.5,6-5.5,9.9-6.2c2.4-0.4,5.1,0.5,6.5,2.9c1.7,2.8,2.5,5.9,1.8,9.2
		C269,301.1,261,301.1,253,300.8z"/>
	<path class="st0" d="M1063.9,82.9c6.5,0,13,0,19.5,0c1.1,0,2.7-0.6,2.9,1.4c-3.9,0-7.9-0.1-11.8-0.1c-10.2,0-10.2,0-10.2,10
		c0,0.9,0,1.8,0,2.8c0,4.5-0.7,5.2-5.2,5.2c-5.2,0-10.4,0-15.5,0c-2.9,0-4.2,1.3-4.2,4.1c0,13.2,0.1,26.4,0,39.7
		c0,2.4,1,3.2,3.3,3.2c6-0.1,12,0.1,17.9-0.1c2.1-0.1,2.8,0.6,2.9,2.5c-7.2-0.9-14.5-0.3-21.7-0.4c-2.3,0-3.1-0.8-3.1-3
		c0-14.7,0-29.4,0-44.1c0-2.7,1.5-3.3,3.7-3.3c5.9,0,11.7-0.1,17.6,0c2.5,0,3.4-0.8,3.4-3.4C1063.5,92.5,1062.9,87.7,1063.9,82.9z"
		/>
	<path class="st0" d="M337.7,102.4c-0.9,2.3-3.2,3-4.9,4.4c-4,3.2-8.5,5.5-12.7,8.3c-0.6,0.4-1.5,0.5-2.2,0.8
		c0.5-3.9,1-7.7,1.5-11.6c0.2-1.5,1-2.2,2.6-2.1C327.1,102.3,332.4,102.4,337.7,102.4z"/>
	<path class="st0" d="M1064.1,298.5c1-1.4,2.5-0.9,3.8-0.9c13.8,0,27.7-0.1,41.5,0c3.2,0,4-0.9,4-4c-0.1-46.2-0.1-92.5-0.1-138.7
		c0-1.2,0-2.5,0-4.5c1,2,0.7,3.3,0.7,4.5c0,46,0,92,0,138.1c0,1.7,0.2,3.4,0.2,5.2l-0.1,0.2c-14.8,0-29.7,0-44.5,0
		c-1.2,0-2.9-0.7-3.3,1.4C1065.4,299.7,1064.1,300.3,1064.1,298.5z"/>
	<path class="st0" d="M1114.8,151.4c-0.4-2.6,1.5-2.3,3.1-2.3c9.4,0,18.9,0,28.3,0c5.2,0,5.2,0,5.2-5.4c0-9.1,0-18.1,0-27.2
		c0-1.1-0.3-2.2,0.7-3.9c0,10.4-0.1,20.3,0,30.1c0,2.1-0.8,4.4,0.7,6.3c0.5,2.6-1.6,2-2.8,2c-10.3,0.1-20.7,0-31,0.1
		C1117.6,151.1,1116.2,151.3,1114.8,151.4z"/>
	<path class="st0" d="M366.7,179.9c-2.7-1.3-3.8-3.9-5.1-6.3c2.8,1.9,2.3-0.8,2.4-1.8c0.6-6.5,1.2-13,1.6-19.6
		c0.1-1.9,0.4-3.6,1.1-5.3C366.7,157.8,366.7,168.9,366.7,179.9z"/>
	<path class="st0" d="M1110.6,88.8c1.4-0.4,2.5,0.5,3.7,0.7c1.1,2.2,0.5,4.5,0.4,6.8c-0.2,3.4,0.9,4.7,4.5,4.5
		c5.7-0.3,11.5,0,17.2-0.1c1.4,0,2.8-0.1,3.6,1.3c-7.3,0-14.7,0.1-22,0.1c-3.1,0-4.6-1.7-4.7-4.6c-0.1-1-0.2-2.1,0-3.1
		C1113.8,91.8,1112.6,90.1,1110.6,88.8z"/>
	<path class="st0" d="M1152.7,110c-4.4-2.1-8.1-5.1-11.9-8.2c3.3-0.1,6.6-0.1,10-0.2c1.6,0,2.4,0.6,2.2,2.2
		C1152.8,105.9,1153.3,108,1152.7,110z"/>
	<path class="st0" d="M1066.3,299.7c0.4-2.1,2.1-1.4,3.3-1.4c14.8,0,29.7,0,44.5,0c0.1,1.5-1,1.5-2.1,1.5
		C1096.9,299.8,1081.6,299.7,1066.3,299.7z"/>
	<path class="st0" d="M845.2,222.6L845.2,222.6L845.2,222.6z"/>
	<path class="st0" d="M1100.4,85.9c2-0.2,4.1-0.5,5.3,1.7C1103.5,88.5,1102,87.1,1100.4,85.9z"/>
	<path class="st0" d="M1096.8,85.3c0.8-0.3,1.5-0.4,1.9,0.5C1097.9,86.4,1097.2,86.4,1096.8,85.3z"/>
	<path class="st0" d="M1091.1,84.8c0.5-0.5,1-0.5,1.4,0.1C1092.1,84.8,1091.6,84.8,1091.1,84.8z"/>
	<path class="st0" d="M1108.6,88.3c0.2-0.2,0.3-0.4,0.4,0C1108.8,88.3,1108.7,88.3,1108.6,88.3z"/>
</g>
</svg>
