<svg width="523" height="393" viewBox="0 0 523 393" fill="none" xmlns="http://www.w3.org/2000/svg">
<g clip-path="url(#clip0)">
<path opacity="0.4" d="M441.408 151.093C448.329 151.093 453.94 145.484 453.94 138.564C453.94 131.645 448.329 126.035 441.408 126.035C434.487 126.035 428.876 131.645 428.876 138.564C428.876 145.484 434.487 151.093 441.408 151.093Z" fill="#6C63FF"/>
<path opacity="0.4" d="M177.187 82.1632C187.053 82.1632 195.051 74.1668 195.051 64.3027C195.051 54.4386 187.053 46.4422 177.187 46.4422C167.321 46.4422 159.322 54.4386 159.322 64.3027C159.322 74.1668 167.321 82.1632 177.187 82.1632Z" fill="#6C63FF"/>
<path opacity="0.4" d="M144.124 85.3621C151.045 85.3621 156.656 79.7527 156.656 72.8331C156.656 65.9135 151.045 60.3041 144.124 60.3041C137.203 60.3041 131.593 65.9135 131.593 72.8331C131.593 79.7527 137.203 85.3621 144.124 85.3621Z" fill="#6C63FF"/>
<path d="M451.904 278.671C442.002 289.509 441.642 305.297 441.642 305.297C441.642 305.297 457.337 303.513 467.239 292.675C477.141 281.836 477.5 266.048 477.5 266.048C477.5 266.048 461.806 267.832 451.904 278.671Z" fill="#3F3D56"/>
<path d="M457.497 281.789C454.501 296.16 441.906 305.69 441.906 305.69C441.906 305.69 434.169 291.922 437.165 277.552C440.161 263.182 452.756 253.651 452.756 253.651C452.756 253.651 460.493 267.419 457.497 281.789Z" fill="#6C63FF"/>
<path d="M444.637 133.509V304.814L387.522 351.986H95.3286V172.404L180.586 133.509H444.637Z" fill="#3F3D56"/>
<path opacity="0.1" d="M444.637 133.509V134.195L424.133 147.917L387.522 172.404H95.3286L180.586 133.509H444.637Z" fill="black"/>
<path opacity="0.1" d="M444.637 133.509V304.814L387.522 351.986L387.936 171.991L424.133 147.917L444.306 133.509H444.637Z" fill="black"/>
<path d="M367.656 157.094H189.692L202.935 149.646H373.451L367.656 157.094Z" fill="#2F2E41"/>
<path d="M521.253 361.303C521.253 361.303 524.703 375.728 521.566 376.355C518.43 376.982 503.061 376.78 499.298 377.407C495.534 378.034 487.693 376.982 487.693 374.16C487.693 371.338 495.848 369.456 495.848 369.456C495.848 369.456 507.452 363.185 507.766 362.871C508.08 362.558 521.253 361.303 521.253 361.303Z" fill="#2F2E41"/>
<path d="M518.43 276.324C518.43 276.324 517.489 286.986 517.489 287.927C517.489 288.867 518.43 303.605 517.489 304.233C516.548 304.86 518.116 309.25 518.116 310.818C518.116 312.386 523.135 338.412 521.88 348.447C520.626 358.481 523.762 357.54 522.821 358.481C521.88 359.422 521.88 359.422 521.88 361.303C521.88 363.185 511.844 364.753 511.844 364.753L500.866 295.453L506.512 274.757L518.43 276.324Z" fill="#575A89"/>
<path opacity="0.1" d="M518.43 276.324C518.43 276.324 517.489 286.986 517.489 287.927C517.489 288.867 518.43 303.605 517.489 304.233C516.548 304.86 518.116 309.25 518.116 310.818C518.116 312.386 523.135 338.412 521.88 348.447C520.626 358.481 523.762 357.54 522.821 358.481C521.88 359.422 521.88 359.422 521.88 361.303C521.88 363.185 511.844 364.753 511.844 364.753L500.866 295.453L506.512 274.757L518.43 276.324Z" fill="black"/>
<path d="M516.862 365.693C516.862 365.693 519.998 376.982 516.862 377.609C513.725 378.236 498.357 376.891 494.593 377.518C490.829 378.145 482.988 378.236 482.988 375.414C482.988 372.592 491.143 370.71 491.143 370.71C491.143 370.71 502.748 364.439 503.061 364.125C503.375 363.812 516.862 365.693 516.862 365.693Z" fill="#2F2E41"/>
<path d="M521.253 263.781C521.253 263.781 525.017 272.875 520.625 277.579C516.234 282.282 511.216 291.69 511.216 292.317C511.216 292.944 519.998 355.345 518.744 359.422C517.489 363.498 517.803 366.007 518.116 366.634C518.43 367.261 514.98 370.71 511.216 370.71C507.452 370.71 501.807 367.888 501.18 365.38C500.552 362.871 502.121 341.234 501.807 337.158C501.493 333.081 499.925 327.124 499.298 325.869C498.67 324.615 495.22 323.361 494.593 319.598C493.966 315.835 488.948 267.858 490.516 266.29C492.084 264.722 521.253 263.781 521.253 263.781Z" fill="#575A89"/>
<path d="M497.416 191.659C503.305 191.659 508.08 186.886 508.08 180.998C508.08 175.11 503.305 170.336 497.416 170.336C491.526 170.336 486.752 175.11 486.752 180.998C486.752 186.886 491.526 191.659 497.416 191.659Z" fill="#FFB9B9"/>
<path d="M504.002 186.329C504.002 186.329 501.807 197.931 503.375 199.185C504.943 200.439 491.457 202.321 491.457 202.321C491.457 202.321 489.888 186.956 489.575 185.388C489.261 183.82 504.002 186.329 504.002 186.329Z" fill="#FFB9B9"/>
<path d="M489.575 201.38C489.575 201.38 493.339 190.405 508.707 193.541C508.707 193.541 511.53 194.481 510.589 195.422C509.648 196.363 508.707 196.363 509.962 197.304C511.216 198.244 512.784 197.304 511.843 198.244C510.903 199.185 520.312 204.829 519.685 215.491C519.057 226.152 521.88 241.204 519.685 243.713C517.489 246.221 521.253 257.196 520.625 259.391C519.998 261.586 524.389 264.409 522.507 265.349C520.625 266.29 486.752 271.934 485.811 265.349C484.87 258.764 485.497 263.468 484.557 261.9C483.616 260.332 483.302 257.51 483.929 254.061C484.557 250.611 486.125 242.145 485.497 239.009C484.87 235.873 485.497 209.533 487.379 206.397C489.261 203.262 489.575 201.38 489.575 201.38Z" fill="#6C63FF"/>
<path d="M496.161 277.892C496.161 277.892 500.866 295.766 494.907 295.766C488.948 295.766 489.261 277.265 489.261 277.265L496.161 277.892Z" fill="#FFB9B9"/>
<path d="M492.711 180.998C492.711 181.907 494.029 182.484 496.07 182.616H496.073C496.939 182.665 497.807 182.648 498.67 182.566C499.975 182.446 500.515 183.673 500.737 185.291C501.101 187.959 500.593 191.7 501.18 192.286C501.989 193.095 507.888 192.283 509.733 190.449C510.02 190.192 510.211 189.844 510.275 189.464C510.469 188.344 511.021 187.317 511.85 186.539C512.938 185.35 514.487 184.033 516.234 181.938C519.371 178.176 516.235 177.862 515.294 175.04C514.353 172.218 512.784 171.277 512.784 169.396C512.784 167.514 505.571 165.946 499.611 166.26C493.652 166.573 494.907 174.099 494.907 174.099C494.907 174.099 494.552 175.008 494.129 176.181C493.556 177.653 493.091 179.164 492.736 180.703C492.722 180.801 492.713 180.899 492.711 180.998V180.998Z" fill="#2F2E41"/>
<path opacity="0.1" d="M493.966 206.084C493.966 206.084 504.63 205.457 505.571 221.135C506.512 236.814 506.198 251.552 506.198 251.866C506.198 252.179 501.807 281.969 497.73 281.969C493.652 281.969 490.516 281.342 489.575 279.774C488.634 278.206 492.084 255.629 492.084 255.629C492.084 255.629 493.652 231.797 491.143 224.271C488.634 216.745 488.32 207.024 493.966 206.084Z" fill="black"/>
<path d="M492.398 204.516C492.398 204.516 503.061 203.889 504.002 219.567C504.943 235.246 504.63 249.984 504.63 250.298C504.63 250.611 500.239 280.401 496.161 280.401C492.084 280.401 488.948 279.774 488.007 278.206C487.066 276.638 490.516 254.061 490.516 254.061C490.516 254.061 492.084 230.229 489.575 222.703C487.066 215.177 486.752 205.457 492.398 204.516Z" fill="#6C63FF"/>
<path d="M315.567 51.2367C315.567 51.2367 310.92 38.072 307.564 42.2021C304.207 46.3322 312.727 53.3017 312.727 53.3017L315.567 51.2367Z" fill="#A0616A"/>
<path d="M337.513 38.3301L334.718 39.366C334.718 39.366 333.382 45.2997 333.899 46.3322C334.415 47.3647 334.673 46.5903 333.899 48.6554C333.124 50.7204 330.8 56.1412 330.542 56.9155C330.284 57.6899 315.567 52.0111 315.567 49.1716C315.567 49.1716 312.469 52.7855 310.92 53.5599C310.92 53.5599 327.96 65.9501 330.284 67.4989C332.608 69.0477 333.899 68.2733 335.964 66.4664C338.03 64.6595 346.808 49.6879 346.808 49.6879L337.513 38.3301Z" fill="#575A89"/>
<path d="M330.026 129.967C330.026 129.967 330.284 132.806 330.8 133.064C331.317 133.322 335.19 139.776 330.8 141.066C326.411 142.357 323.829 141.841 322.797 142.357C321.764 142.873 303.691 143.906 303.433 141.066C303.174 138.227 312.211 137.71 312.211 137.71C312.211 137.71 320.473 132.29 321.764 129.45C323.055 126.611 330.026 129.967 330.026 129.967Z" fill="#2F2E41"/>
<path d="M382.438 135.129C382.438 135.129 388.634 145.713 387.085 147.003C385.536 148.294 370.449 152.997 368.238 153.198C365.397 153.456 363.332 151.133 365.656 149.843C367.979 148.552 372.885 143.131 372.885 141.324V136.678L382.438 135.129Z" fill="#2F2E41"/>
<path d="M388.376 65.9501C388.376 65.9501 393.798 72.6615 385.278 83.503L371.078 101.572C371.078 101.572 379.856 115.511 380.114 122.739C380.372 129.967 382.18 128.418 382.696 131.515C383.212 134.613 385.536 133.064 383.729 135.387C381.921 137.71 375.209 139.776 373.143 137.969C372.433 137.319 371.878 136.517 371.52 135.623C371.163 134.729 371.011 133.766 371.078 132.806C371.078 131.773 367.463 125.836 367.205 124.03C366.947 122.223 357.394 107.509 357.394 107.509C357.394 107.509 354.295 98.7327 357.91 93.8282C361.525 88.9238 363.913 81.9678 363.913 81.9678C363.913 81.9678 353.263 94.8608 345.775 97.9583C345.775 97.9583 342.935 98.4746 343.452 99.7653C343.968 101.056 343.452 101.83 342.677 103.121C341.902 104.412 336.481 119.383 334.673 123.255C332.866 127.127 333.64 129.45 331.575 130.741C329.509 132.032 320.215 130.999 320.215 129.708C320.215 128.418 321.506 125.062 322.28 123.255C323.055 121.448 329.251 100.54 328.735 96.9258C328.219 93.312 328.993 88.4075 332.866 86.3425C336.739 84.2774 356.361 67.4989 357.394 67.4989C358.426 67.4989 388.376 65.9501 388.376 65.9501Z" fill="#2F2E41"/>
<path d="M336.481 25.4236C342.469 25.4236 347.324 20.5697 347.324 14.5821C347.324 8.59452 342.469 3.74062 336.481 3.74062C330.492 3.74062 325.637 8.59452 325.637 14.5821C325.637 20.5697 330.492 25.4236 336.481 25.4236Z" fill="#A0616A"/>
<path d="M345.259 15.6146C345.259 15.6146 348.615 21.5516 352.746 22.3261C356.877 23.1005 341.902 34.9745 341.902 34.9745C341.902 34.9745 338.288 23.6167 335.19 23.1005C332.091 22.5842 345.259 15.6146 345.259 15.6146Z" fill="#A0616A"/>
<path d="M334.673 39.8789C334.673 43.2346 344.742 52.7854 344.742 52.7854L354.295 60.7875C354.295 60.7875 354.554 63.6269 355.586 63.8851C356.619 64.1432 357.91 64.1432 356.877 65.692C355.845 67.2408 353.263 70.5965 355.586 71.1127C356.287 71.2192 356.993 71.2865 357.701 71.3141C358.321 71.3502 359.049 71.3838 359.867 71.4147C361.778 71.4818 364.168 71.5257 366.758 71.5077C367.494 71.5051 368.243 71.4965 369.004 71.4818C378.766 71.2882 390.075 70.1654 389.151 66.4664C387.602 60.2712 388.634 58.2062 385.278 54.8505C381.921 51.4948 376.499 39.8789 376.499 39.8789C376.499 39.8789 365.656 21.5516 356.619 21.5516L354.742 21.0586C353.87 20.8289 352.948 20.8793 352.106 21.2026C351.264 21.526 350.545 22.1059 350.051 22.8603C348.238 25.6198 345.38 29.7653 343.71 31.1024C341.128 33.1675 340.725 31.6858 340.725 31.6858C340.725 31.6858 334.673 36.5232 334.673 39.8789Z" fill="#575A89"/>
<path d="M357.652 79.1148C357.652 79.1148 350.164 90.7307 354.812 92.7957C359.459 94.8608 362.041 80.6636 362.041 80.6636L357.652 79.1148Z" fill="#A0616A"/>
<path d="M343.57 13.3576C343.153 13.305 343.022 12.78 342.952 12.3665C342.577 10.1522 340.926 8.05246 338.708 7.69501C337.861 7.58227 336.999 7.65172 336.18 7.89872C335.007 8.22046 333.906 8.76221 332.936 9.49512C332.461 9.92903 331.912 10.2738 331.315 10.5129C330.908 10.6323 329.18 11.4003 328.777 11.5302C327.889 11.8159 327.155 12.7446 326.241 12.5608C325.366 12.3848 325.034 11.329 324.894 10.4484C324.573 8.44195 325.722 5.44822 326.864 3.76763C327.731 2.49229 329.197 1.75832 330.664 1.28082C332.382 0.759478 334.147 0.408823 335.933 0.233945C338.345 -0.0508534 340.844 -0.201954 343.155 0.543441C345.467 1.28884 347.571 3.11224 348.003 5.50184C348.093 5.99962 348.11 6.50947 348.22 7.00316C348.488 8.20751 349.285 9.21983 349.75 10.3629C350.086 11.2023 350.242 12.1028 350.208 13.0061C350.174 13.9095 349.951 14.7957 349.553 15.6076C348.909 16.902 347.79 18.1459 348.031 19.5712L346.039 18.0005C345.751 17.8369 345.528 17.5796 345.407 17.2714C345.286 16.9633 345.274 16.6229 345.374 16.3072L345.663 13.813C345.764 13.3611 345.718 12.8891 345.534 12.4645C344.649 10.9179 344.264 13.4451 343.57 13.3576Z" fill="#2F2E41"/>
<path opacity="0.1" d="M362.299 61.3038L359.867 71.4147C362.32 71.5025 365.565 71.549 369.004 71.4819C369.872 68.8799 370.701 66.167 371.336 63.627C373.66 54.3342 369.787 40.1371 367.721 33.4257C365.656 26.7143 360.492 24.9073 360.492 24.9073C358.375 25.6517 356.375 26.6947 354.554 28.0049C351.197 30.3281 362.299 61.3038 362.299 61.3038Z" fill="black"/>
<path opacity="0.1" d="M360.234 60.7875L357.701 71.3141C358.321 71.3502 359.049 71.3838 359.867 71.4147C361.778 71.4819 364.168 71.5257 366.758 71.5077C367.69 68.7431 368.591 65.8262 369.27 63.1107C371.594 53.818 367.721 39.6208 365.656 32.9094C363.59 26.198 359.072 33.5547 359.072 33.5547C359.072 33.5547 360.879 29.1665 357.523 31.4896C354.166 33.8128 360.234 60.7875 360.234 60.7875Z" fill="black"/>
<path d="M359.459 24.3911C359.459 24.3911 364.623 26.198 366.688 32.9094C368.754 39.6208 372.627 53.818 370.303 63.1107C367.979 72.4034 363.074 84.0193 363.074 84.0193C363.074 84.0193 358.168 80.4054 356.361 81.1798L361.266 60.7875C361.266 60.7875 350.164 29.8118 353.521 27.4886C355.343 26.1785 357.342 25.1354 359.459 24.3911V24.3911Z" fill="#575A89"/>
<path d="M363.308 153.867L291.876 5.04586L172.436 62.3502L216.363 153.867H363.308Z" fill="#F2F2F2"/>
<path d="M267.703 63.4617L204.265 93.898L206.154 97.8347L269.593 67.3984L267.703 63.4617Z" fill="#3F3D56"/>
<path d="M284.499 98.4547L221.061 128.891L222.95 132.828L286.389 102.391L284.499 98.4547Z" fill="#3F3D56"/>
<path d="M296.037 42.872L280.287 50.4286L287.845 66.1755L303.595 58.6189L296.037 42.872Z" fill="#3F3D56"/>
<path d="M312.833 77.865L297.083 85.4217L304.641 101.169L320.391 93.6119L312.833 77.865Z" fill="#3F3D56"/>
<path d="M297.122 31.9647L290.636 50.4163L281.892 47.3435L280.695 50.7472L292.832 55.0117L300.526 33.161L297.122 31.9647Z" fill="#57B894"/>
<path d="M313.918 66.9576L307.432 85.4092L298.688 82.337L297.492 85.7401L309.628 90.0046L317.323 68.1539L313.918 66.9576Z" fill="#57B894"/>
<path d="M6.89368 325.151L39.1661 318.259L32.2725 285.994L2.08532e-05 292.886L6.89368 325.151Z" fill="#F2F2F2"/>
<path d="M38.2686 277.373C38.2686 277.373 26.4148 285.838 30.3661 289.224C34.3173 292.61 42.2198 279.066 42.2198 279.066L38.2686 277.373Z" fill="#FFB9B9"/>
<path d="M93.0216 290.353C93.0216 290.353 90.7637 318.57 90.1992 322.52C89.6348 326.471 89.0703 362.024 87.9414 365.974C86.8124 369.925 85.6835 379.519 85.6835 379.519H78.91C78.91 379.519 79.4744 362.024 77.781 355.252C76.0876 348.48 76.6521 329.857 76.6521 329.857C76.6521 329.857 73.2653 296.561 74.9587 292.046C76.6521 287.531 93.0216 290.353 93.0216 290.353Z" fill="#FFB9B9"/>
<path d="M83.9901 377.826C83.9901 377.826 86.8125 379.518 86.8125 380.647C86.8125 381.776 86.248 384.598 86.8125 385.726C87.3769 386.855 91.3282 391.37 89.0703 392.498C86.8124 393.627 76.6521 392.498 76.6521 392.498C76.6521 392.498 77.2166 384.598 77.781 384.033C78.3455 383.469 77.2166 377.826 77.2166 377.826H83.9901Z" fill="#2F2E41"/>
<path d="M49.8716 289.661C49.8716 289.661 49.1545 317.959 49.3011 321.947C49.4477 325.935 46.2763 361.351 46.9842 365.398C47.6922 369.445 47.8076 379.105 47.8076 379.105L54.5438 379.815C54.5438 379.815 55.8192 362.358 58.2142 355.801C60.6092 349.244 62.0031 330.665 62.0031 330.665C62.0031 330.665 68.8669 297.908 67.6569 293.24C66.4468 288.573 49.8716 289.661 49.8716 289.661Z" fill="#FFB9B9"/>
<path d="M49.6695 377.599C49.6695 377.599 46.685 378.986 46.5665 380.108C46.448 381.231 46.7131 384.096 46.0332 385.159C45.3534 386.223 40.95 390.298 43.0769 391.657C45.2037 393.017 55.4265 392.96 55.4265 392.96C55.4265 392.96 55.6946 385.044 55.1925 384.424C54.6904 383.803 56.4056 378.309 56.4056 378.309L49.6695 377.599Z" fill="#2F2E41"/>
<path d="M85.1191 248.027C85.1191 248.027 89.6348 248.592 91.3282 258.185C93.0216 267.779 99.2307 292.046 94.1505 293.739C89.0703 295.432 73.8298 298.818 73.2653 297.689C72.7009 296.561 71.572 293.739 71.572 293.739C71.572 293.739 73.2653 298.818 71.0075 298.818C68.7497 298.818 46.7356 295.432 47.3 293.739C47.8645 292.046 48.9934 279.63 48.9934 279.63C48.9934 279.63 52.3802 258.75 55.767 255.364C56.7471 254.423 57.5081 253.278 57.9959 252.01C58.4836 250.742 58.6862 249.382 58.5893 248.027H85.1191Z" fill="#2F2E41"/>
<path d="M93.586 243.513C93.586 243.513 86.248 241.82 85.1191 244.077C83.9901 246.334 87.9414 249.72 89.6348 249.72C91.3281 249.72 94.1505 248.027 94.1505 248.027L93.586 243.513Z" fill="#FFB9B9"/>
<path d="M78.3455 195.544C83.9569 195.544 88.5058 190.996 88.5058 185.385C88.5058 179.775 83.9569 175.227 78.3455 175.227C72.7341 175.227 68.1852 179.775 68.1852 185.385C68.1852 190.996 72.7341 195.544 78.3455 195.544Z" fill="#FFB9B9"/>
<path d="M76.6521 192.722C76.6521 192.722 74.9587 200.623 76.0876 200.623C77.2165 200.623 67.6207 205.702 67.6207 205.702L60.2827 204.573L58.0248 201.187C58.0248 201.187 69.8785 193.286 69.8785 188.771C69.8785 184.257 76.6521 192.722 76.6521 192.722Z" fill="#FFB9B9"/>
<path d="M71.5719 200.623C71.5719 200.623 73.2653 199.494 73.8298 199.494H78.3455C78.91 199.494 86.248 201.187 86.248 201.187L90.7637 226.582C90.7637 226.582 82.8612 239.562 88.5058 249.72C88.5058 249.72 86.8125 248.592 78.91 249.156C71.0075 249.72 56.8959 251.413 56.3314 251.413C55.7669 251.413 55.7669 246.899 56.3314 245.77C56.8959 244.641 55.7669 245.206 55.7669 242.384C55.7669 239.562 54.0736 234.483 54.0736 234.483L46.1711 205.702C46.1711 205.702 56.3314 200.058 58.0248 200.623C59.7182 201.187 64.7984 202.88 65.9273 202.316C67.0562 201.751 71.5719 200.623 71.5719 200.623Z" fill="#6C63FF"/>
<path d="M84.5546 201.751L86.248 201.187C86.248 201.187 89.6347 200.623 93.586 204.009C97.5372 207.395 112.213 217.553 112.213 217.553C112.213 217.553 117.858 222.068 116.165 227.147C114.471 232.226 111.649 244.641 103.182 244.077C103.182 244.077 98.1017 250.849 95.2794 249.72C92.4571 248.592 90.1992 244.077 91.8926 243.513C93.586 242.948 98.1017 237.305 98.1017 237.305L92.4571 226.582H90.7637L84.5546 223.196L84.5546 201.751Z" fill="#6C63FF"/>
<path d="M50.6868 205.137L46.1711 205.702C46.1711 205.702 42.2198 207.395 42.7843 214.731C43.3488 222.068 39.3975 255.364 41.0909 259.314C41.0909 259.314 35.4463 278.502 36.5752 279.066C37.7041 279.63 44.4777 283.016 43.9132 280.759C43.3488 278.502 50.1223 262.7 50.1223 262.7C50.1223 262.7 58.0248 254.235 54.638 242.384V232.79L50.6868 205.137Z" fill="#6C63FF"/>
<path d="M86.8016 195.207L79.6258 196.769L78.7036 193.237L79.0582 196.893L67.4821 199.414L66.973 197.464L67.1687 199.483L59.7543 201.098L58.1682 185.875C56.5375 179.629 62.4888 172.972 68.7365 171.341L71.5082 170.618C76.0969 169.421 84.438 170.509 85.6357 175.097C83.5395 183.096 79.9661 191.865 86.8016 195.207Z" fill="#2F2E41"/>
</g>
<defs>
<clipPath id="clip0">
<rect width="523" height="393" fill="white"/>
</clipPath>
</defs>
</svg>
