<svg width="32" height="32" viewBox="0 0 32 32" fill="none" xmlns="http://www.w3.org/2000/svg">
<path d="M7.33331 22.6667H24.6666V28.6667H7.33331V22.6667ZM9.99998 16H22V22H9.99998V16ZM22 14.6667H9.99998C9.99998 12 12.6873 9.33333 16 9.33333C19.3126 9.33333 22 12 22 14.6667ZM14.6666 6H17.3333V9.33333H14.6666V6Z" fill="#C5CAE9"/>
<path d="M8.66669 23.3333H10V28H8.66669V23.3333ZM11.3334 23.3333H12.6667V28H11.3334V23.3333ZM14 23.3333H15.3334V28H14V23.3333ZM16.6667 23.3333H18V28H16.6667V23.3333ZM19.3334 23.3333H20.6667V28H19.3334V23.3333ZM11.3334 16.6667H12.6667V21.3333H11.3334V16.6667ZM14 16.6667H15.3334V21.3333H14V16.6667ZM16.6667 16.6667H18V21.3333H16.6667V16.6667ZM19.3334 16.6667H20.6667V21.3333H19.3334V16.6667ZM22 23.3333H23.3334V28H22V23.3333Z" fill="#5C6BC0"/>
<path d="M25.3334 22.3333C25.3334 22.5985 25.228 22.8529 25.0405 23.0404C24.8529 23.228 24.5986 23.3333 24.3334 23.3333H7.66669C7.40147 23.3333 7.14712 23.228 6.95958 23.0404C6.77204 22.8529 6.66669 22.5985 6.66669 22.3333C6.66669 22.0681 6.77204 21.8138 6.95958 21.6262C7.14712 21.4387 7.40147 21.3333 7.66669 21.3333H24.3334C24.5986 21.3333 24.8529 21.4387 25.0405 21.6262C25.228 21.8138 25.3334 22.0681 25.3334 22.3333ZM25.3334 29C25.3334 29.2652 25.228 29.5196 25.0405 29.7071C24.8529 29.8946 24.5986 30 24.3334 30H7.66669C7.40147 30 7.14712 29.8946 6.95958 29.7071C6.77204 29.5196 6.66669 29.2652 6.66669 29C6.66669 28.7348 6.77204 28.4804 6.95958 28.2929C7.14712 28.1053 7.40147 28 7.66669 28H24.3334C24.5986 28 24.8529 28.1053 25.0405 28.2929C25.228 28.4804 25.3334 28.7348 25.3334 29ZM23.3334 15.6667C23.3334 15.9319 23.228 16.1862 23.0405 16.3738C22.8529 16.5613 22.5986 16.6667 22.3334 16.6667H9.66669C9.40147 16.6667 9.14712 16.5613 8.95958 16.3738C8.77204 16.1862 8.66669 15.9319 8.66669 15.6667C8.66669 15.4014 8.77204 15.1471 8.95958 14.9595C9.14712 14.772 9.40147 14.6667 9.66669 14.6667H22.3334C22.5986 14.6667 22.8529 14.772 23.0405 14.9595C23.228 15.1471 23.3334 15.4014 23.3334 15.6667ZM18 9.33332C18 9.51013 17.9298 9.6797 17.8048 9.80473C17.6797 9.92975 17.5102 9.99999 17.3334 9.99999H14.6667C14.4899 9.99999 14.3203 9.92975 14.1953 9.80473C14.0703 9.6797 14 9.51013 14 9.33332C14 9.15651 14.0703 8.98694 14.1953 8.86192C14.3203 8.73689 14.4899 8.66666 14.6667 8.66666H17.3334C17.5102 8.66666 17.6797 8.73689 17.8048 8.86192C17.9298 8.98694 18 9.15651 18 9.33332Z" fill="#9FA8DA"/>
<path d="M17.3334 5.99999H14.6667C14.6667 5.64637 14.8072 5.30723 15.0572 5.05718C15.3073 4.80713 15.6464 4.66666 16 4.66666C16.3536 4.66666 16.6928 4.80713 16.9428 5.05718C17.1929 5.30723 17.3334 5.64637 17.3334 5.99999Z" fill="#455A64"/>
<path d="M16.6666 5.33333C16.6666 5.51014 16.5964 5.67971 16.4714 5.80474C16.3464 5.92976 16.1768 6 16 6C15.8232 6 15.6536 5.92976 15.5286 5.80474C15.4036 5.67971 15.3333 5.51014 15.3333 5.33333V2.66667C15.3333 2.48986 15.4036 2.32029 15.5286 2.19526C15.6536 2.07024 15.8232 2 16 2C16.1768 2 16.3464 2.07024 16.4714 2.19526C16.5964 2.32029 16.6666 2.48986 16.6666 2.66667V5.33333Z" fill="#455A64"/>
</svg>
