<svg width="24" height="24" viewBox="0 0 24 24" fill="none" xmlns="http://www.w3.org/2000/svg">
<path d="M12 22L11.1832 22.577L12 23.7331L12.8167 22.577L12 22ZM17.9231 8.89655C17.9231 8.89655 17.9231 8.89655 17.9231 8.89655C17.9231 8.89655 17.9231 8.89655 17.9231 8.89655C17.9231 8.89655 17.9231 8.89655 17.9231 8.89655C17.9231 8.89655 17.9231 8.89655 17.9231 8.89655C17.9231 8.89655 17.9231 8.89655 17.9231 8.89655C17.9231 8.89655 17.9231 8.89655 17.9231 8.89655C17.9231 8.89655 17.9231 8.89655 17.9231 8.89655C17.9231 8.89655 17.9231 8.89655 17.9231 8.89655C17.9231 8.89655 17.9231 8.89655 17.9231 8.89655C17.9231 8.89655 17.9231 8.89655 17.9231 8.89655C17.9231 8.89655 17.9231 8.89655 17.9231 8.89655C17.9231 8.89655 17.9231 8.89655 17.9231 8.89655C17.9231 8.89655 17.9231 8.89655 17.9231 8.89655C17.9231 8.89655 17.9231 8.89655 17.9231 8.89655C17.9231 8.89655 17.9231 8.89655 17.9231 8.89655C17.9231 8.89655 17.9231 8.89655 17.9231 8.89655C17.9231 8.89655 17.9231 8.89655 17.9231 8.89655C17.9231 8.89655 17.9231 8.89655 17.9231 8.89655C17.9231 8.89655 17.9231 8.89655 17.9231 8.89655C17.9231 8.89655 17.9231 8.89655 17.9231 8.89655C17.9231 8.89655 17.9231 8.89655 17.9231 8.89655C17.9231 8.89655 17.9231 8.89655 17.9231 8.89655C17.9231 8.89655 17.9231 8.89655 17.9231 8.89655C17.9231 8.89655 17.9231 8.89655 17.9231 8.89655C17.9231 8.89655 17.9231 8.89655 17.9231 8.89655C17.9231 8.89655 17.9231 8.89655 17.9231 8.89655C17.9231 8.89655 17.9231 8.89655 17.9231 8.89655C17.9231 8.89655 17.9231 8.89655 17.9231 8.89655C17.9231 8.89655 17.9231 8.89655 17.9231 8.89655C17.9231 8.89655 17.9231 8.89655 17.9231 8.89655C17.9231 8.89655 17.9231 8.89655 17.9231 8.89655C17.9231 8.89655 17.9231 8.89655 17.9231 8.89655C17.9231 8.89655 17.9231 8.89655 17.9231 8.89655C17.9231 8.89655 17.9231 8.89655 17.9231 8.89655C17.9231 8.89655 17.9231 8.89655 17.9231 8.89655C17.9231 8.89655 17.9231 8.89655 17.9231 8.89655C17.9231 8.89655 17.9231 8.89655 17.9231 8.89655C17.9231 8.89655 17.9231 8.89655 17.9231 8.89655C17.9231 8.89655 17.9231 8.89655 17.9231 8.89655C17.9231 8.89655 17.9231 8.89655 17.9231 8.89655C17.9231 8.89655 17.9231 8.89655 17.9231 8.89655C17.9231 8.89655 17.9231 8.89655 17.9231 8.89655C17.9231 8.89655 17.9231 8.89655 17.9231 8.89655C17.9231 8.89655 17.9231 8.89655 17.9231 8.89655C17.9231 8.89655 17.9231 8.89655 17.9231 8.89655C17.9231 8.89655 17.9231 8.89655 17.9231 8.89655C17.9231 8.89655 17.9231 8.89655 17.9231 8.89655C17.9231 8.89655 17.9231 8.89655 17.9231 8.89655C17.9231 8.89655 17.9231 8.89655 17.9231 8.89655C17.9231 8.89655 17.9231 8.89655 17.9231 8.89655C17.9231 8.89655 17.9231 8.89655 17.9231 8.89655C17.9231 8.89655 17.9231 8.89655 17.9231 8.89655C17.9231 8.89655 17.9231 8.89655 17.9231 8.89655C17.9231 8.89655 17.9231 8.89655 17.9231 8.89655C17.9231 8.89655 17.9231 8.89655 17.9231 8.89655C17.9231 8.89655 17.9231 8.89655 17.9231 8.89655C17.9231 8.89655 17.9231 8.89655 17.9231 8.89655C17.9231 8.89655 17.9231 8.89655 17.9231 8.89655C17.9231 8.89655 17.9231 8.89655 17.9231 8.89655C17.9231 8.89655 17.9231 8.89655 17.9231 8.89655C17.9231 8.89655 17.9231 8.89655 17.9231 8.89655C17.9231 8.89655 17.9231 8.89655 17.9231 8.89655C17.9231 8.89655 17.9231 8.89655 17.9231 8.89655C17.9231 8.89655 17.9231 8.89655 17.9231 8.89655C17.9231 8.89655 17.9231 8.89655 17.9231 8.89655C17.9231 8.89655 17.9231 8.89655 17.9231 8.89655C17.9231 8.89655 17.9231 8.89655 17.9231 8.89655C17.9231 8.89655 17.9231 8.89655 17.9231 8.89655C17.9231 8.89655 17.9231 8.89655 17.9231 8.89655C17.9231 8.89655 17.9231 8.89655 17.9231 8.89655C17.9231 8.89655 17.9231 8.89655 17.9231 8.89655C17.9231 8.89655 17.9231 8.89655 17.9231 8.89655C17.9231 8.89655 17.9231 8.89655 17.9231 8.89655C17.9231 8.89655 17.9231 8.89655 17.9231 8.89655C17.9231 8.89655 17.9231 8.89655 17.9231 8.89655C17.9231 8.89655 17.9231 8.89655 17.9231 8.89655C17.9231 8.89655 17.9231 8.89655 17.9231 8.89655C17.9231 8.89655 17.9231 8.89655 17.9231 8.89655C17.9231 8.89655 17.9231 8.89655 17.9231 8.89655C17.9231 8.89655 17.9231 8.89655 17.9231 8.89655C17.9231 8.89655 17.9231 8.89655 17.9231 8.89655C17.9231 8.89655 17.9231 8.89655 17.9231 8.89655C17.9231 8.89655 17.9231 8.89655 17.9231 8.89655C17.9231 8.89655 17.9231 8.89655 17.9231 8.89655C17.9231 8.89655 17.9231 8.89655 17.9231 8.89655C17.9231 8.89655 17.9231 8.89655 17.9231 8.89655C17.9231 8.89655 17.9231 8.89655 17.9231 8.89655C17.9231 8.89655 17.9231 8.89655 17.9231 8.89655C17.9231 8.89655 17.9231 8.89655 17.9231 8.89655C17.9231 8.89655 17.9231 8.89655 17.9231 8.89655C17.9231 8.89655 17.9231 8.89655 17.9231 8.89655C17.9231 8.89655 17.9231 8.89655 17.9231 8.89655C17.9231 8.89655 17.9231 8.89655 17.9231 8.89655C17.9231 8.89655 17.9231 8.89655 17.9231 8.89655C17.9231 8.89655 17.9231 8.89655 17.9231 8.89655C17.9231 8.89655 17.9231 8.89655 17.9231 8.89655C17.9231 8.89655 17.9231 8.89655 17.9231 8.89655C17.9231 8.89655 17.9231 8.89655 17.9231 8.89655C17.9231 8.89655 17.9231 8.89655 17.9231 8.89655C17.9231 8.89655 17.9231 8.89655 17.9231 8.89655C17.9231 8.89655 17.9231 8.89655 17.9231 8.89655C17.9231 8.89655 17.9231 8.89655 17.9231 8.89655C17.9231 8.89655 17.9231 8.89655 17.9231 8.89655C17.9231 8.89655 17.9231 8.89655 17.9231 8.89655C17.9231 8.89655 17.9231 8.89655 17.9231 8.89655C17.9231 8.89655 17.9231 8.89655 17.9231 8.89655C17.9231 8.89655 17.9231 8.89655 17.9231 8.89655C17.9231 8.89655 17.9231 8.89655 17.9231 8.89655C17.9231 8.89655 17.9231 8.89655 17.9231 8.89655C17.9231 8.89655 17.9231 8.89655 17.9231 8.89655C17.9231 8.89655 17.9231 8.89655 17.9231 8.89655C17.9231 8.89655 17.9231 8.89655 17.9231 8.89655C17.9231 8.89655 17.9231 8.89655 17.9231 8.89655C17.9231 8.89655 17.9231 8.89655 17.9231 8.89655C17.9231 8.89655 17.9231 8.89655 17.9231 8.89655C17.9231 8.89655 17.9231 8.89655 17.9231 8.89655C17.9231 8.89655 17.9231 8.89655 17.9231 8.89655C17.9231 8.89655 17.9231 8.89655 17.9231 8.89655C17.9231 8.89655 17.9231 8.89655 17.9231 8.89655C17.9231 8.89655 17.9231 8.89655 17.9231 8.89655C17.9231 8.89655 17.9231 8.89655 17.9231 8.89655C17.9231 8.89655 17.9231 8.89655 17.9231 8.89655C17.9231 8.89655 17.9231 8.89655 17.9231 8.89655C17.9231 8.89655 17.9231 8.89655 17.9231 8.89655C17.9231 8.89655 17.9231 8.89655 17.9231 8.89655C17.9231 8.89655 17.9231 8.89655 17.9231 8.89655C17.9231 8.89655 17.9231 8.89655 17.9231 8.89655C17.9231 8.89655 17.9231 8.89655 17.9231 8.89655C17.9231 8.89655 17.9231 8.89655 17.9231 8.89655C17.9231 8.89655 17.9231 8.89655 17.9231 8.89655C17.9231 8.89655 17.9231 8.89655 17.9231 8.89655C17.9231 8.89655 17.9231 8.89655 17.9231 8.89655C17.9231 8.89655 17.9231 8.89655 17.9231 8.89655C17.9231 8.89655 17.9231 8.89655 17.9231 8.89655C17.9231 8.89655 17.9231 8.89655 17.9231 8.89655C17.9231 8.89655 17.9231 8.89655 17.9231 8.89655C17.9231 8.89655 17.9231 8.89655 17.9231 8.89655C17.9231 8.89655 17.9231 8.89655 17.9231 8.89655C17.9231 8.89655 17.9231 8.89655 17.9231 8.89655C17.9231 8.89655 17.9231 8.89655 17.9231 8.89655C17.9231 8.89655 17.9231 8.89655 17.9231 8.89655C17.9231 8.89655 17.9231 8.89655 17.9231 8.89655C17.9231 8.89655 17.9231 8.89655 17.9231 8.89655C17.9231 8.89655 17.9231 8.89655 17.9231 8.89655C17.9231 8.89655 17.9231 8.89655 17.9231 8.89655C17.9231 8.89655 17.9231 8.89655 17.9231 8.89655C17.9231 8.89655 17.9231 8.89655 17.9231 8.89655C17.9231 8.89655 17.9231 8.89655 17.9231 8.89655C17.9231 8.89655 17.9231 8.89655 17.9231 8.89655C17.9231 8.89655 17.9231 8.89655 17.9231 8.89655C17.9231 8.89655 17.9231 8.89655 17.9231 8.89655C17.9231 8.89655 17.9231 8.89655 17.9231 8.89655C17.9231 8.89655 17.9231 8.89655 17.9231 8.89655C17.9231 8.89655 17.9231 8.89655 17.9231 8.89655C17.9231 8.89655 17.9231 8.89655 17.9231 8.89655C17.9231 8.89655 17.9231 8.89655 17.9231 8.89655C17.9231 8.89655 17.9231 8.89655 17.9231 8.89655C17.9231 8.89655 17.9231 8.89655 17.9231 8.89655C17.9231 8.89655 17.9231 8.89655 17.9231 8.89655C17.9231 8.89655 17.9231 8.89655 17.9231 8.89655C17.9231 8.89655 17.9231 8.89655 17.9231 8.89655C17.9231 8.89655 17.9231 8.89655 17.9231 8.89655C17.9231 8.89655 17.9231 8.89655 17.9231 8.89655C17.9231 8.89655 17.9231 8.89655 17.9231 8.89655C17.9231 8.89655 17.9231 8.89655 17.9231 8.89655C17.9231 8.89655 17.9231 8.89655 17.9231 8.89655C17.9231 8.89655 17.9231 8.89655 17.9231 8.89655C17.9231 8.89655 17.9231 8.89655 17.9231 8.89655C17.9231 8.89655 17.9231 8.89655 17.9231 8.89655C17.9231 8.89655 17.9231 8.89655 17.9231 8.89655C17.9231 8.89655 17.9231 8.89655 17.9231 8.89655C17.9231 8.89655 17.9231 8.89655 17.9231 8.89655C17.9231 8.89655 17.9231 8.89655 17.9231 8.89655C17.9231 8.89655 17.9231 8.89655 17.9231 8.89655C17.9231 8.89655 17.9231 8.89655 17.9231 8.89655C17.9231 8.89655 17.9231 8.89655 17.9231 8.89655C17.9231 8.89655 17.9231 8.89655 17.9231 8.89655C17.9231 8.89655 17.9231 8.89655 17.9231 8.89655C17.9231 8.89655 17.9231 8.89655 17.9231 8.89655C17.9231 8.89655 17.9231 8.89655 17.9231 8.89655C17.9231 8.89655 17.9231 8.89655 17.9231 8.89655C17.9231 8.89655 17.9231 8.89655 17.9231 8.89655C17.9231 8.89655 17.9231 8.89655 17.9231 8.89655C17.9231 8.89655 17.9231 8.89655 17.9231 8.89655C17.9231 8.89655 17.9231 8.89655 17.9231 8.89655C17.9231 8.89655 17.9231 8.89655 17.9231 8.89655C17.9231 8.89655 17.9231 8.89655 17.9231 8.89655C17.9231 8.89655 17.9231 8.89655 17.9231 8.89655C17.9231 8.89655 17.9231 8.89655 17.9231 8.89655C17.9231 8.89655 17.9231 8.89655 17.9231 8.89655C17.9231 8.89655 17.9231 8.89655 17.9231 8.89655C17.9231 8.89655 17.9231 8.89655 17.9231 8.89655C17.9231 8.89655 17.9231 8.89655 17.9231 8.89655C17.9231 8.89655 17.9231 8.89655 17.9231 8.89655C17.9231 8.89655 17.9231 8.89655 17.9231 8.89655C17.9231 8.89655 17.9231 8.89655 17.9231 8.89655C17.9231 8.89655 17.9231 8.89655 17.9231 8.89655C17.9231 8.89655 17.9231 8.89655 17.9231 8.89655C17.9231 8.89655 17.9231 8.89655 17.9231 8.89655C17.9231 8.89655 17.9231 8.89655 17.9231 8.89655C17.9231 8.89655 17.9231 8.89655 17.9231 8.89655C17.9231 8.89655 17.9231 8.89655 17.9231 8.89655C17.9231 8.89655 17.9231 8.89655 17.9231 8.89655C17.9231 8.89655 17.9231 8.89655 17.9231 8.89655C17.9231 8.89655 17.9231 8.89655 17.9231 8.89655C17.9231 8.89655 17.9231 8.89655 17.9231 8.89655C17.9231 8.89655 17.9231 8.89655 17.9231 8.89655C17.9231 8.89655 17.9231 8.89655 17.9231 8.89655C17.9231 8.89655 17.9231 8.89655 17.9231 8.89655C17.9231 8.89655 17.9231 8.89655 17.9231 8.89655C17.9231 8.89655 17.9231 8.89655 17.9231 8.89655C17.9231 8.89655 17.9231 8.89655 17.9231 8.89655C17.9231 8.89655 17.9231 8.89655 17.9231 8.89655C17.9231 8.89655 17.9231 8.89655 17.9231 8.89655C17.9231 8.89655 17.9231 8.89655 17.9231 8.89655C17.9231 8.89655 17.9231 8.89655 17.9231 8.89655C17.9231 8.89655 17.9231 8.89655 17.9231 8.89655C17.9231 8.89655 17.9231 8.89655 17.9231 8.89655C17.9231 8.89655 17.9231 8.89655 17.9231 8.89655C17.9231 8.89655 17.9231 8.89655 17.9231 8.89655C17.9231 8.89655 17.9231 8.89655 17.9231 8.89655C17.9231 8.89655 17.9231 8.89655 17.9231 8.89655C17.9231 8.89655 17.9231 8.89655 17.9231 8.89655C17.9231 8.89655 17.9231 8.89655 17.9231 8.89655C17.9231 8.89655 17.9231 8.89655 17.9231 8.89655C17.9231 8.89655 17.9231 8.89655 17.9231 8.89655C17.9231 8.89655 17.9231 8.89655 17.9231 8.89655C17.9231 8.89655 17.9231 8.89655 17.9231 8.89655C17.9231 8.89655 17.9231 8.89655 17.9231 8.89655C17.9231 8.89655 17.9231 8.89655 17.9231 8.89655C17.9231 8.89655 17.9231 8.89655 17.9231 8.89655C17.9231 8.89655 17.9231 8.89655 17.9231 8.89655C17.9231 8.89655 17.9231 8.89655 17.9231 8.89655C17.9231 8.89655 17.9231 8.89655 17.9231 8.89655C17.9231 8.89655 17.9231 8.89655 17.9231 8.89655C17.9231 8.89655 17.9231 8.89655 17.9231 8.89655C17.9231 8.89655 17.9231 8.89655 17.9231 8.89655C17.9231 8.89655 17.9231 8.89655 17.9231 8.89655C17.9231 8.89655 17.9231 8.89655 17.9231 8.89655C17.9231 8.89655 17.9231 8.89655 17.9231 8.89655C17.9231 8.89655 17.9231 8.89655 17.9231 8.89655C17.9231 8.89655 17.9231 8.89655 17.9231 8.89655C17.9231 8.89655 17.9231 8.89655 17.9231 8.89655C17.9231 8.89655 17.9231 8.89655 17.9231 8.89655C17.9231 8.89655 17.9231 8.89655 17.9231 8.89655C17.9231 8.89655 17.9231 8.89655 17.9231 8.89655C17.9231 8.89655 17.9231 8.89655 17.9231 8.89655C17.9231 8.89655 17.9231 8.89655 17.9231 8.89655C17.9231 8.89655 17.9231 8.89655 17.9231 8.89655C17.9231 8.89655 17.9231 8.89655 17.9231 8.89655C17.9231 8.89655 17.9231 8.89655 17.9231 8.89655C17.9231 8.89655 17.9231 8.89655 17.9231 8.89655C17.9231 8.89655 17.9231 8.89655 17.9231 8.89655C17.9231 8.89655 17.9231 8.89655 17.9231 8.89655C17.9231 8.89655 17.9231 8.89655 17.9231 8.89655C17.9231 8.89655 17.9231 8.89655 17.9231 8.89655C17.9231 8.89655 17.9231 8.89655 17.9231 8.89655C17.9231 8.89655 17.9231 8.89655 17.9231 8.89655C17.9231 8.89655 17.9231 8.89655 17.9231 8.89655C17.9231 8.89655 17.9231 8.89655 17.9231 8.89655C17.9231 8.89655 17.9231 8.89655 17.9231 8.89655C17.9231 8.89655 17.9231 8.89655 17.9231 8.89655C17.9231 8.89655 17.9231 8.89655 17.9231 8.89655C17.9231 8.89655 17.9231 8.89655 17.9231 8.89655C17.9231 8.89655 17.9231 8.89655 17.9231 8.89655C17.9231 8.89655 17.9231 8.89655 17.9231 8.89655C17.9231 8.89655 17.9231 8.89655 17.9231 8.89655C17.9231 8.89655 17.9231 8.89655 17.9231 8.89655C17.9231 8.89655 17.9231 8.89655 17.9231 8.89655C17.9231 8.89655 17.9231 8.89655 17.9231 8.89655C17.9231 8.89655 17.9231 8.89655 17.9231 8.89655C17.9231 8.89655 17.9231 8.89655 17.9231 8.89655C17.9231 8.89655 17.9231 8.89655 17.9231 8.89655C17.9231 8.89655 17.9231 8.89655 17.9231 8.89655C17.9231 8.89655 17.9231 8.89655 17.9231 8.89655C17.9231 8.89655 17.9231 8.89655 17.9231 8.89655C17.9231 8.89655 17.9231 8.89655 17.9231 8.89655C17.9231 8.89655 17.9231 8.89655 17.9231 8.89655C17.9231 8.89655 17.9231 8.89655 17.9231 8.89655C17.9231 8.89655 17.9231 8.89655 17.9231 8.89655C17.9231 8.89655 17.9231 8.89655 17.9231 8.89655C17.9231 8.89655 17.9231 8.89655 17.9231 8.89655C17.9231 8.89655 17.9231 8.89655 17.9231 8.89655C17.9231 8.89655 17.9231 8.89655 17.9231 8.89655C17.9231 8.89655 17.9231 8.89655 17.9231 8.89655C17.9231 8.89655 17.9231 8.89655 17.9231 8.89655C17.9231 8.89655 17.9231 8.89655 17.9231 8.89655C17.9231 8.89655 17.9231 8.89655 17.9231 8.89655C17.9231 8.89655 17.9231 8.89655 17.9231 8.89655C17.9231 8.89655 17.9231 8.89655 17.9231 8.89655C17.9231 8.89656 17.9231 8.89656 17.9231 8.89656C17.9231 8.89656 17.9231 8.89656 17.9231 8.89656C17.9231 8.89656 17.9231 8.89656 17.9231 8.89656C17.9231 8.89656 17.9231 8.89656 17.9231 8.89656C17.9231 8.89656 17.9231 8.89656 17.9231 8.89656C17.9231 8.89656 17.9231 8.89656 17.9231 8.89656C17.9231 8.89656 17.9231 8.89656 17.9231 8.89656C17.9231 8.89656 17.9231 8.89656 17.9231 8.89656C17.9231 8.89656 17.9231 8.89656 17.9231 8.89656C17.9231 8.89656 17.9231 8.89656 17.9231 8.89656C17.9231 8.89656 17.9231 8.89656 17.9231 8.89656C17.9231 8.89656 17.9231 8.89656 17.9231 8.89656C17.9231 8.89656 17.9231 8.89656 17.9231 8.89656C17.9231 8.89656 17.9231 8.89656 17.9231 8.89656C17.9231 8.89656 17.9231 8.89656 17.9231 8.89656C17.9231 8.89656 17.9231 8.89656 17.9231 8.89656C17.9231 8.89656 17.9231 8.89656 17.9231 8.89656C17.9231 8.89656 17.9231 8.89656 17.9231 8.89656C17.9231 8.89656 17.9231 8.89656 17.9231 8.89656C17.9231 8.89656 17.9231 8.89656 17.9231 8.89656C17.9231 8.89656 17.9231 8.89656 17.9231 8.89656C17.9231 8.89656 17.9231 8.89656 17.9231 8.89656C17.9231 8.89656 17.9231 8.89656 17.9231 8.89656C17.9231 8.89656 17.9231 8.89656 17.9231 8.89656C17.9231 8.89656 17.9231 8.89656 17.9231 8.89656C17.9231 8.89656 17.9231 8.89656 17.9231 8.89656C17.9231 8.89656 17.9231 8.89656 17.9231 8.89656C17.9231 8.89656 17.9231 8.89656 17.9231 8.89656C17.9231 8.89656 17.9231 8.89656 17.9231 8.89656C17.9231 8.89656 17.9231 8.89656 17.9231 8.89656C17.9231 8.89656 17.9231 8.89656 17.9231 8.89656C17.9231 8.89656 17.9231 8.89656 17.9231 8.89656C17.9231 8.89656 17.9231 8.89656 17.9231 8.89656C17.9231 8.89656 17.9231 8.89656 17.9231 8.89656C17.9231 8.89656 17.9231 8.89656 17.9231 8.89656C17.9231 8.89656 17.9231 8.89656 17.9231 8.89656C17.9231 8.89656 17.9231 8.89656 17.9231 8.89656C17.9231 8.89656 17.9231 8.89656 17.9231 8.89656C17.9231 8.89656 17.9231 8.89656 17.9231 8.89656C17.9231 8.89656 17.9231 8.89656 17.9231 8.89656C17.9231 8.89656 17.9231 8.89656 17.9231 8.89656C17.9231 8.89656 17.9231 8.89656 17.9231 8.89656C17.9231 8.89656 17.9231 8.89656 17.9231 8.89656C17.9231 8.89656 17.9231 8.89656 17.9231 8.89656C17.9231 8.89656 17.9231 8.89656 17.9231 8.89656C17.9231 8.89656 17.9231 8.89656 17.9231 8.89656C17.9231 8.89656 17.9231 8.89656 17.9231 8.89656C17.9231 8.89656 17.9231 8.89656 17.9231 8.89656C17.9231 8.89656 17.9231 8.89656 17.9231 8.89656C17.9231 8.89656 17.9231 8.89656 17.9231 8.89656C17.9231 8.89656 17.9231 8.89656 17.9231 8.89656C17.9231 8.89656 17.9231 8.89656 17.9231 8.89656C17.9231 8.89656 17.9231 8.89656 17.9231 8.89656C17.9231 8.89656 17.9231 8.89656 17.9231 8.89656C17.9231 8.89656 17.9231 8.89656 17.9231 8.89656C17.9231 8.89656 17.9231 8.89656 17.9231 8.89656C17.9231 8.89656 17.9231 8.89656 17.9231 8.89656C17.9231 8.89656 17.9231 8.89656 17.9231 8.89656C17.9231 8.89656 17.9231 8.89656 17.9231 8.89656C17.9231 8.89656 17.9231 8.89656 17.9231 8.89656C17.9231 8.89656 17.9231 8.89656 17.9231 8.89656C17.9231 8.89656 17.9231 8.89656 17.9231 8.89656C17.9231 8.89656 17.9231 8.89656 17.9231 8.89656C17.9231 8.89656 17.9231 8.89656 17.9231 8.89656C17.9231 8.89656 17.9231 8.89656 17.9231 8.89656C17.9231 8.89656 17.9231 8.89656 17.9231 8.89656C17.9231 8.89656 17.9231 8.89656 17.9231 8.89656C17.9231 8.89656 17.9231 8.89656 17.9231 8.89656C17.9231 8.89656 17.9231 8.89656 17.9231 8.89656C17.9231 8.89656 17.9231 8.89656 17.9231 8.89656C17.9231 8.89656 17.9231 8.89656 17.9231 8.89656C17.9231 8.89656 17.9231 8.89656 17.9231 8.89656C17.9231 8.89656 17.9231 8.89656 17.9231 8.89656C17.9231 8.89656 17.9231 8.89656 17.9231 8.89656C17.9231 8.89656 17.9231 8.89656 17.9231 8.89656C17.9231 8.89656 17.9231 8.89656 17.9231 8.89656C17.9231 8.89656 17.9231 8.89656 17.9231 8.89656C17.9231 8.89656 17.9231 8.89656 17.9231 8.89656C17.9231 8.89656 17.9231 8.89656 17.9231 8.89656C17.9231 8.89656 17.9231 8.89656 17.9231 8.89656C17.9231 8.89656 17.9231 8.89656 17.9231 8.89656C17.9231 8.89656 17.9231 8.89656 17.9231 8.89656C17.9231 8.89656 17.9231 8.89656 17.9231 8.89656C17.9231 8.89656 17.9231 8.89656 17.9231 8.89656C17.9231 8.89656 17.9231 8.89656 17.9231 8.89656C17.9231 8.89656 17.9231 8.89656 17.9231 8.89656C17.9231 8.89656 17.9231 8.89656 17.9231 8.89656C17.9231 8.89656 17.9231 8.89656 17.9231 8.89656C17.9231 8.89656 17.9231 8.89656 17.9231 8.89656C17.9231 8.89656 17.9231 8.89656 17.9231 8.89656C17.9231 8.89656 17.9231 8.89656 17.9231 8.89656C17.9231 8.89656 17.9231 8.89656 17.9231 8.89656C17.9231 8.89656 17.9231 8.89656 17.9231 8.89656C17.9231 8.89656 17.9231 8.89656 17.9231 8.89656C17.9231 8.89656 17.9231 8.89656 17.9231 8.89656C17.9231 8.89656 17.9231 8.89656 17.9231 8.89656C17.9231 8.89656 17.9231 8.89656 17.9231 8.89656C17.9231 8.89656 17.9231 8.89656 17.9231 8.89656C17.9231 8.89656 17.9231 8.89656 17.9231 8.89656C17.9231 8.89656 17.9231 8.89656 17.9231 8.89656C17.9231 8.89656 17.9231 8.89656 17.9231 8.89656C17.9231 8.89656 17.9231 8.89656 17.9231 8.89656C17.9231 8.89656 17.9231 8.89656 17.9231 8.89656C17.9231 8.89656 17.9231 8.89656 17.9231 8.89656C17.9231 8.89656 17.9231 8.89656 17.9231 8.89656C17.9231 8.89656 17.9231 8.89656 17.9231 8.89656C17.9231 8.89656 17.9231 8.89656 17.9231 8.89656C17.9231 8.89656 17.9231 8.89656 17.9231 8.89656C17.9231 8.89656 17.9231 8.89656 17.9231 8.89656C17.9231 8.89656 17.9231 8.89656 17.9231 8.89656C17.9231 8.89656 17.9231 8.89656 17.9231 8.89656C17.9231 8.89656 17.9231 8.89656 17.9231 8.89656C17.9231 8.89656 17.9231 8.89656 17.9231 8.89656C17.9231 8.89656 17.9231 8.89656 17.9231 8.89656C17.9231 8.89656 17.9231 8.89656 17.9231 8.89656C17.9231 8.89656 17.9231 8.89656 17.9231 8.89656C17.9231 8.89656 17.9231 8.89656 17.9231 8.89656C17.9231 8.89656 17.9231 8.89656 17.9231 8.89656C17.9231 8.89656 17.9231 8.89656 17.9231 8.89656C17.9231 8.89656 17.9231 8.89656 17.9231 8.89656C17.9231 8.89656 17.9231 8.89656 17.9231 8.89656C17.9231 8.89656 17.9231 8.89656 17.9231 8.89656C17.9231 8.89656 17.9231 8.89656 17.9231 8.89656C17.9231 8.89656 17.9231 8.89656 17.9231 8.89656C17.9231 8.89656 17.9231 8.89656 17.9231 8.89656C17.9231 8.89656 17.9231 8.89656 17.9231 8.89656C17.9231 8.89656 17.9231 8.89656 17.9231 8.89656C17.9231 8.89656 17.9231 8.89656 17.9231 8.89656C17.9231 8.89656 17.9231 8.89656 17.9231 8.89656C17.9231 8.89656 17.9231 8.89656 17.9231 8.89656C17.9231 8.89656 17.9231 8.89656 17.9231 8.89656C17.9231 8.89656 17.9231 8.89656 17.9231 8.89656C17.9231 8.89656 17.9231 8.89656 17.9231 8.89656C17.9231 8.89656 17.9231 8.89656 17.9231 8.89656C17.9231 8.89656 17.9231 8.89656 17.9231 8.89656C17.9231 8.89656 17.9231 8.89656 17.9231 8.89656C17.9231 8.89656 17.9231 8.89656 17.9231 8.89656C17.9231 8.89656 17.9231 8.89656 17.9231 8.89656C17.9231 8.89656 17.9231 8.89656 17.9231 8.89656C17.9231 8.89656 17.9231 8.89656 17.9231 8.89656C17.9231 8.89656 17.9231 8.89656 17.9231 8.89656C17.9231 8.89656 17.9231 8.89656 17.9231 8.89656C17.9231 8.89656 17.9231 8.89656 17.9231 8.89656C17.9231 8.89656 17.9231 8.89656 17.9231 8.89656C17.9231 8.89656 17.9231 8.89656 17.9231 8.89656C17.9231 8.89656 17.9231 8.89656 17.9231 8.89656C17.9231 8.89656 17.9231 8.89656 17.9231 8.89656C17.9231 8.89656 17.9231 8.89656 17.9231 8.89656C17.9231 8.89656 17.9231 8.89656 17.9231 8.89656C17.9231 8.89656 17.9231 8.89656 17.9231 8.89656C17.9231 8.89656 17.9231 8.89656 17.9231 8.89656C17.9231 8.89656 17.9231 8.89656 17.9231 8.89656C17.9231 8.89656 17.9231 8.89656 17.9231 8.89656C17.9231 8.89656 17.9231 8.89656 17.9231 8.89656C17.9231 8.89656 17.9231 8.89656 17.9231 8.89656C17.9231 8.89656 17.9231 8.89656 17.9231 8.89656C17.9231 8.89656 17.9231 8.89656 17.9231 8.89656C17.9231 8.89656 17.9231 8.89656 17.9231 8.89656C17.9231 8.89656 17.9231 8.89656 17.9231 8.89656C17.9231 8.89656 17.9231 8.89656 17.9231 8.89656C17.9231 8.89656 17.9231 8.89656 17.9231 8.89656C17.9231 8.89656 17.9231 8.89656 17.9231 8.89656C17.9231 8.89656 17.9231 8.89656 17.9231 8.89656C17.9231 8.89656 17.9231 8.89656 17.9231 8.89656C17.9231 8.89656 17.9231 8.89656 17.9231 8.89656C17.9231 8.89656 17.9231 8.89656 17.9231 8.89656C17.9231 8.89656 17.9231 8.89656 17.9231 8.89656C17.9231 8.89656 17.9231 8.89656 17.9231 8.89656C17.9231 8.89656 17.9231 8.89656 17.9231 8.89656C17.9231 8.89656 17.9231 8.89656 17.9231 8.89656C17.9231 8.89656 17.9231 8.89656 17.9231 8.89656C17.9231 8.89656 17.9231 8.89656 17.9231 8.89656C17.9231 8.89656 17.9231 8.89656 17.9231 8.89656C17.9231 8.89656 17.9231 8.89656 17.9231 8.89656C17.9231 8.89656 17.9231 8.89656 17.9231 8.89656C17.9231 8.89656 17.9231 8.89656 17.9231 8.89656C17.9231 8.89656 17.9231 8.89656 17.9231 8.89656C17.9231 8.89656 17.9231 8.89656 17.9231 8.89656C17.9231 8.89656 17.9231 8.89656 17.9231 8.89656C17.9231 8.89656 17.9231 8.89656 17.9231 8.89656C17.9231 8.89656 17.9231 8.89656 17.9231 8.89656C17.9231 8.89656 17.9231 8.89656 17.9231 8.89656C17.9231 8.89656 17.9231 8.89656 17.9231 8.89656C17.9231 8.89656 17.9231 8.89656 17.9231 8.89656C17.9231 8.89656 17.9231 8.89656 17.9231 8.89656C17.9231 8.89656 17.9231 8.89656 17.9231 8.89656C17.9231 8.89656 17.9231 8.89656 17.9231 8.89656C17.9231 8.89656 17.9231 8.89656 17.9231 8.89656C17.9231 8.89656 17.9231 8.89656 17.9231 8.89656C17.9231 8.89656 17.9231 8.89656 17.9231 8.89656C17.9231 8.89656 17.9231 8.89656 17.9231 8.89656C17.9231 8.89656 17.9231 8.89656 17.9231 8.89656C17.9231 8.89656 17.9231 8.89656 17.9231 8.89656C17.9231 8.89656 17.9231 8.89656 17.9231 8.89656C17.9231 8.89656 17.9231 8.89656 17.9231 8.89656C17.9231 8.89656 17.9231 8.89656 17.9231 8.89656C17.9231 8.89656 17.9231 8.89656 17.9231 8.89656C17.9231 8.89656 17.9231 8.89656 17.9231 8.89656C17.9231 8.89656 17.9231 8.89656 17.9231 8.89656C17.9231 8.89656 17.9231 8.89656 17.9231 8.89656C17.9231 8.89656 17.9231 8.89656 17.9231 8.89656C17.9231 8.89656 17.9231 8.89656 17.9231 8.89656C17.9231 8.89656 17.9231 8.89656 17.9231 8.89656C17.9231 8.89656 17.9231 8.89656 17.9231 8.89656C17.9231 8.89656 17.9231 8.89656 17.9231 8.89656C17.9231 8.89656 17.9231 8.89656 17.9231 8.89656C17.9231 8.89656 17.9231 8.89656 17.9231 8.89656C17.9231 8.89656 17.9231 8.89656 17.9231 8.89656C17.9231 8.89656 17.9231 8.89656 17.9231 8.89656C17.9231 8.89656 17.9231 8.89656 17.9231 8.89656C17.9231 8.89656 17.9231 8.89656 17.9231 8.89656C17.9231 8.89656 17.9231 8.89656 17.9231 8.89656C17.9231 8.89656 17.9231 8.89656 17.9231 8.89656C17.9231 8.89656 17.9231 8.89656 17.9231 8.89656C17.9231 8.89656 17.9231 8.89656 17.9231 8.89656C17.9231 8.89656 17.9231 8.89656 17.9231 8.89656C17.9231 8.89656 17.9231 8.89656 17.9231 8.89656C17.9231 8.89656 17.9231 8.89656 17.9231 8.89656C17.9231 8.89656 17.9231 8.89656 17.9231 8.89656C17.9231 8.89656 17.9231 8.89656 17.9231 8.89656C17.9231 8.89656 17.9231 8.89656 17.9231 8.89656C17.9231 8.89656 17.9231 8.89656 17.9231 8.89656H19.9231C19.9231 8.89656 19.9231 8.89656 19.9231 8.89656C19.9231 8.89656 19.9231 8.89656 19.9231 8.89656C19.9231 8.89656 19.9231 8.89656 19.9231 8.89656C19.9231 8.89656 19.9231 8.89656 19.9231 8.89656C19.9231 8.89656 19.9231 8.89656 19.9231 8.89656C19.9231 8.89656 19.9231 8.89656 19.9231 8.89656C19.9231 8.89656 19.9231 8.89656 19.9231 8.89656C19.9231 8.89656 19.9231 8.89656 19.9231 8.89656C19.9231 8.89656 19.9231 8.89656 19.9231 8.89656C19.9231 8.89656 19.9231 8.89656 19.9231 8.89656C19.9231 8.89656 19.9231 8.89656 19.9231 8.89656C19.9231 8.89656 19.9231 8.89656 19.9231 8.89656C19.9231 8.89656 19.9231 8.89656 19.9231 8.89656C19.9231 8.89656 19.9231 8.89656 19.9231 8.89656C19.9231 8.89656 19.9231 8.89656 19.9231 8.89656C19.9231 8.89656 19.9231 8.89656 19.9231 8.89656C19.9231 8.89656 19.9231 8.89656 19.9231 8.89656C19.9231 8.89656 19.9231 8.89656 19.9231 8.89656C19.9231 8.89656 19.9231 8.89656 19.9231 8.89656C19.9231 8.89656 19.9231 8.89656 19.9231 8.89656C19.9231 8.89656 19.9231 8.89656 19.9231 8.89656C19.9231 8.89656 19.9231 8.89656 19.9231 8.89656C19.9231 8.89656 19.9231 8.89656 19.9231 8.89656C19.9231 8.89656 19.9231 8.89656 19.9231 8.89656C19.9231 8.89656 19.9231 8.89656 19.9231 8.89656C19.9231 8.89656 19.9231 8.89656 19.9231 8.89656C19.9231 8.89656 19.9231 8.89656 19.9231 8.89656C19.9231 8.89656 19.9231 8.89656 19.9231 8.89656C19.9231 8.89656 19.9231 8.89656 19.9231 8.89656C19.9231 8.89656 19.9231 8.89656 19.9231 8.89656C19.9231 8.89656 19.9231 8.89656 19.9231 8.89656C19.9231 8.89656 19.9231 8.89656 19.9231 8.89656C19.9231 8.89656 19.9231 8.89656 19.9231 8.89656C19.9231 8.89656 19.9231 8.89656 19.9231 8.89656C19.9231 8.89656 19.9231 8.89656 19.9231 8.89656C19.9231 8.89656 19.9231 8.89656 19.9231 8.89656C19.9231 8.89656 19.9231 8.89656 19.9231 8.89656C19.9231 8.89656 19.9231 8.89656 19.9231 8.89656C19.9231 8.89656 19.9231 8.89656 19.9231 8.89656C19.9231 8.89656 19.9231 8.89656 19.9231 8.89656C19.9231 8.89656 19.9231 8.89656 19.9231 8.89656C19.9231 8.89656 19.9231 8.89656 19.9231 8.89656C19.9231 8.89656 19.9231 8.89656 19.9231 8.89656C19.9231 8.89656 19.9231 8.89656 19.9231 8.89656C19.9231 8.89656 19.9231 8.89656 19.9231 8.89656C19.9231 8.89656 19.9231 8.89656 19.9231 8.89656C19.9231 8.89656 19.9231 8.89656 19.9231 8.89656C19.9231 8.89656 19.9231 8.89656 19.9231 8.89656C19.9231 8.89656 19.9231 8.89656 19.9231 8.89656C19.9231 8.89656 19.9231 8.89656 19.9231 8.89656C19.9231 8.89656 19.9231 8.89656 19.9231 8.89656C19.9231 8.89656 19.9231 8.89656 19.9231 8.89656C19.9231 8.89656 19.9231 8.89656 19.9231 8.89656C19.9231 8.89656 19.9231 8.89656 19.9231 8.89656C19.9231 8.89656 19.9231 8.89656 19.9231 8.89656C19.9231 8.89656 19.9231 8.89656 19.9231 8.89656C19.9231 8.89656 19.9231 8.89656 19.9231 8.89656C19.9231 8.89656 19.9231 8.89656 19.9231 8.89656C19.9231 8.89656 19.9231 8.89656 19.9231 8.89656C19.9231 8.89656 19.9231 8.89656 19.9231 8.89656C19.9231 8.89656 19.9231 8.89656 19.9231 8.89656C19.9231 8.89656 19.9231 8.89656 19.9231 8.89656C19.9231 8.89656 19.9231 8.89656 19.9231 8.89656C19.9231 8.89656 19.9231 8.89656 19.9231 8.89656C19.9231 8.89656 19.9231 8.89656 19.9231 8.89656C19.9231 8.89656 19.9231 8.89656 19.9231 8.89656C19.9231 8.89656 19.9231 8.89656 19.9231 8.89656C19.9231 8.89656 19.9231 8.89656 19.9231 8.89656C19.9231 8.89656 19.9231 8.89656 19.9231 8.89656C19.9231 8.89656 19.9231 8.89656 19.9231 8.89656C19.9231 8.89656 19.9231 8.89656 19.9231 8.89656C19.9231 8.89656 19.9231 8.89656 19.9231 8.89656C19.9231 8.89656 19.9231 8.89656 19.9231 8.89656C19.9231 8.89656 19.9231 8.89656 19.9231 8.89656C19.9231 8.89656 19.9231 8.89656 19.9231 8.89656C19.9231 8.89656 19.9231 8.89656 19.9231 8.89656C19.9231 8.89656 19.9231 8.89656 19.9231 8.89656C19.9231 8.89656 19.9231 8.89656 19.9231 8.89656C19.9231 8.89656 19.9231 8.89656 19.9231 8.89656C19.9231 8.89656 19.9231 8.89656 19.9231 8.89656C19.9231 8.89656 19.9231 8.89656 19.9231 8.89656C19.9231 8.89656 19.9231 8.89656 19.9231 8.89656C19.9231 8.89656 19.9231 8.89656 19.9231 8.89656C19.9231 8.89656 19.9231 8.89656 19.9231 8.89656C19.9231 8.89656 19.9231 8.89656 19.9231 8.89656C19.9231 8.89656 19.9231 8.89656 19.9231 8.89656C19.9231 8.89656 19.9231 8.89656 19.9231 8.89656C19.9231 8.89656 19.9231 8.89656 19.9231 8.89656C19.9231 8.89656 19.9231 8.89656 19.9231 8.89656C19.9231 8.89656 19.9231 8.89656 19.9231 8.89656C19.9231 8.89656 19.9231 8.89656 19.9231 8.89656C19.9231 8.89656 19.9231 8.89656 19.9231 8.89656C19.9231 8.89656 19.9231 8.89656 19.9231 8.89656C19.9231 8.89656 19.9231 8.89656 19.9231 8.89656C19.9231 8.89656 19.9231 8.89656 19.9231 8.89656C19.9231 8.89656 19.9231 8.89656 19.9231 8.89656C19.9231 8.89656 19.9231 8.89656 19.9231 8.89656C19.9231 8.89656 19.9231 8.89656 19.9231 8.89656C19.9231 8.89656 19.9231 8.89656 19.9231 8.89656C19.9231 8.89656 19.9231 8.89656 19.9231 8.89656C19.9231 8.89656 19.9231 8.89656 19.9231 8.89656C19.9231 8.89656 19.9231 8.89656 19.9231 8.89656C19.9231 8.89656 19.9231 8.89656 19.9231 8.89656C19.9231 8.89656 19.9231 8.89656 19.9231 8.89656C19.9231 8.89656 19.9231 8.89656 19.9231 8.89656C19.9231 8.89656 19.9231 8.89656 19.9231 8.89656C19.9231 8.89656 19.9231 8.89656 19.9231 8.89656C19.9231 8.89656 19.9231 8.89656 19.9231 8.89656C19.9231 8.89656 19.9231 8.89656 19.9231 8.89656C19.9231 8.89656 19.9231 8.89656 19.9231 8.89656C19.9231 8.89656 19.9231 8.89656 19.9231 8.89656C19.9231 8.89656 19.9231 8.89656 19.9231 8.89656C19.9231 8.89656 19.9231 8.89656 19.9231 8.89656C19.9231 8.89656 19.9231 8.89656 19.9231 8.89656C19.9231 8.89656 19.9231 8.89656 19.9231 8.89656C19.9231 8.89656 19.9231 8.89656 19.9231 8.89656C19.9231 8.89656 19.9231 8.89656 19.9231 8.89656C19.9231 8.89656 19.9231 8.89656 19.9231 8.89656C19.9231 8.89656 19.9231 8.89656 19.9231 8.89656C19.9231 8.89656 19.9231 8.89656 19.9231 8.89656C19.9231 8.89656 19.9231 8.89656 19.9231 8.89656C19.9231 8.89656 19.9231 8.89656 19.9231 8.89656C19.9231 8.89656 19.9231 8.89656 19.9231 8.89656C19.9231 8.89656 19.9231 8.89656 19.9231 8.89656C19.9231 8.89656 19.9231 8.89656 19.9231 8.89656C19.9231 8.89656 19.9231 8.89656 19.9231 8.89656C19.9231 8.89656 19.9231 8.89656 19.9231 8.89656C19.9231 8.89656 19.9231 8.89656 19.9231 8.89656C19.9231 8.89656 19.9231 8.89656 19.9231 8.89656C19.9231 8.89656 19.9231 8.89656 19.9231 8.89656C19.9231 8.89656 19.9231 8.89656 19.9231 8.89656C19.9231 8.89656 19.9231 8.89656 19.9231 8.89656C19.9231 8.89656 19.9231 8.89656 19.9231 8.89656C19.9231 8.89656 19.9231 8.89656 19.9231 8.89656C19.9231 8.89656 19.9231 8.89656 19.9231 8.89656C19.9231 8.89656 19.9231 8.89656 19.9231 8.89656C19.9231 8.89656 19.9231 8.89656 19.9231 8.89656C19.9231 8.89656 19.9231 8.89656 19.9231 8.89656C19.9231 8.89656 19.9231 8.89656 19.9231 8.89656C19.9231 8.89656 19.9231 8.89656 19.9231 8.89656C19.9231 8.89656 19.9231 8.89656 19.9231 8.89656C19.9231 8.89656 19.9231 8.89656 19.9231 8.89656C19.9231 8.89656 19.9231 8.89656 19.9231 8.89656C19.9231 8.89656 19.9231 8.89656 19.9231 8.89656C19.9231 8.89656 19.9231 8.89656 19.9231 8.89656C19.9231 8.89656 19.9231 8.89656 19.9231 8.89656C19.9231 8.89656 19.9231 8.89656 19.9231 8.89656C19.9231 8.89656 19.9231 8.89656 19.9231 8.89656C19.9231 8.89656 19.9231 8.89656 19.9231 8.89656C19.9231 8.89656 19.9231 8.89656 19.9231 8.89656C19.9231 8.89656 19.9231 8.89656 19.9231 8.89656C19.9231 8.89656 19.9231 8.89656 19.9231 8.89656C19.9231 8.89656 19.9231 8.89656 19.9231 8.89656C19.9231 8.89656 19.9231 8.89656 19.9231 8.89656C19.9231 8.89656 19.9231 8.89656 19.9231 8.89656C19.9231 8.89656 19.9231 8.89656 19.9231 8.89656C19.9231 8.89656 19.9231 8.89656 19.9231 8.89656C19.9231 8.89656 19.9231 8.89656 19.9231 8.89656C19.9231 8.89656 19.9231 8.89656 19.9231 8.89656C19.9231 8.89656 19.9231 8.89656 19.9231 8.89656C19.9231 8.89656 19.9231 8.89656 19.9231 8.89656C19.9231 8.89656 19.9231 8.89656 19.9231 8.89656C19.9231 8.89656 19.9231 8.89656 19.9231 8.89656C19.9231 8.89656 19.9231 8.89656 19.9231 8.89656C19.9231 8.89656 19.9231 8.89656 19.9231 8.89656C19.9231 8.89656 19.9231 8.89656 19.9231 8.89656C19.9231 8.89656 19.9231 8.89656 19.9231 8.89656C19.9231 8.89656 19.9231 8.89656 19.9231 8.89656C19.9231 8.89656 19.9231 8.89656 19.9231 8.89656C19.9231 8.89656 19.9231 8.89656 19.9231 8.89656C19.9231 8.89656 19.9231 8.89656 19.9231 8.89656C19.9231 8.89656 19.9231 8.89656 19.9231 8.89656C19.9231 8.89656 19.9231 8.89656 19.9231 8.89656C19.9231 8.89656 19.9231 8.89656 19.9231 8.89656C19.9231 8.89656 19.9231 8.89656 19.9231 8.89656C19.9231 8.89656 19.9231 8.89656 19.9231 8.89656C19.9231 8.89656 19.9231 8.89656 19.9231 8.89656C19.9231 8.89656 19.9231 8.89656 19.9231 8.89656C19.9231 8.89656 19.9231 8.89656 19.9231 8.89656C19.9231 8.89656 19.9231 8.89656 19.9231 8.89656C19.9231 8.89656 19.9231 8.89656 19.9231 8.89656C19.9231 8.89656 19.9231 8.89656 19.9231 8.89656C19.9231 8.89656 19.9231 8.89656 19.9231 8.89656C19.9231 8.89656 19.9231 8.89656 19.9231 8.89656C19.9231 8.89656 19.9231 8.89656 19.9231 8.89656C19.9231 8.89656 19.9231 8.89656 19.9231 8.89656C19.9231 8.89656 19.9231 8.89656 19.9231 8.89656C19.9231 8.89656 19.9231 8.89656 19.9231 8.89656C19.9231 8.89656 19.9231 8.89656 19.9231 8.89656C19.9231 8.89656 19.9231 8.89656 19.9231 8.89656C19.9231 8.89656 19.9231 8.89656 19.9231 8.89656C19.9231 8.89656 19.9231 8.89656 19.9231 8.89656C19.9231 8.89656 19.9231 8.89656 19.9231 8.89656C19.9231 8.89656 19.9231 8.89656 19.9231 8.89656C19.9231 8.89656 19.9231 8.89656 19.9231 8.89656C19.9231 8.89656 19.9231 8.89656 19.9231 8.89656C19.9231 8.89656 19.9231 8.89656 19.9231 8.89656C19.9231 8.89656 19.9231 8.89656 19.9231 8.89656C19.9231 8.89656 19.9231 8.89656 19.9231 8.89656C19.9231 8.89656 19.9231 8.89656 19.9231 8.89656C19.9231 8.89656 19.9231 8.89656 19.9231 8.89656C19.9231 8.89656 19.9231 8.89656 19.9231 8.89656C19.9231 8.89656 19.9231 8.89656 19.9231 8.89656C19.9231 8.89656 19.9231 8.89656 19.9231 8.89656C19.9231 8.89656 19.9231 8.89656 19.9231 8.89656C19.9231 8.89656 19.9231 8.89656 19.9231 8.89656C19.9231 8.89656 19.9231 8.89656 19.9231 8.89656C19.9231 8.89656 19.9231 8.89656 19.9231 8.89656C19.9231 8.89656 19.9231 8.89656 19.9231 8.89656C19.9231 8.89656 19.9231 8.89656 19.9231 8.89656C19.9231 8.89656 19.9231 8.89656 19.9231 8.89656C19.9231 8.89656 19.9231 8.89656 19.9231 8.89656C19.9231 8.89656 19.9231 8.89656 19.9231 8.89656C19.9231 8.89656 19.9231 8.89656 19.9231 8.89656C19.9231 8.89656 19.9231 8.89656 19.9231 8.89656C19.9231 8.89656 19.9231 8.89656 19.9231 8.89656C19.9231 8.89656 19.9231 8.89656 19.9231 8.89656C19.9231 8.89656 19.9231 8.89656 19.9231 8.89656C19.9231 8.89656 19.9231 8.89656 19.9231 8.89656C19.9231 8.89656 19.9231 8.89656 19.9231 8.89656C19.9231 8.89656 19.9231 8.89656 19.9231 8.89656C19.9231 8.89656 19.9231 8.89656 19.9231 8.89655C19.9231 8.89655 19.9231 8.89655 19.9231 8.89655C19.9231 8.89655 19.9231 8.89655 19.9231 8.89655C19.9231 8.89655 19.9231 8.89655 19.9231 8.89655C19.9231 8.89655 19.9231 8.89655 19.9231 8.89655C19.9231 8.89655 19.9231 8.89655 19.9231 8.89655C19.9231 8.89655 19.9231 8.89655 19.9231 8.89655C19.9231 8.89655 19.9231 8.89655 19.9231 8.89655C19.9231 8.89655 19.9231 8.89655 19.9231 8.89655C19.9231 8.89655 19.9231 8.89655 19.9231 8.89655C19.9231 8.89655 19.9231 8.89655 19.9231 8.89655C19.9231 8.89655 19.9231 8.89655 19.9231 8.89655C19.9231 8.89655 19.9231 8.89655 19.9231 8.89655C19.9231 8.89655 19.9231 8.89655 19.9231 8.89655C19.9231 8.89655 19.9231 8.89655 19.9231 8.89655C19.9231 8.89655 19.9231 8.89655 19.9231 8.89655C19.9231 8.89655 19.9231 8.89655 19.9231 8.89655C19.9231 8.89655 19.9231 8.89655 19.9231 8.89655C19.9231 8.89655 19.9231 8.89655 19.9231 8.89655C19.9231 8.89655 19.9231 8.89655 19.9231 8.89655C19.9231 8.89655 19.9231 8.89655 19.9231 8.89655C19.9231 8.89655 19.9231 8.89655 19.9231 8.89655C19.9231 8.89655 19.9231 8.89655 19.9231 8.89655C19.9231 8.89655 19.9231 8.89655 19.9231 8.89655C19.9231 8.89655 19.9231 8.89655 19.9231 8.89655C19.9231 8.89655 19.9231 8.89655 19.9231 8.89655C19.9231 8.89655 19.9231 8.89655 19.9231 8.89655C19.9231 8.89655 19.9231 8.89655 19.9231 8.89655C19.9231 8.89655 19.9231 8.89655 19.9231 8.89655C19.9231 8.89655 19.9231 8.89655 19.9231 8.89655C19.9231 8.89655 19.9231 8.89655 19.9231 8.89655C19.9231 8.89655 19.9231 8.89655 19.9231 8.89655C19.9231 8.89655 19.9231 8.89655 19.9231 8.89655C19.9231 8.89655 19.9231 8.89655 19.9231 8.89655C19.9231 8.89655 19.9231 8.89655 19.9231 8.89655C19.9231 8.89655 19.9231 8.89655 19.9231 8.89655C19.9231 8.89655 19.9231 8.89655 19.9231 8.89655C19.9231 8.89655 19.9231 8.89655 19.9231 8.89655C19.9231 8.89655 19.9231 8.89655 19.9231 8.89655C19.9231 8.89655 19.9231 8.89655 19.9231 8.89655C19.9231 8.89655 19.9231 8.89655 19.9231 8.89655C19.9231 8.89655 19.9231 8.89655 19.9231 8.89655C19.9231 8.89655 19.9231 8.89655 19.9231 8.89655C19.9231 8.89655 19.9231 8.89655 19.9231 8.89655C19.9231 8.89655 19.9231 8.89655 19.9231 8.89655C19.9231 8.89655 19.9231 8.89655 19.9231 8.89655C19.9231 8.89655 19.9231 8.89655 19.9231 8.89655C19.9231 8.89655 19.9231 8.89655 19.9231 8.89655C19.9231 8.89655 19.9231 8.89655 19.9231 8.89655C19.9231 8.89655 19.9231 8.89655 19.9231 8.89655C19.9231 8.89655 19.9231 8.89655 19.9231 8.89655C19.9231 8.89655 19.9231 8.89655 19.9231 8.89655C19.9231 8.89655 19.9231 8.89655 19.9231 8.89655C19.9231 8.89655 19.9231 8.89655 19.9231 8.89655C19.9231 8.89655 19.9231 8.89655 19.9231 8.89655C19.9231 8.89655 19.9231 8.89655 19.9231 8.89655C19.9231 8.89655 19.9231 8.89655 19.9231 8.89655C19.9231 8.89655 19.9231 8.89655 19.9231 8.89655C19.9231 8.89655 19.9231 8.89655 19.9231 8.89655C19.9231 8.89655 19.9231 8.89655 19.9231 8.89655C19.9231 8.89655 19.9231 8.89655 19.9231 8.89655C19.9231 8.89655 19.9231 8.89655 19.9231 8.89655C19.9231 8.89655 19.9231 8.89655 19.9231 8.89655C19.9231 8.89655 19.9231 8.89655 19.9231 8.89655C19.9231 8.89655 19.9231 8.89655 19.9231 8.89655C19.9231 8.89655 19.9231 8.89655 19.9231 8.89655C19.9231 8.89655 19.9231 8.89655 19.9231 8.89655C19.9231 8.89655 19.9231 8.89655 19.9231 8.89655C19.9231 8.89655 19.9231 8.89655 19.9231 8.89655C19.9231 8.89655 19.9231 8.89655 19.9231 8.89655C19.9231 8.89655 19.9231 8.89655 19.9231 8.89655C19.9231 8.89655 19.9231 8.89655 19.9231 8.89655C19.9231 8.89655 19.9231 8.89655 19.9231 8.89655C19.9231 8.89655 19.9231 8.89655 19.9231 8.89655C19.9231 8.89655 19.9231 8.89655 19.9231 8.89655C19.9231 8.89655 19.9231 8.89655 19.9231 8.89655C19.9231 8.89655 19.9231 8.89655 19.9231 8.89655C19.9231 8.89655 19.9231 8.89655 19.9231 8.89655C19.9231 8.89655 19.9231 8.89655 19.9231 8.89655C19.9231 8.89655 19.9231 8.89655 19.9231 8.89655C19.9231 8.89655 19.9231 8.89655 19.9231 8.89655C19.9231 8.89655 19.9231 8.89655 19.9231 8.89655C19.9231 8.89655 19.9231 8.89655 19.9231 8.89655C19.9231 8.89655 19.9231 8.89655 19.9231 8.89655C19.9231 8.89655 19.9231 8.89655 19.9231 8.89655C19.9231 8.89655 19.9231 8.89655 19.9231 8.89655C19.9231 8.89655 19.9231 8.89655 19.9231 8.89655C19.9231 8.89655 19.9231 8.89655 19.9231 8.89655C19.9231 8.89655 19.9231 8.89655 19.9231 8.89655C19.9231 8.89655 19.9231 8.89655 19.9231 8.89655C19.9231 8.89655 19.9231 8.89655 19.9231 8.89655C19.9231 8.89655 19.9231 8.89655 19.9231 8.89655C19.9231 8.89655 19.9231 8.89655 19.9231 8.89655C19.9231 8.89655 19.9231 8.89655 19.9231 8.89655C19.9231 8.89655 19.9231 8.89655 19.9231 8.89655C19.9231 8.89655 19.9231 8.89655 19.9231 8.89655C19.9231 8.89655 19.9231 8.89655 19.9231 8.89655C19.9231 8.89655 19.9231 8.89655 19.9231 8.89655C19.9231 8.89655 19.9231 8.89655 19.9231 8.89655C19.9231 8.89655 19.9231 8.89655 19.9231 8.89655C19.9231 8.89655 19.9231 8.89655 19.9231 8.89655C19.9231 8.89655 19.9231 8.89655 19.9231 8.89655C19.9231 8.89655 19.9231 8.89655 19.9231 8.89655C19.9231 8.89655 19.9231 8.89655 19.9231 8.89655C19.9231 8.89655 19.9231 8.89655 19.9231 8.89655C19.9231 8.89655 19.9231 8.89655 19.9231 8.89655C19.9231 8.89655 19.9231 8.89655 19.9231 8.89655C19.9231 8.89655 19.9231 8.89655 19.9231 8.89655C19.9231 8.89655 19.9231 8.89655 19.9231 8.89655C19.9231 8.89655 19.9231 8.89655 19.9231 8.89655C19.9231 8.89655 19.9231 8.89655 19.9231 8.89655C19.9231 8.89655 19.9231 8.89655 19.9231 8.89655C19.9231 8.89655 19.9231 8.89655 19.9231 8.89655C19.9231 8.89655 19.9231 8.89655 19.9231 8.89655C19.9231 8.89655 19.9231 8.89655 19.9231 8.89655C19.9231 8.89655 19.9231 8.89655 19.9231 8.89655C19.9231 8.89655 19.9231 8.89655 19.9231 8.89655C19.9231 8.89655 19.9231 8.89655 19.9231 8.89655C19.9231 8.89655 19.9231 8.89655 19.9231 8.89655C19.9231 8.89655 19.9231 8.89655 19.9231 8.89655C19.9231 8.89655 19.9231 8.89655 19.9231 8.89655C19.9231 8.89655 19.9231 8.89655 19.9231 8.89655C19.9231 8.89655 19.9231 8.89655 19.9231 8.89655C19.9231 8.89655 19.9231 8.89655 19.9231 8.89655C19.9231 8.89655 19.9231 8.89655 19.9231 8.89655C19.9231 8.89655 19.9231 8.89655 19.9231 8.89655C19.9231 8.89655 19.9231 8.89655 19.9231 8.89655C19.9231 8.89655 19.9231 8.89655 19.9231 8.89655C19.9231 8.89655 19.9231 8.89655 19.9231 8.89655C19.9231 8.89655 19.9231 8.89655 19.9231 8.89655C19.9231 8.89655 19.9231 8.89655 19.9231 8.89655C19.9231 8.89655 19.9231 8.89655 19.9231 8.89655C19.9231 8.89655 19.9231 8.89655 19.9231 8.89655C19.9231 8.89655 19.9231 8.89655 19.9231 8.89655C19.9231 8.89655 19.9231 8.89655 19.9231 8.89655C19.9231 8.89655 19.9231 8.89655 19.9231 8.89655C19.9231 8.89655 19.9231 8.89655 19.9231 8.89655C19.9231 8.89655 19.9231 8.89655 19.9231 8.89655C19.9231 8.89655 19.9231 8.89655 19.9231 8.89655C19.9231 8.89655 19.9231 8.89655 19.9231 8.89655C19.9231 8.89655 19.9231 8.89655 19.9231 8.89655C19.9231 8.89655 19.9231 8.89655 19.9231 8.89655C19.9231 8.89655 19.9231 8.89655 19.9231 8.89655C19.9231 8.89655 19.9231 8.89655 19.9231 8.89655C19.9231 8.89655 19.9231 8.89655 19.9231 8.89655C19.9231 8.89655 19.9231 8.89655 19.9231 8.89655C19.9231 8.89655 19.9231 8.89655 19.9231 8.89655C19.9231 8.89655 19.9231 8.89655 19.9231 8.89655C19.9231 8.89655 19.9231 8.89655 19.9231 8.89655C19.9231 8.89655 19.9231 8.89655 19.9231 8.89655C19.9231 8.89655 19.9231 8.89655 19.9231 8.89655C19.9231 8.89655 19.9231 8.89655 19.9231 8.89655C19.9231 8.89655 19.9231 8.89655 19.9231 8.89655C19.9231 8.89655 19.9231 8.89655 19.9231 8.89655C19.9231 8.89655 19.9231 8.89655 19.9231 8.89655C19.9231 8.89655 19.9231 8.89655 19.9231 8.89655C19.9231 8.89655 19.9231 8.89655 19.9231 8.89655C19.9231 8.89655 19.9231 8.89655 19.9231 8.89655C19.9231 8.89655 19.9231 8.89655 19.9231 8.89655C19.9231 8.89655 19.9231 8.89655 19.9231 8.89655C19.9231 8.89655 19.9231 8.89655 19.9231 8.89655C19.9231 8.89655 19.9231 8.89655 19.9231 8.89655C19.9231 8.89655 19.9231 8.89655 19.9231 8.89655C19.9231 8.89655 19.9231 8.89655 19.9231 8.89655C19.9231 8.89655 19.9231 8.89655 19.9231 8.89655C19.9231 8.89655 19.9231 8.89655 19.9231 8.89655C19.9231 8.89655 19.9231 8.89655 19.9231 8.89655C19.9231 8.89655 19.9231 8.89655 19.9231 8.89655C19.9231 8.89655 19.9231 8.89655 19.9231 8.89655C19.9231 8.89655 19.9231 8.89655 19.9231 8.89655C19.9231 8.89655 19.9231 8.89655 19.9231 8.89655C19.9231 8.89655 19.9231 8.89655 19.9231 8.89655C19.9231 8.89655 19.9231 8.89655 19.9231 8.89655C19.9231 8.89655 19.9231 8.89655 19.9231 8.89655C19.9231 8.89655 19.9231 8.89655 19.9231 8.89655C19.9231 8.89655 19.9231 8.89655 19.9231 8.89655C19.9231 8.89655 19.9231 8.89655 19.9231 8.89655C19.9231 8.89655 19.9231 8.89655 19.9231 8.89655C19.9231 8.89655 19.9231 8.89655 19.9231 8.89655C19.9231 8.89655 19.9231 8.89655 19.9231 8.89655C19.9231 8.89655 19.9231 8.89655 19.9231 8.89655C19.9231 8.89655 19.9231 8.89655 19.9231 8.89655C19.9231 8.89655 19.9231 8.89655 19.9231 8.89655C19.9231 8.89655 19.9231 8.89655 19.9231 8.89655C19.9231 8.89655 19.9231 8.89655 19.9231 8.89655C19.9231 8.89655 19.9231 8.89655 19.9231 8.89655C19.9231 8.89655 19.9231 8.89655 19.9231 8.89655C19.9231 8.89655 19.9231 8.89655 19.9231 8.89655C19.9231 8.89655 19.9231 8.89655 19.9231 8.89655C19.9231 8.89655 19.9231 8.89655 19.9231 8.89655C19.9231 8.89655 19.9231 8.89655 19.9231 8.89655C19.9231 8.89655 19.9231 8.89655 19.9231 8.89655C19.9231 8.89655 19.9231 8.89655 19.9231 8.89655C19.9231 8.89655 19.9231 8.89655 19.9231 8.89655C19.9231 8.89655 19.9231 8.89655 19.9231 8.89655C19.9231 8.89655 19.9231 8.89655 19.9231 8.89655C19.9231 8.89655 19.9231 8.89655 19.9231 8.89655C19.9231 8.89655 19.9231 8.89655 19.9231 8.89655C19.9231 8.89655 19.9231 8.89655 19.9231 8.89655C19.9231 8.89655 19.9231 8.89655 19.9231 8.89655C19.9231 8.89655 19.9231 8.89655 19.9231 8.89655C19.9231 8.89655 19.9231 8.89655 19.9231 8.89655C19.9231 8.89655 19.9231 8.89655 19.9231 8.89655C19.9231 8.89655 19.9231 8.89655 19.9231 8.89655C19.9231 8.89655 19.9231 8.89655 19.9231 8.89655C19.9231 8.89655 19.9231 8.89655 19.9231 8.89655C19.9231 8.89655 19.9231 8.89655 19.9231 8.89655C19.9231 8.89655 19.9231 8.89655 19.9231 8.89655C19.9231 8.89655 19.9231 8.89655 19.9231 8.89655C19.9231 8.89655 19.9231 8.89655 19.9231 8.89655C19.9231 8.89655 19.9231 8.89655 19.9231 8.89655C19.9231 8.89655 19.9231 8.89655 19.9231 8.89655C19.9231 8.89655 19.9231 8.89655 19.9231 8.89655C19.9231 8.89655 19.9231 8.89655 19.9231 8.89655C19.9231 8.89655 19.9231 8.89655 19.9231 8.89655C19.9231 8.89655 19.9231 8.89655 19.9231 8.89655C19.9231 8.89655 19.9231 8.89655 19.9231 8.89655C19.9231 8.89655 19.9231 8.89655 19.9231 8.89655C19.9231 8.89655 19.9231 8.89655 19.9231 8.89655C19.9231 8.89655 19.9231 8.89655 19.9231 8.89655C19.9231 8.89655 19.9231 8.89655 19.9231 8.89655C19.9231 8.89655 19.9231 8.89655 19.9231 8.89655C19.9231 8.89655 19.9231 8.89655 19.9231 8.89655C19.9231 8.89655 19.9231 8.89655 19.9231 8.89655C19.9231 8.89655 19.9231 8.89655 19.9231 8.89655C19.9231 8.89655 19.9231 8.89655 19.9231 8.89655C19.9231 8.89655 19.9231 8.89655 19.9231 8.89655C19.9231 8.89655 19.9231 8.89655 19.9231 8.89655C19.9231 8.89655 19.9231 8.89655 19.9231 8.89655C19.9231 8.89655 19.9231 8.89655 19.9231 8.89655C19.9231 8.89655 19.9231 8.89655 19.9231 8.89655C19.9231 8.89655 19.9231 8.89655 19.9231 8.89655C19.9231 8.89655 19.9231 8.89655 19.9231 8.89655C19.9231 8.89655 19.9231 8.89655 19.9231 8.89655C19.9231 8.89655 19.9231 8.89655 19.9231 8.89655C19.9231 8.89655 19.9231 8.89655 19.9231 8.89655C19.9231 8.89655 19.9231 8.89655 19.9231 8.89655C19.9231 8.89655 19.9231 8.89655 19.9231 8.89655C19.9231 8.89655 19.9231 8.89655 19.9231 8.89655C19.9231 8.89655 19.9231 8.89655 19.9231 8.89655C19.9231 8.89655 19.9231 8.89655 19.9231 8.89655C19.9231 8.89655 19.9231 8.89655 19.9231 8.89655C19.9231 8.89655 19.9231 8.89655 19.9231 8.89655C19.9231 8.89655 19.9231 8.89655 19.9231 8.89655C19.9231 8.89655 19.9231 8.89655 19.9231 8.89655C19.9231 8.89655 19.9231 8.89655 19.9231 8.89655C19.9231 8.89655 19.9231 8.89655 19.9231 8.89655C19.9231 8.89655 19.9231 8.89655 19.9231 8.89655C19.9231 8.89655 19.9231 8.89655 19.9231 8.89655C19.9231 8.89655 19.9231 8.89655 19.9231 8.89655C19.9231 8.89655 19.9231 8.89655 19.9231 8.89655C19.9231 8.89655 19.9231 8.89655 19.9231 8.89655C19.9231 8.89655 19.9231 8.89655 19.9231 8.89655C19.9231 8.89655 19.9231 8.89655 19.9231 8.89655C19.9231 8.89655 19.9231 8.89655 19.9231 8.89655C19.9231 8.89655 19.9231 8.89655 19.9231 8.89655C19.9231 8.89655 19.9231 8.89655 19.9231 8.89655C19.9231 8.89655 19.9231 8.89655 19.9231 8.89655C19.9231 8.89655 19.9231 8.89655 19.9231 8.89655C19.9231 8.89655 19.9231 8.89655 19.9231 8.89655C19.9231 8.89655 19.9231 8.89655 19.9231 8.89655C19.9231 8.89655 19.9231 8.89655 19.9231 8.89655C19.9231 8.89655 19.9231 8.89655 19.9231 8.89655C19.9231 8.89655 19.9231 8.89655 19.9231 8.89655C19.9231 8.89655 19.9231 8.89655 19.9231 8.89655C19.9231 8.89655 19.9231 8.89655 19.9231 8.89655C19.9231 8.89655 19.9231 8.89655 19.9231 8.89655C19.9231 8.89655 19.9231 8.89655 19.9231 8.89655C19.9231 8.89655 19.9231 8.89655 19.9231 8.89655C19.9231 8.89655 19.9231 8.89655 19.9231 8.89655C19.9231 8.89655 19.9231 8.89655 19.9231 8.89655C19.9231 8.89655 19.9231 8.89655 19.9231 8.89655C19.9231 8.89655 19.9231 8.89655 19.9231 8.89655C19.9231 8.89655 19.9231 8.89655 19.9231 8.89655C19.9231 8.89655 19.9231 8.89655 19.9231 8.89655C19.9231 8.89655 19.9231 8.89655 19.9231 8.89655C19.9231 8.89655 19.9231 8.89655 19.9231 8.89655C19.9231 8.89655 19.9231 8.89655 19.9231 8.89655C19.9231 8.89655 19.9231 8.89655 19.9231 8.89655C19.9231 8.89655 19.9231 8.89655 19.9231 8.89655C19.9231 8.89655 19.9231 8.89655 19.9231 8.89655C19.9231 8.89655 19.9231 8.89655 19.9231 8.89655C19.9231 8.89655 19.9231 8.89655 19.9231 8.89655C19.9231 8.89655 19.9231 8.89655 19.9231 8.89655C19.9231 8.89655 19.9231 8.89655 19.9231 8.89655C19.9231 8.89655 19.9231 8.89655 19.9231 8.89655C19.9231 8.89655 19.9231 8.89655 19.9231 8.89655C19.9231 8.89655 19.9231 8.89655 19.9231 8.89655C19.9231 8.89655 19.9231 8.89655 19.9231 8.89655C19.9231 8.89655 19.9231 8.89655 19.9231 8.89655C19.9231 8.89655 19.9231 8.89655 19.9231 8.89655H17.9231ZM12 3C15.2748 3 17.9231 5.64359 17.9231 8.89655H19.9231C19.9231 4.53179 16.3722 1 12 1V3ZM6.0769 8.89655C6.0769 5.64359 8.72513 3 12 3V1C7.62781 1 4.0769 4.53179 4.0769 8.89655H6.0769ZM6.0769 8.89656C6.0769 8.89656 6.0769 8.89656 6.0769 8.89656C6.0769 8.89656 6.0769 8.89656 6.0769 8.89656C6.0769 8.89656 6.0769 8.89656 6.0769 8.89656C6.0769 8.89656 6.0769 8.89656 6.0769 8.89656C6.0769 8.89656 6.0769 8.89656 6.0769 8.89656C6.0769 8.89656 6.0769 8.89656 6.0769 8.89656C6.0769 8.89656 6.0769 8.89656 6.0769 8.89656C6.0769 8.89656 6.0769 8.89656 6.0769 8.89656C6.0769 8.89656 6.0769 8.89656 6.0769 8.89656C6.0769 8.89656 6.0769 8.89656 6.0769 8.89656C6.0769 8.89656 6.0769 8.89656 6.0769 8.89656C6.0769 8.89656 6.0769 8.89656 6.0769 8.89656C6.0769 8.89656 6.0769 8.89656 6.0769 8.89656C6.0769 8.89656 6.0769 8.89656 6.0769 8.89656C6.0769 8.89656 6.0769 8.89656 6.0769 8.89656C6.0769 8.89656 6.0769 8.89656 6.0769 8.89656C6.0769 8.89656 6.0769 8.89656 6.0769 8.89656C6.0769 8.89656 6.0769 8.89656 6.0769 8.89656C6.0769 8.89656 6.0769 8.89656 6.0769 8.89656C6.0769 8.89656 6.0769 8.89656 6.0769 8.89656C6.0769 8.89656 6.0769 8.89656 6.0769 8.89656C6.0769 8.89656 6.0769 8.89656 6.0769 8.89656C6.0769 8.89656 6.0769 8.89656 6.0769 8.89656C6.0769 8.89656 6.0769 8.89656 6.0769 8.89656C6.0769 8.89656 6.0769 8.89656 6.0769 8.89656C6.0769 8.89656 6.0769 8.89656 6.0769 8.89656C6.0769 8.89656 6.0769 8.89656 6.0769 8.89656C6.0769 8.89656 6.0769 8.89656 6.0769 8.89656C6.0769 8.89656 6.0769 8.89656 6.0769 8.89656C6.0769 8.89656 6.0769 8.89656 6.0769 8.89656C6.0769 8.89656 6.0769 8.89656 6.0769 8.89656C6.0769 8.89656 6.0769 8.89656 6.0769 8.89656C6.0769 8.89656 6.0769 8.89656 6.0769 8.89656C6.0769 8.89656 6.0769 8.89656 6.0769 8.89656C6.0769 8.89656 6.0769 8.89656 6.0769 8.89656C6.0769 8.89656 6.0769 8.89656 6.0769 8.89656C6.0769 8.89656 6.0769 8.89656 6.0769 8.89656C6.0769 8.89656 6.0769 8.89656 6.0769 8.89656C6.0769 8.89656 6.0769 8.89656 6.0769 8.89656C6.0769 8.89656 6.0769 8.89656 6.0769 8.89656C6.0769 8.89656 6.0769 8.89656 6.0769 8.89656C6.0769 8.89656 6.0769 8.89656 6.0769 8.89656C6.0769 8.89656 6.0769 8.89656 6.0769 8.89656C6.0769 8.89656 6.0769 8.89656 6.0769 8.89656C6.0769 8.89656 6.0769 8.89656 6.0769 8.89656C6.0769 8.89656 6.0769 8.89656 6.0769 8.89656C6.0769 8.89656 6.0769 8.89656 6.0769 8.89656C6.0769 8.89656 6.0769 8.89656 6.0769 8.89656C6.0769 8.89656 6.0769 8.89656 6.0769 8.89656C6.0769 8.89656 6.0769 8.89656 6.0769 8.89656C6.0769 8.89656 6.0769 8.89656 6.0769 8.89656C6.0769 8.89656 6.0769 8.89656 6.0769 8.89656C6.0769 8.89656 6.0769 8.89656 6.0769 8.89656C6.0769 8.89656 6.0769 8.89656 6.0769 8.89656C6.0769 8.89656 6.0769 8.89656 6.0769 8.89656C6.0769 8.89656 6.0769 8.89656 6.0769 8.89656C6.0769 8.89656 6.0769 8.89656 6.0769 8.89656C6.0769 8.89656 6.0769 8.89656 6.0769 8.89656C6.0769 8.89656 6.0769 8.89656 6.0769 8.89656C6.0769 8.89656 6.0769 8.89656 6.0769 8.89656C6.0769 8.89656 6.0769 8.89656 6.0769 8.89656C6.0769 8.89656 6.0769 8.89656 6.0769 8.89656C6.0769 8.89656 6.0769 8.89656 6.0769 8.89656C6.0769 8.89656 6.0769 8.89656 6.0769 8.89656C6.0769 8.89656 6.0769 8.89656 6.0769 8.89656C6.0769 8.89656 6.0769 8.89656 6.0769 8.89656C6.0769 8.89656 6.0769 8.89656 6.0769 8.89656C6.0769 8.89656 6.0769 8.89656 6.0769 8.89656C6.0769 8.89656 6.0769 8.89656 6.0769 8.89656C6.0769 8.89656 6.0769 8.89656 6.0769 8.89656C6.0769 8.89656 6.0769 8.89656 6.0769 8.89656C6.0769 8.89656 6.0769 8.89656 6.0769 8.89656C6.0769 8.89656 6.0769 8.89656 6.0769 8.89656C6.0769 8.89656 6.0769 8.89656 6.0769 8.89656C6.0769 8.89656 6.0769 8.89656 6.0769 8.89656C6.0769 8.89656 6.0769 8.89656 6.0769 8.89656C6.0769 8.89656 6.0769 8.89656 6.0769 8.89656C6.0769 8.89656 6.0769 8.89656 6.0769 8.89656C6.0769 8.89656 6.0769 8.89656 6.0769 8.89656C6.0769 8.89656 6.0769 8.89656 6.0769 8.89656C6.0769 8.89656 6.0769 8.89656 6.0769 8.89656C6.0769 8.89656 6.0769 8.89656 6.0769 8.89656C6.0769 8.89656 6.0769 8.89656 6.0769 8.89656C6.0769 8.89656 6.0769 8.89656 6.0769 8.89656C6.0769 8.89656 6.0769 8.89656 6.0769 8.89656C6.0769 8.89656 6.0769 8.89656 6.0769 8.89656C6.0769 8.89656 6.0769 8.89656 6.0769 8.89656C6.0769 8.89656 6.0769 8.89656 6.0769 8.89656C6.0769 8.89656 6.0769 8.89656 6.0769 8.89656C6.0769 8.89656 6.0769 8.89656 6.0769 8.89656C6.0769 8.89656 6.0769 8.89656 6.0769 8.89656C6.0769 8.89656 6.0769 8.89656 6.0769 8.89656C6.0769 8.89656 6.0769 8.89656 6.0769 8.89656C6.0769 8.89656 6.0769 8.89656 6.0769 8.89656C6.0769 8.89656 6.0769 8.89656 6.0769 8.89656C6.0769 8.89656 6.0769 8.89656 6.0769 8.89656C6.0769 8.89656 6.0769 8.89656 6.0769 8.89656C6.0769 8.89656 6.0769 8.89656 6.0769 8.89656C6.0769 8.89656 6.0769 8.89656 6.0769 8.89656C6.0769 8.89656 6.0769 8.89656 6.0769 8.89656C6.0769 8.89656 6.0769 8.89656 6.0769 8.89656C6.0769 8.89656 6.0769 8.89656 6.0769 8.89656C6.0769 8.89656 6.0769 8.89656 6.0769 8.89656C6.0769 8.89656 6.0769 8.89656 6.0769 8.89656C6.0769 8.89656 6.0769 8.89656 6.0769 8.89656C6.0769 8.89656 6.0769 8.89656 6.0769 8.89656C6.0769 8.89656 6.0769 8.89656 6.0769 8.89656C6.0769 8.89656 6.0769 8.89656 6.0769 8.89656C6.0769 8.89656 6.0769 8.89656 6.0769 8.89656C6.0769 8.89656 6.0769 8.89656 6.0769 8.89656C6.0769 8.89656 6.0769 8.89656 6.0769 8.89656C6.0769 8.89656 6.0769 8.89656 6.0769 8.89656C6.0769 8.89656 6.0769 8.89656 6.0769 8.89656C6.0769 8.89656 6.0769 8.89656 6.0769 8.89656C6.0769 8.89656 6.0769 8.89656 6.0769 8.89656C6.0769 8.89656 6.0769 8.89656 6.0769 8.89656C6.0769 8.89656 6.0769 8.89656 6.0769 8.89656C6.0769 8.89656 6.0769 8.89656 6.0769 8.89656C6.0769 8.89656 6.0769 8.89656 6.0769 8.89656C6.0769 8.89656 6.0769 8.89656 6.0769 8.89656C6.0769 8.89656 6.0769 8.89656 6.0769 8.89656C6.0769 8.89656 6.0769 8.89656 6.0769 8.89656C6.0769 8.89656 6.0769 8.89656 6.0769 8.89656C6.0769 8.89656 6.0769 8.89656 6.0769 8.89656C6.0769 8.89656 6.0769 8.89656 6.0769 8.89656C6.0769 8.89656 6.0769 8.89656 6.0769 8.89656C6.0769 8.89656 6.0769 8.89656 6.0769 8.89656C6.0769 8.89656 6.0769 8.89656 6.0769 8.89656C6.0769 8.89656 6.0769 8.89656 6.0769 8.89656C6.0769 8.89656 6.0769 8.89656 6.0769 8.89656C6.0769 8.89656 6.0769 8.89656 6.0769 8.89656C6.0769 8.89656 6.0769 8.89656 6.0769 8.89656C6.0769 8.89656 6.0769 8.89656 6.0769 8.89656C6.0769 8.89656 6.0769 8.89656 6.0769 8.89656C6.0769 8.89656 6.0769 8.89656 6.0769 8.89656C6.0769 8.89656 6.0769 8.89656 6.0769 8.89656C6.0769 8.89656 6.0769 8.89656 6.0769 8.89656C6.0769 8.89656 6.0769 8.89656 6.0769 8.89656C6.0769 8.89656 6.0769 8.89656 6.0769 8.89656C6.0769 8.89656 6.0769 8.89656 6.0769 8.89656C6.0769 8.89656 6.0769 8.89656 6.0769 8.89656C6.0769 8.89656 6.0769 8.89656 6.0769 8.89656C6.0769 8.89656 6.0769 8.89656 6.0769 8.89656C6.0769 8.89656 6.0769 8.89656 6.0769 8.89656C6.0769 8.89656 6.0769 8.89656 6.0769 8.89656C6.0769 8.89656 6.0769 8.89656 6.0769 8.89656C6.0769 8.89656 6.0769 8.89656 6.0769 8.89656C6.0769 8.89656 6.0769 8.89656 6.0769 8.89656C6.0769 8.89656 6.0769 8.89656 6.0769 8.89656C6.0769 8.89656 6.0769 8.89656 6.0769 8.89656C6.0769 8.89656 6.0769 8.89656 6.0769 8.89656C6.0769 8.89656 6.0769 8.89656 6.0769 8.89656C6.0769 8.89656 6.0769 8.89656 6.0769 8.89656C6.0769 8.89656 6.0769 8.89656 6.0769 8.89656C6.0769 8.89656 6.0769 8.89656 6.0769 8.89656C6.0769 8.89656 6.0769 8.89656 6.0769 8.89656C6.0769 8.89656 6.0769 8.89656 6.0769 8.89656C6.0769 8.89656 6.0769 8.89656 6.0769 8.89656C6.0769 8.89656 6.0769 8.89656 6.0769 8.89656C6.0769 8.89656 6.0769 8.89656 6.0769 8.89656C6.0769 8.89656 6.0769 8.89656 6.0769 8.89656C6.0769 8.89656 6.0769 8.89656 6.0769 8.89656C6.0769 8.89656 6.0769 8.89656 6.0769 8.89656C6.0769 8.89656 6.0769 8.89656 6.0769 8.89656C6.0769 8.89656 6.0769 8.89656 6.0769 8.89656C6.0769 8.89656 6.0769 8.89656 6.0769 8.89656C6.0769 8.89656 6.0769 8.89656 6.0769 8.89656C6.0769 8.89656 6.0769 8.89656 6.0769 8.89656C6.0769 8.89656 6.0769 8.89656 6.0769 8.89656C6.0769 8.89656 6.0769 8.89656 6.0769 8.89656C6.0769 8.89656 6.0769 8.89656 6.0769 8.89656C6.0769 8.89656 6.0769 8.89656 6.0769 8.89656C6.0769 8.89656 6.0769 8.89656 6.0769 8.89656C6.0769 8.89656 6.0769 8.89656 6.0769 8.89656C6.0769 8.89656 6.0769 8.89656 6.0769 8.89656C6.0769 8.89656 6.0769 8.89656 6.0769 8.89656C6.0769 8.89656 6.0769 8.89656 6.0769 8.89656C6.0769 8.89656 6.0769 8.89656 6.0769 8.89656C6.0769 8.89656 6.0769 8.89656 6.0769 8.89656C6.0769 8.89656 6.0769 8.89656 6.0769 8.89656C6.0769 8.89656 6.0769 8.89656 6.0769 8.89656C6.0769 8.89656 6.0769 8.89656 6.0769 8.89656C6.0769 8.89656 6.0769 8.89656 6.0769 8.89656C6.0769 8.89656 6.0769 8.89656 6.0769 8.89656C6.0769 8.89656 6.0769 8.89656 6.0769 8.89656C6.0769 8.89656 6.0769 8.89656 6.0769 8.89656C6.0769 8.89656 6.0769 8.89656 6.0769 8.89656C6.0769 8.89656 6.0769 8.89656 6.0769 8.89656C6.0769 8.89656 6.0769 8.89656 6.0769 8.89656C6.0769 8.89656 6.0769 8.89656 6.0769 8.89656C6.0769 8.89656 6.0769 8.89656 6.0769 8.89656C6.0769 8.89656 6.0769 8.89656 6.0769 8.89656C6.0769 8.89656 6.0769 8.89656 6.0769 8.89656C6.0769 8.89656 6.0769 8.89656 6.0769 8.89656C6.0769 8.89656 6.0769 8.89656 6.0769 8.89656C6.0769 8.89656 6.0769 8.89656 6.0769 8.89656C6.0769 8.89656 6.0769 8.89656 6.0769 8.89656C6.0769 8.89656 6.0769 8.89656 6.0769 8.89656C6.0769 8.89656 6.0769 8.89656 6.0769 8.89656C6.0769 8.89656 6.0769 8.89656 6.0769 8.89656C6.0769 8.89656 6.0769 8.89656 6.0769 8.89656C6.0769 8.89656 6.0769 8.89656 6.0769 8.89656C6.0769 8.89656 6.0769 8.89656 6.0769 8.89656C6.0769 8.89656 6.0769 8.89656 6.0769 8.89656C6.0769 8.89656 6.0769 8.89656 6.0769 8.89656C6.0769 8.89656 6.0769 8.89656 6.0769 8.89656C6.0769 8.89656 6.0769 8.89656 6.0769 8.89656C6.0769 8.89656 6.0769 8.89656 6.0769 8.89656C6.0769 8.89656 6.0769 8.89656 6.0769 8.89656C6.0769 8.89656 6.0769 8.89656 6.0769 8.89656C6.0769 8.89656 6.0769 8.89656 6.0769 8.89656C6.0769 8.89656 6.0769 8.89656 6.0769 8.89656C6.0769 8.89656 6.0769 8.89656 6.0769 8.89656C6.0769 8.89656 6.0769 8.89656 6.0769 8.89656C6.0769 8.89656 6.0769 8.89656 6.0769 8.89656C6.0769 8.89656 6.0769 8.89656 6.0769 8.89656C6.0769 8.89656 6.0769 8.89656 6.0769 8.89656C6.0769 8.89656 6.0769 8.89656 6.0769 8.89656C6.0769 8.89656 6.0769 8.89656 6.0769 8.89656C6.0769 8.89656 6.0769 8.89656 6.0769 8.89656C6.0769 8.89656 6.0769 8.89656 6.0769 8.89656C6.0769 8.89656 6.0769 8.89656 6.0769 8.89655C6.0769 8.89655 6.0769 8.89655 6.0769 8.89655C6.0769 8.89655 6.0769 8.89655 6.0769 8.89655C6.0769 8.89655 6.0769 8.89655 6.0769 8.89655C6.0769 8.89655 6.0769 8.89655 6.0769 8.89655C6.0769 8.89655 6.0769 8.89655 6.0769 8.89655C6.0769 8.89655 6.0769 8.89655 6.0769 8.89655C6.0769 8.89655 6.0769 8.89655 6.0769 8.89655C6.0769 8.89655 6.0769 8.89655 6.0769 8.89655C6.0769 8.89655 6.0769 8.89655 6.0769 8.89655C6.0769 8.89655 6.0769 8.89655 6.0769 8.89655C6.0769 8.89655 6.0769 8.89655 6.0769 8.89655C6.0769 8.89655 6.0769 8.89655 6.0769 8.89655C6.0769 8.89655 6.0769 8.89655 6.0769 8.89655C6.0769 8.89655 6.0769 8.89655 6.0769 8.89655C6.0769 8.89655 6.0769 8.89655 6.0769 8.89655C6.0769 8.89655 6.0769 8.89655 6.0769 8.89655C6.0769 8.89655 6.0769 8.89655 6.0769 8.89655C6.0769 8.89655 6.0769 8.89655 6.0769 8.89655C6.0769 8.89655 6.0769 8.89655 6.0769 8.89655C6.0769 8.89655 6.0769 8.89655 6.0769 8.89655C6.0769 8.89655 6.0769 8.89655 6.0769 8.89655C6.0769 8.89655 6.0769 8.89655 6.0769 8.89655C6.0769 8.89655 6.0769 8.89655 6.0769 8.89655C6.0769 8.89655 6.0769 8.89655 6.0769 8.89655C6.0769 8.89655 6.0769 8.89655 6.0769 8.89655C6.0769 8.89655 6.0769 8.89655 6.0769 8.89655C6.0769 8.89655 6.0769 8.89655 6.0769 8.89655C6.0769 8.89655 6.0769 8.89655 6.0769 8.89655C6.0769 8.89655 6.0769 8.89655 6.0769 8.89655C6.0769 8.89655 6.0769 8.89655 6.0769 8.89655C6.0769 8.89655 6.0769 8.89655 6.0769 8.89655C6.0769 8.89655 6.0769 8.89655 6.0769 8.89655C6.0769 8.89655 6.0769 8.89655 6.0769 8.89655C6.0769 8.89655 6.0769 8.89655 6.0769 8.89655C6.0769 8.89655 6.0769 8.89655 6.0769 8.89655C6.0769 8.89655 6.0769 8.89655 6.0769 8.89655C6.0769 8.89655 6.0769 8.89655 6.0769 8.89655C6.0769 8.89655 6.0769 8.89655 6.0769 8.89655C6.0769 8.89655 6.0769 8.89655 6.0769 8.89655C6.0769 8.89655 6.0769 8.89655 6.0769 8.89655C6.0769 8.89655 6.0769 8.89655 6.0769 8.89655C6.0769 8.89655 6.0769 8.89655 6.0769 8.89655C6.0769 8.89655 6.0769 8.89655 6.0769 8.89655C6.0769 8.89655 6.0769 8.89655 6.0769 8.89655C6.0769 8.89655 6.0769 8.89655 6.0769 8.89655C6.0769 8.89655 6.0769 8.89655 6.0769 8.89655C6.0769 8.89655 6.0769 8.89655 6.0769 8.89655C6.0769 8.89655 6.0769 8.89655 6.0769 8.89655C6.0769 8.89655 6.0769 8.89655 6.0769 8.89655C6.0769 8.89655 6.0769 8.89655 6.0769 8.89655C6.0769 8.89655 6.0769 8.89655 6.0769 8.89655C6.0769 8.89655 6.0769 8.89655 6.0769 8.89655C6.0769 8.89655 6.0769 8.89655 6.0769 8.89655C6.0769 8.89655 6.0769 8.89655 6.0769 8.89655C6.0769 8.89655 6.0769 8.89655 6.0769 8.89655C6.0769 8.89655 6.0769 8.89655 6.0769 8.89655C6.0769 8.89655 6.0769 8.89655 6.0769 8.89655C6.0769 8.89655 6.0769 8.89655 6.0769 8.89655C6.0769 8.89655 6.0769 8.89655 6.0769 8.89655C6.0769 8.89655 6.0769 8.89655 6.0769 8.89655C6.0769 8.89655 6.0769 8.89655 6.0769 8.89655C6.0769 8.89655 6.0769 8.89655 6.0769 8.89655C6.0769 8.89655 6.0769 8.89655 6.0769 8.89655C6.0769 8.89655 6.0769 8.89655 6.0769 8.89655C6.0769 8.89655 6.0769 8.89655 6.0769 8.89655C6.0769 8.89655 6.0769 8.89655 6.0769 8.89655C6.0769 8.89655 6.0769 8.89655 6.0769 8.89655C6.0769 8.89655 6.0769 8.89655 6.0769 8.89655C6.0769 8.89655 6.0769 8.89655 6.0769 8.89655C6.0769 8.89655 6.0769 8.89655 6.0769 8.89655C6.0769 8.89655 6.0769 8.89655 6.0769 8.89655C6.0769 8.89655 6.0769 8.89655 6.0769 8.89655C6.0769 8.89655 6.0769 8.89655 6.0769 8.89655C6.0769 8.89655 6.0769 8.89655 6.0769 8.89655C6.0769 8.89655 6.0769 8.89655 6.0769 8.89655C6.0769 8.89655 6.0769 8.89655 6.0769 8.89655C6.0769 8.89655 6.0769 8.89655 6.0769 8.89655C6.0769 8.89655 6.0769 8.89655 6.0769 8.89655C6.0769 8.89655 6.0769 8.89655 6.0769 8.89655C6.0769 8.89655 6.0769 8.89655 6.0769 8.89655C6.0769 8.89655 6.0769 8.89655 6.0769 8.89655C6.0769 8.89655 6.0769 8.89655 6.0769 8.89655C6.0769 8.89655 6.0769 8.89655 6.0769 8.89655C6.0769 8.89655 6.0769 8.89655 6.0769 8.89655C6.0769 8.89655 6.0769 8.89655 6.0769 8.89655C6.0769 8.89655 6.0769 8.89655 6.0769 8.89655C6.0769 8.89655 6.0769 8.89655 6.0769 8.89655C6.0769 8.89655 6.0769 8.89655 6.0769 8.89655C6.0769 8.89655 6.0769 8.89655 6.0769 8.89655C6.0769 8.89655 6.0769 8.89655 6.0769 8.89655C6.0769 8.89655 6.0769 8.89655 6.0769 8.89655C6.0769 8.89655 6.0769 8.89655 6.0769 8.89655C6.0769 8.89655 6.0769 8.89655 6.0769 8.89655C6.0769 8.89655 6.0769 8.89655 6.0769 8.89655C6.0769 8.89655 6.0769 8.89655 6.0769 8.89655C6.0769 8.89655 6.0769 8.89655 6.0769 8.89655C6.0769 8.89655 6.0769 8.89655 6.0769 8.89655C6.0769 8.89655 6.0769 8.89655 6.0769 8.89655C6.0769 8.89655 6.0769 8.89655 6.0769 8.89655C6.0769 8.89655 6.0769 8.89655 6.0769 8.89655C6.0769 8.89655 6.0769 8.89655 6.0769 8.89655C6.0769 8.89655 6.0769 8.89655 6.0769 8.89655C6.0769 8.89655 6.0769 8.89655 6.0769 8.89655C6.0769 8.89655 6.0769 8.89655 6.0769 8.89655C6.0769 8.89655 6.0769 8.89655 6.0769 8.89655C6.0769 8.89655 6.0769 8.89655 6.0769 8.89655C6.0769 8.89655 6.0769 8.89655 6.0769 8.89655C6.0769 8.89655 6.0769 8.89655 6.0769 8.89655C6.0769 8.89655 6.0769 8.89655 6.0769 8.89655C6.0769 8.89655 6.0769 8.89655 6.0769 8.89655C6.0769 8.89655 6.0769 8.89655 6.0769 8.89655C6.0769 8.89655 6.0769 8.89655 6.0769 8.89655C6.0769 8.89655 6.0769 8.89655 6.0769 8.89655C6.0769 8.89655 6.0769 8.89655 6.0769 8.89655C6.0769 8.89655 6.0769 8.89655 6.0769 8.89655C6.0769 8.89655 6.0769 8.89655 6.0769 8.89655C6.0769 8.89655 6.0769 8.89655 6.0769 8.89655C6.0769 8.89655 6.0769 8.89655 6.0769 8.89655C6.0769 8.89655 6.0769 8.89655 6.0769 8.89655C6.0769 8.89655 6.0769 8.89655 6.0769 8.89655C6.0769 8.89655 6.0769 8.89655 6.0769 8.89655C6.0769 8.89655 6.0769 8.89655 6.0769 8.89655C6.0769 8.89655 6.0769 8.89655 6.0769 8.89655C6.0769 8.89655 6.0769 8.89655 6.0769 8.89655C6.0769 8.89655 6.0769 8.89655 6.0769 8.89655C6.0769 8.89655 6.0769 8.89655 6.0769 8.89655C6.0769 8.89655 6.0769 8.89655 6.0769 8.89655C6.0769 8.89655 6.0769 8.89655 6.0769 8.89655C6.0769 8.89655 6.0769 8.89655 6.0769 8.89655C6.0769 8.89655 6.0769 8.89655 6.0769 8.89655C6.0769 8.89655 6.0769 8.89655 6.0769 8.89655C6.0769 8.89655 6.0769 8.89655 6.0769 8.89655C6.0769 8.89655 6.0769 8.89655 6.0769 8.89655C6.0769 8.89655 6.0769 8.89655 6.0769 8.89655C6.0769 8.89655 6.0769 8.89655 6.0769 8.89655C6.0769 8.89655 6.0769 8.89655 6.0769 8.89655C6.0769 8.89655 6.0769 8.89655 6.0769 8.89655C6.0769 8.89655 6.0769 8.89655 6.0769 8.89655C6.0769 8.89655 6.0769 8.89655 6.0769 8.89655C6.0769 8.89655 6.0769 8.89655 6.0769 8.89655C6.0769 8.89655 6.0769 8.89655 6.0769 8.89655C6.0769 8.89655 6.0769 8.89655 6.0769 8.89655C6.0769 8.89655 6.0769 8.89655 6.0769 8.89655C6.0769 8.89655 6.0769 8.89655 6.0769 8.89655C6.0769 8.89655 6.0769 8.89655 6.0769 8.89655C6.0769 8.89655 6.0769 8.89655 6.0769 8.89655C6.0769 8.89655 6.0769 8.89655 6.0769 8.89655C6.0769 8.89655 6.0769 8.89655 6.0769 8.89655C6.0769 8.89655 6.0769 8.89655 6.0769 8.89655C6.0769 8.89655 6.0769 8.89655 6.0769 8.89655C6.0769 8.89655 6.0769 8.89655 6.0769 8.89655C6.0769 8.89655 6.0769 8.89655 6.0769 8.89655C6.0769 8.89655 6.0769 8.89655 6.0769 8.89655C6.0769 8.89655 6.0769 8.89655 6.0769 8.89655C6.0769 8.89655 6.0769 8.89655 6.0769 8.89655C6.0769 8.89655 6.0769 8.89655 6.0769 8.89655C6.0769 8.89655 6.0769 8.89655 6.0769 8.89655C6.0769 8.89655 6.0769 8.89655 6.0769 8.89655C6.0769 8.89655 6.0769 8.89655 6.0769 8.89655C6.0769 8.89655 6.0769 8.89655 6.0769 8.89655C6.0769 8.89655 6.0769 8.89655 6.0769 8.89655C6.0769 8.89655 6.0769 8.89655 6.0769 8.89655C6.0769 8.89655 6.0769 8.89655 6.0769 8.89655C6.0769 8.89655 6.0769 8.89655 6.0769 8.89655C6.0769 8.89655 6.0769 8.89655 6.0769 8.89655C6.0769 8.89655 6.0769 8.89655 6.0769 8.89655C6.0769 8.89655 6.0769 8.89655 6.0769 8.89655C6.0769 8.89655 6.0769 8.89655 6.0769 8.89655C6.0769 8.89655 6.0769 8.89655 6.0769 8.89655C6.0769 8.89655 6.0769 8.89655 6.0769 8.89655C6.0769 8.89655 6.0769 8.89655 6.0769 8.89655C6.0769 8.89655 6.0769 8.89655 6.0769 8.89655C6.0769 8.89655 6.0769 8.89655 6.0769 8.89655C6.0769 8.89655 6.0769 8.89655 6.0769 8.89655C6.0769 8.89655 6.0769 8.89655 6.0769 8.89655C6.0769 8.89655 6.0769 8.89655 6.0769 8.89655C6.0769 8.89655 6.0769 8.89655 6.0769 8.89655C6.0769 8.89655 6.0769 8.89655 6.0769 8.89655C6.0769 8.89655 6.0769 8.89655 6.0769 8.89655C6.0769 8.89655 6.0769 8.89655 6.0769 8.89655C6.0769 8.89655 6.0769 8.89655 6.0769 8.89655C6.0769 8.89655 6.0769 8.89655 6.0769 8.89655C6.0769 8.89655 6.0769 8.89655 6.0769 8.89655C6.0769 8.89655 6.0769 8.89655 6.0769 8.89655C6.0769 8.89655 6.0769 8.89655 6.0769 8.89655C6.0769 8.89655 6.0769 8.89655 6.0769 8.89655C6.0769 8.89655 6.0769 8.89655 6.0769 8.89655C6.0769 8.89655 6.0769 8.89655 6.0769 8.89655C6.0769 8.89655 6.0769 8.89655 6.0769 8.89655C6.0769 8.89655 6.0769 8.89655 6.0769 8.89655C6.0769 8.89655 6.0769 8.89655 6.0769 8.89655C6.0769 8.89655 6.0769 8.89655 6.0769 8.89655C6.0769 8.89655 6.0769 8.89655 6.0769 8.89655C6.0769 8.89655 6.0769 8.89655 6.0769 8.89655C6.0769 8.89655 6.0769 8.89655 6.0769 8.89655C6.0769 8.89655 6.0769 8.89655 6.0769 8.89655C6.0769 8.89655 6.0769 8.89655 6.0769 8.89655C6.0769 8.89655 6.0769 8.89655 6.0769 8.89655C6.0769 8.89655 6.0769 8.89655 6.0769 8.89655C6.0769 8.89655 6.0769 8.89655 6.0769 8.89655C6.0769 8.89655 6.0769 8.89655 6.0769 8.89655C6.0769 8.89655 6.0769 8.89655 6.0769 8.89655C6.0769 8.89655 6.0769 8.89655 6.0769 8.89655C6.0769 8.89655 6.0769 8.89655 6.0769 8.89655C6.0769 8.89655 6.0769 8.89655 6.0769 8.89655C6.0769 8.89655 6.0769 8.89655 6.0769 8.89655C6.0769 8.89655 6.0769 8.89655 6.0769 8.89655C6.0769 8.89655 6.0769 8.89655 6.0769 8.89655C6.0769 8.89655 6.0769 8.89655 6.0769 8.89655C6.0769 8.89655 6.0769 8.89655 6.0769 8.89655C6.0769 8.89655 6.0769 8.89655 6.0769 8.89655C6.0769 8.89655 6.0769 8.89655 6.0769 8.89655C6.0769 8.89655 6.0769 8.89655 6.0769 8.89655C6.0769 8.89655 6.0769 8.89655 6.0769 8.89655C6.0769 8.89655 6.0769 8.89655 6.0769 8.89655C6.0769 8.89655 6.0769 8.89655 6.0769 8.89655C6.0769 8.89655 6.0769 8.89655 6.0769 8.89655C6.0769 8.89655 6.0769 8.89655 6.0769 8.89655C6.0769 8.89655 6.0769 8.89655 6.0769 8.89655C6.0769 8.89655 6.0769 8.89655 6.0769 8.89655C6.0769 8.89655 6.0769 8.89655 6.0769 8.89655C6.0769 8.89655 6.0769 8.89655 6.0769 8.89655C6.0769 8.89655 6.0769 8.89655 6.0769 8.89655C6.0769 8.89655 6.0769 8.89655 6.0769 8.89655C6.0769 8.89655 6.0769 8.89655 6.0769 8.89655C6.0769 8.89655 6.0769 8.89655 6.0769 8.89655C6.0769 8.89655 6.0769 8.89655 6.0769 8.89655C6.0769 8.89655 6.0769 8.89655 6.0769 8.89655C6.0769 8.89655 6.0769 8.89655 6.0769 8.89655C6.0769 8.89655 6.0769 8.89655 6.0769 8.89655C6.0769 8.89655 6.0769 8.89655 6.0769 8.89655C6.0769 8.89655 6.0769 8.89655 6.0769 8.89655C6.0769 8.89655 6.0769 8.89655 6.0769 8.89655C6.0769 8.89655 6.0769 8.89655 6.0769 8.89655C6.0769 8.89655 6.0769 8.89655 6.0769 8.89655C6.0769 8.89655 6.0769 8.89655 6.0769 8.89655C6.0769 8.89655 6.0769 8.89655 6.0769 8.89655C6.0769 8.89655 6.0769 8.89655 6.0769 8.89655C6.0769 8.89655 6.0769 8.89655 6.0769 8.89655C6.0769 8.89655 6.0769 8.89655 6.0769 8.89655C6.0769 8.89655 6.0769 8.89655 6.0769 8.89655C6.0769 8.89655 6.0769 8.89655 6.0769 8.89655C6.0769 8.89655 6.0769 8.89655 6.0769 8.89655C6.0769 8.89655 6.0769 8.89655 6.0769 8.89655C6.0769 8.89655 6.0769 8.89655 6.0769 8.89655C6.0769 8.89655 6.0769 8.89655 6.0769 8.89655C6.0769 8.89655 6.0769 8.89655 6.0769 8.89655C6.0769 8.89655 6.0769 8.89655 6.0769 8.89655C6.0769 8.89655 6.0769 8.89655 6.0769 8.89655C6.0769 8.89655 6.0769 8.89655 6.0769 8.89655C6.0769 8.89655 6.0769 8.89655 6.0769 8.89655C6.0769 8.89655 6.0769 8.89655 6.0769 8.89655C6.0769 8.89655 6.0769 8.89655 6.0769 8.89655C6.0769 8.89655 6.0769 8.89655 6.0769 8.89655C6.0769 8.89655 6.0769 8.89655 6.0769 8.89655C6.0769 8.89655 6.0769 8.89655 6.0769 8.89655C6.0769 8.89655 6.0769 8.89655 6.0769 8.89655C6.0769 8.89655 6.0769 8.89655 6.0769 8.89655C6.0769 8.89655 6.0769 8.89655 6.0769 8.89655C6.0769 8.89655 6.0769 8.89655 6.0769 8.89655C6.0769 8.89655 6.0769 8.89655 6.0769 8.89655C6.0769 8.89655 6.0769 8.89655 6.0769 8.89655C6.0769 8.89655 6.0769 8.89655 6.0769 8.89655C6.0769 8.89655 6.0769 8.89655 6.0769 8.89655C6.0769 8.89655 6.0769 8.89655 6.0769 8.89655C6.0769 8.89655 6.0769 8.89655 6.0769 8.89655C6.0769 8.89655 6.0769 8.89655 6.0769 8.89655C6.0769 8.89655 6.0769 8.89655 6.0769 8.89655C6.0769 8.89655 6.0769 8.89655 6.0769 8.89655C6.0769 8.89655 6.0769 8.89655 6.0769 8.89655C6.0769 8.89655 6.0769 8.89655 6.0769 8.89655C6.0769 8.89655 6.0769 8.89655 6.0769 8.89655C6.0769 8.89655 6.0769 8.89655 6.0769 8.89655C6.0769 8.89655 6.0769 8.89655 6.0769 8.89655C6.0769 8.89655 6.0769 8.89655 6.0769 8.89655C6.0769 8.89655 6.0769 8.89655 6.0769 8.89655C6.0769 8.89655 6.0769 8.89655 6.0769 8.89655C6.0769 8.89655 6.0769 8.89655 6.0769 8.89655C6.0769 8.89655 6.0769 8.89655 6.0769 8.89655C6.0769 8.89655 6.0769 8.89655 6.0769 8.89655C6.0769 8.89655 6.0769 8.89655 6.0769 8.89655C6.0769 8.89655 6.0769 8.89655 6.0769 8.89655C6.0769 8.89655 6.0769 8.89655 6.0769 8.89655C6.0769 8.89655 6.0769 8.89655 6.0769 8.89655C6.0769 8.89655 6.0769 8.89655 6.0769 8.89655C6.0769 8.89655 6.0769 8.89655 6.0769 8.89655C6.0769 8.89655 6.0769 8.89655 6.0769 8.89655C6.0769 8.89655 6.0769 8.89655 6.0769 8.89655C6.0769 8.89655 6.0769 8.89655 6.0769 8.89655C6.0769 8.89655 6.0769 8.89655 6.0769 8.89655H4.0769C4.0769 8.89655 4.0769 8.89655 4.0769 8.89655C4.0769 8.89655 4.0769 8.89655 4.0769 8.89655C4.0769 8.89655 4.0769 8.89655 4.0769 8.89655C4.0769 8.89655 4.0769 8.89655 4.0769 8.89655C4.0769 8.89655 4.0769 8.89655 4.0769 8.89655C4.0769 8.89655 4.0769 8.89655 4.0769 8.89655C4.0769 8.89655 4.0769 8.89655 4.0769 8.89655C4.0769 8.89655 4.0769 8.89655 4.0769 8.89655C4.0769 8.89655 4.0769 8.89655 4.0769 8.89655C4.0769 8.89655 4.0769 8.89655 4.0769 8.89655C4.0769 8.89655 4.0769 8.89655 4.0769 8.89655C4.0769 8.89655 4.0769 8.89655 4.0769 8.89655C4.0769 8.89655 4.0769 8.89655 4.0769 8.89655C4.0769 8.89655 4.0769 8.89655 4.0769 8.89655C4.0769 8.89655 4.0769 8.89655 4.0769 8.89655C4.0769 8.89655 4.0769 8.89655 4.0769 8.89655C4.0769 8.89655 4.0769 8.89655 4.0769 8.89655C4.0769 8.89655 4.0769 8.89655 4.0769 8.89655C4.0769 8.89655 4.0769 8.89655 4.0769 8.89655C4.0769 8.89655 4.0769 8.89655 4.0769 8.89655C4.0769 8.89655 4.0769 8.89655 4.0769 8.89655C4.0769 8.89655 4.0769 8.89655 4.0769 8.89655C4.0769 8.89655 4.0769 8.89655 4.0769 8.89655C4.0769 8.89655 4.0769 8.89655 4.0769 8.89655C4.0769 8.89655 4.0769 8.89655 4.0769 8.89655C4.0769 8.89655 4.0769 8.89655 4.0769 8.89655C4.0769 8.89655 4.0769 8.89655 4.0769 8.89655C4.0769 8.89655 4.0769 8.89655 4.0769 8.89655C4.0769 8.89655 4.0769 8.89655 4.0769 8.89655C4.0769 8.89655 4.0769 8.89655 4.0769 8.89655C4.0769 8.89655 4.0769 8.89655 4.0769 8.89655C4.0769 8.89655 4.0769 8.89655 4.0769 8.89655C4.0769 8.89655 4.0769 8.89655 4.0769 8.89655C4.0769 8.89655 4.0769 8.89655 4.0769 8.89655C4.0769 8.89655 4.0769 8.89655 4.0769 8.89655C4.0769 8.89655 4.0769 8.89655 4.0769 8.89655C4.0769 8.89655 4.0769 8.89655 4.0769 8.89655C4.0769 8.89655 4.0769 8.89655 4.0769 8.89655C4.0769 8.89655 4.0769 8.89655 4.0769 8.89655C4.0769 8.89655 4.0769 8.89655 4.0769 8.89655C4.0769 8.89655 4.0769 8.89655 4.0769 8.89655C4.0769 8.89655 4.0769 8.89655 4.0769 8.89655C4.0769 8.89655 4.0769 8.89655 4.0769 8.89655C4.0769 8.89655 4.0769 8.89655 4.0769 8.89655C4.0769 8.89655 4.0769 8.89655 4.0769 8.89655C4.0769 8.89655 4.0769 8.89655 4.0769 8.89655C4.0769 8.89655 4.0769 8.89655 4.0769 8.89655C4.0769 8.89655 4.0769 8.89655 4.0769 8.89655C4.0769 8.89655 4.0769 8.89655 4.0769 8.89655C4.0769 8.89655 4.0769 8.89655 4.0769 8.89655C4.0769 8.89655 4.0769 8.89655 4.0769 8.89655C4.0769 8.89655 4.0769 8.89655 4.0769 8.89655C4.0769 8.89655 4.0769 8.89655 4.0769 8.89655C4.0769 8.89655 4.0769 8.89655 4.0769 8.89655C4.0769 8.89655 4.0769 8.89655 4.0769 8.89655C4.0769 8.89655 4.0769 8.89655 4.0769 8.89655C4.0769 8.89655 4.0769 8.89655 4.0769 8.89655C4.0769 8.89655 4.0769 8.89655 4.0769 8.89655C4.0769 8.89655 4.0769 8.89655 4.0769 8.89655C4.0769 8.89655 4.0769 8.89655 4.0769 8.89655C4.0769 8.89655 4.0769 8.89655 4.0769 8.89655C4.0769 8.89655 4.0769 8.89655 4.0769 8.89655C4.0769 8.89655 4.0769 8.89655 4.0769 8.89655C4.0769 8.89655 4.0769 8.89655 4.0769 8.89655C4.0769 8.89655 4.0769 8.89655 4.0769 8.89655C4.0769 8.89655 4.0769 8.89655 4.0769 8.89655C4.0769 8.89655 4.0769 8.89655 4.0769 8.89655C4.0769 8.89655 4.0769 8.89655 4.0769 8.89655C4.0769 8.89655 4.0769 8.89655 4.0769 8.89655C4.0769 8.89655 4.0769 8.89655 4.0769 8.89655C4.0769 8.89655 4.0769 8.89655 4.0769 8.89655C4.0769 8.89655 4.0769 8.89655 4.0769 8.89655C4.0769 8.89655 4.0769 8.89655 4.0769 8.89655C4.0769 8.89655 4.0769 8.89655 4.0769 8.89655C4.0769 8.89655 4.0769 8.89655 4.0769 8.89655C4.0769 8.89655 4.0769 8.89655 4.0769 8.89655C4.0769 8.89655 4.0769 8.89655 4.0769 8.89655C4.0769 8.89655 4.0769 8.89655 4.0769 8.89655C4.0769 8.89655 4.0769 8.89655 4.0769 8.89655C4.0769 8.89655 4.0769 8.89655 4.0769 8.89655C4.0769 8.89655 4.0769 8.89655 4.0769 8.89655C4.0769 8.89655 4.0769 8.89655 4.0769 8.89655C4.0769 8.89655 4.0769 8.89655 4.0769 8.89655C4.0769 8.89655 4.0769 8.89655 4.0769 8.89655C4.0769 8.89655 4.0769 8.89655 4.0769 8.89655C4.0769 8.89655 4.0769 8.89655 4.0769 8.89655C4.0769 8.89655 4.0769 8.89655 4.0769 8.89655C4.0769 8.89655 4.0769 8.89655 4.0769 8.89655C4.0769 8.89655 4.0769 8.89655 4.0769 8.89655C4.0769 8.89655 4.0769 8.89655 4.0769 8.89655C4.0769 8.89655 4.0769 8.89655 4.0769 8.89655C4.0769 8.89655 4.0769 8.89655 4.0769 8.89655C4.0769 8.89655 4.0769 8.89655 4.0769 8.89655C4.0769 8.89655 4.0769 8.89655 4.0769 8.89655C4.0769 8.89655 4.0769 8.89655 4.0769 8.89655C4.0769 8.89655 4.0769 8.89655 4.0769 8.89655C4.0769 8.89655 4.0769 8.89655 4.0769 8.89655C4.0769 8.89655 4.0769 8.89655 4.0769 8.89655C4.0769 8.89655 4.0769 8.89655 4.0769 8.89655C4.0769 8.89655 4.0769 8.89655 4.0769 8.89655C4.0769 8.89655 4.0769 8.89655 4.0769 8.89655C4.0769 8.89655 4.0769 8.89655 4.0769 8.89655C4.0769 8.89655 4.0769 8.89655 4.0769 8.89655C4.0769 8.89655 4.0769 8.89655 4.0769 8.89655C4.0769 8.89655 4.0769 8.89655 4.0769 8.89655C4.0769 8.89655 4.0769 8.89655 4.0769 8.89655C4.0769 8.89655 4.0769 8.89655 4.0769 8.89655C4.0769 8.89655 4.0769 8.89655 4.0769 8.89655C4.0769 8.89655 4.0769 8.89655 4.0769 8.89655C4.0769 8.89655 4.0769 8.89655 4.0769 8.89655C4.0769 8.89655 4.0769 8.89655 4.0769 8.89655C4.0769 8.89655 4.0769 8.89655 4.0769 8.89655C4.0769 8.89655 4.0769 8.89655 4.0769 8.89655C4.0769 8.89655 4.0769 8.89655 4.0769 8.89655C4.0769 8.89655 4.0769 8.89655 4.0769 8.89655C4.0769 8.89655 4.0769 8.89655 4.0769 8.89655C4.0769 8.89655 4.0769 8.89655 4.0769 8.89655C4.0769 8.89655 4.0769 8.89655 4.0769 8.89655C4.0769 8.89655 4.0769 8.89655 4.0769 8.89655C4.0769 8.89655 4.0769 8.89655 4.0769 8.89655C4.0769 8.89655 4.0769 8.89655 4.0769 8.89655C4.0769 8.89655 4.0769 8.89655 4.0769 8.89655C4.0769 8.89655 4.0769 8.89655 4.0769 8.89655C4.0769 8.89655 4.0769 8.89655 4.0769 8.89655C4.0769 8.89655 4.0769 8.89655 4.0769 8.89655C4.0769 8.89655 4.0769 8.89655 4.0769 8.89655C4.0769 8.89655 4.0769 8.89655 4.0769 8.89655C4.0769 8.89655 4.0769 8.89655 4.0769 8.89655C4.0769 8.89655 4.0769 8.89655 4.0769 8.89655C4.0769 8.89655 4.0769 8.89655 4.0769 8.89655C4.0769 8.89655 4.0769 8.89655 4.0769 8.89655C4.0769 8.89655 4.0769 8.89655 4.0769 8.89655C4.0769 8.89655 4.0769 8.89655 4.0769 8.89655C4.0769 8.89655 4.0769 8.89655 4.0769 8.89655C4.0769 8.89655 4.0769 8.89655 4.0769 8.89655C4.0769 8.89655 4.0769 8.89655 4.0769 8.89655C4.0769 8.89655 4.0769 8.89655 4.0769 8.89655C4.0769 8.89655 4.0769 8.89655 4.0769 8.89655C4.0769 8.89655 4.0769 8.89655 4.0769 8.89655C4.0769 8.89655 4.0769 8.89655 4.0769 8.89655C4.0769 8.89655 4.0769 8.89655 4.0769 8.89655C4.0769 8.89655 4.0769 8.89655 4.0769 8.89655C4.0769 8.89655 4.0769 8.89655 4.0769 8.89655C4.0769 8.89655 4.0769 8.89655 4.0769 8.89655C4.0769 8.89655 4.0769 8.89655 4.0769 8.89655C4.0769 8.89655 4.0769 8.89655 4.0769 8.89655C4.0769 8.89655 4.0769 8.89655 4.0769 8.89655C4.0769 8.89655 4.0769 8.89655 4.0769 8.89655C4.0769 8.89655 4.0769 8.89655 4.0769 8.89655C4.0769 8.89655 4.0769 8.89655 4.0769 8.89655C4.0769 8.89655 4.0769 8.89655 4.0769 8.89655C4.0769 8.89655 4.0769 8.89655 4.0769 8.89655C4.0769 8.89655 4.0769 8.89655 4.0769 8.89655C4.0769 8.89655 4.0769 8.89655 4.0769 8.89655C4.0769 8.89655 4.0769 8.89655 4.0769 8.89655C4.0769 8.89655 4.0769 8.89655 4.0769 8.89655C4.0769 8.89655 4.0769 8.89655 4.0769 8.89655C4.0769 8.89655 4.0769 8.89655 4.0769 8.89655C4.0769 8.89655 4.0769 8.89655 4.0769 8.89655C4.0769 8.89655 4.0769 8.89655 4.0769 8.89655C4.0769 8.89655 4.0769 8.89655 4.0769 8.89655C4.0769 8.89655 4.0769 8.89655 4.0769 8.89655C4.0769 8.89655 4.0769 8.89655 4.0769 8.89655C4.0769 8.89655 4.0769 8.89655 4.0769 8.89655C4.0769 8.89655 4.0769 8.89655 4.0769 8.89655C4.0769 8.89655 4.0769 8.89655 4.0769 8.89655C4.0769 8.89655 4.0769 8.89655 4.0769 8.89655C4.0769 8.89655 4.0769 8.89655 4.0769 8.89655C4.0769 8.89655 4.0769 8.89655 4.0769 8.89655C4.0769 8.89655 4.0769 8.89655 4.0769 8.89655C4.0769 8.89655 4.0769 8.89655 4.0769 8.89655C4.0769 8.89655 4.0769 8.89655 4.0769 8.89655C4.0769 8.89655 4.0769 8.89655 4.0769 8.89655C4.0769 8.89655 4.0769 8.89655 4.0769 8.89655C4.0769 8.89655 4.0769 8.89655 4.0769 8.89655C4.0769 8.89655 4.0769 8.89655 4.0769 8.89655C4.0769 8.89655 4.0769 8.89655 4.0769 8.89655C4.0769 8.89655 4.0769 8.89655 4.0769 8.89655C4.0769 8.89655 4.0769 8.89655 4.0769 8.89655C4.0769 8.89655 4.0769 8.89655 4.0769 8.89655C4.0769 8.89655 4.0769 8.89655 4.0769 8.89655C4.0769 8.89655 4.0769 8.89655 4.0769 8.89655C4.0769 8.89655 4.0769 8.89655 4.0769 8.89655C4.0769 8.89655 4.0769 8.89655 4.0769 8.89655C4.0769 8.89655 4.0769 8.89655 4.0769 8.89655C4.0769 8.89655 4.0769 8.89655 4.0769 8.89655C4.0769 8.89655 4.0769 8.89655 4.0769 8.89655C4.0769 8.89655 4.0769 8.89655 4.0769 8.89655C4.0769 8.89655 4.0769 8.89655 4.0769 8.89655C4.0769 8.89655 4.0769 8.89655 4.0769 8.89655C4.0769 8.89655 4.0769 8.89655 4.0769 8.89655C4.0769 8.89655 4.0769 8.89655 4.0769 8.89655C4.0769 8.89655 4.0769 8.89655 4.0769 8.89655C4.0769 8.89655 4.0769 8.89655 4.0769 8.89655C4.0769 8.89655 4.0769 8.89655 4.0769 8.89655C4.0769 8.89655 4.0769 8.89655 4.0769 8.89655C4.0769 8.89655 4.0769 8.89655 4.0769 8.89655C4.0769 8.89655 4.0769 8.89655 4.0769 8.89655C4.0769 8.89655 4.0769 8.89655 4.0769 8.89655C4.0769 8.89655 4.0769 8.89655 4.0769 8.89655C4.0769 8.89655 4.0769 8.89655 4.0769 8.89655C4.0769 8.89655 4.0769 8.89655 4.0769 8.89655C4.0769 8.89655 4.0769 8.89655 4.0769 8.89655C4.0769 8.89655 4.0769 8.89655 4.0769 8.89655C4.0769 8.89655 4.0769 8.89655 4.0769 8.89655C4.0769 8.89655 4.0769 8.89655 4.0769 8.89655C4.0769 8.89655 4.0769 8.89655 4.0769 8.89655C4.0769 8.89655 4.0769 8.89655 4.0769 8.89655C4.0769 8.89655 4.0769 8.89655 4.0769 8.89655C4.0769 8.89655 4.0769 8.89655 4.0769 8.89655C4.0769 8.89655 4.0769 8.89655 4.0769 8.89655C4.0769 8.89655 4.0769 8.89655 4.0769 8.89655C4.0769 8.89655 4.0769 8.89655 4.0769 8.89655C4.0769 8.89655 4.0769 8.89655 4.0769 8.89655C4.0769 8.89655 4.0769 8.89655 4.0769 8.89655C4.0769 8.89655 4.0769 8.89655 4.0769 8.89655C4.0769 8.89655 4.0769 8.89655 4.0769 8.89655C4.0769 8.89655 4.0769 8.89655 4.0769 8.89655C4.0769 8.89655 4.0769 8.89655 4.0769 8.89655C4.0769 8.89655 4.0769 8.89655 4.0769 8.89655C4.0769 8.89655 4.0769 8.89655 4.0769 8.89655C4.0769 8.89655 4.0769 8.89655 4.0769 8.89655C4.0769 8.89655 4.0769 8.89655 4.0769 8.89655C4.0769 8.89655 4.0769 8.89655 4.0769 8.89655C4.0769 8.89655 4.0769 8.89655 4.0769 8.89655C4.0769 8.89655 4.0769 8.89655 4.0769 8.89655C4.0769 8.89655 4.0769 8.89655 4.0769 8.89655C4.0769 8.89655 4.0769 8.89655 4.0769 8.89655C4.0769 8.89655 4.0769 8.89655 4.0769 8.89655C4.0769 8.89655 4.0769 8.89655 4.0769 8.89655C4.0769 8.89655 4.0769 8.89655 4.0769 8.89655C4.0769 8.89655 4.0769 8.89655 4.0769 8.89655C4.0769 8.89655 4.0769 8.89655 4.0769 8.89655C4.0769 8.89655 4.0769 8.89655 4.0769 8.89655C4.0769 8.89655 4.0769 8.89655 4.0769 8.89655C4.0769 8.89655 4.0769 8.89655 4.0769 8.89655C4.0769 8.89655 4.0769 8.89655 4.0769 8.89655C4.0769 8.89655 4.0769 8.89655 4.0769 8.89655C4.0769 8.89655 4.0769 8.89655 4.0769 8.89655C4.0769 8.89655 4.0769 8.89655 4.0769 8.89655C4.0769 8.89655 4.0769 8.89655 4.0769 8.89655C4.0769 8.89655 4.0769 8.89655 4.0769 8.89655C4.0769 8.89655 4.0769 8.89655 4.0769 8.89655C4.0769 8.89655 4.0769 8.89655 4.0769 8.89655C4.0769 8.89655 4.0769 8.89655 4.0769 8.89655C4.0769 8.89655 4.0769 8.89655 4.0769 8.89655C4.0769 8.89655 4.0769 8.89655 4.0769 8.89655C4.0769 8.89655 4.0769 8.89655 4.0769 8.89655C4.0769 8.89655 4.0769 8.89655 4.0769 8.89655C4.0769 8.89655 4.0769 8.89655 4.0769 8.89655C4.0769 8.89655 4.0769 8.89655 4.0769 8.89655C4.0769 8.89655 4.0769 8.89655 4.0769 8.89655C4.0769 8.89655 4.0769 8.89655 4.0769 8.89655C4.0769 8.89655 4.0769 8.89655 4.0769 8.89655C4.0769 8.89655 4.0769 8.89655 4.0769 8.89655C4.0769 8.89655 4.0769 8.89655 4.0769 8.89655C4.0769 8.89655 4.0769 8.89655 4.0769 8.89655C4.0769 8.89655 4.0769 8.89655 4.0769 8.89655C4.0769 8.89655 4.0769 8.89655 4.0769 8.89655C4.0769 8.89655 4.0769 8.89655 4.0769 8.89655C4.0769 8.89655 4.0769 8.89655 4.0769 8.89655C4.0769 8.89655 4.0769 8.89655 4.0769 8.89655C4.0769 8.89655 4.0769 8.89655 4.0769 8.89655C4.0769 8.89655 4.0769 8.89655 4.0769 8.89655C4.0769 8.89655 4.0769 8.89655 4.0769 8.89655C4.0769 8.89655 4.0769 8.89655 4.0769 8.89655C4.0769 8.89655 4.0769 8.89655 4.0769 8.89655C4.0769 8.89655 4.0769 8.89655 4.0769 8.89655C4.0769 8.89655 4.0769 8.89655 4.0769 8.89655C4.0769 8.89655 4.0769 8.89655 4.0769 8.89655C4.0769 8.89655 4.0769 8.89655 4.0769 8.89655C4.0769 8.89655 4.0769 8.89655 4.0769 8.89655C4.0769 8.89655 4.0769 8.89655 4.0769 8.89655C4.0769 8.89655 4.0769 8.89655 4.0769 8.89655C4.0769 8.89655 4.0769 8.89655 4.0769 8.89655C4.0769 8.89655 4.0769 8.89655 4.0769 8.89655C4.0769 8.89655 4.0769 8.89655 4.0769 8.89655C4.0769 8.89655 4.0769 8.89655 4.0769 8.89655C4.0769 8.89655 4.0769 8.89655 4.0769 8.89655C4.0769 8.89655 4.0769 8.89655 4.0769 8.89655C4.0769 8.89655 4.0769 8.89655 4.0769 8.89655C4.0769 8.89655 4.0769 8.89655 4.0769 8.89655C4.0769 8.89655 4.0769 8.89655 4.0769 8.89655C4.0769 8.89655 4.0769 8.89655 4.0769 8.89655C4.0769 8.89655 4.0769 8.89655 4.0769 8.89655C4.0769 8.89655 4.0769 8.89655 4.0769 8.89655C4.0769 8.89655 4.0769 8.89655 4.0769 8.89655C4.0769 8.89655 4.0769 8.89655 4.0769 8.89655C4.0769 8.89655 4.0769 8.89655 4.0769 8.89655C4.0769 8.89655 4.0769 8.89655 4.0769 8.89655C4.0769 8.89656 4.0769 8.89656 4.0769 8.89656C4.0769 8.89656 4.0769 8.89656 4.0769 8.89656C4.0769 8.89656 4.0769 8.89656 4.0769 8.89656C4.0769 8.89656 4.0769 8.89656 4.0769 8.89656C4.0769 8.89656 4.0769 8.89656 4.0769 8.89656C4.0769 8.89656 4.0769 8.89656 4.0769 8.89656C4.0769 8.89656 4.0769 8.89656 4.0769 8.89656C4.0769 8.89656 4.0769 8.89656 4.0769 8.89656C4.0769 8.89656 4.0769 8.89656 4.0769 8.89656C4.0769 8.89656 4.0769 8.89656 4.0769 8.89656C4.0769 8.89656 4.0769 8.89656 4.0769 8.89656C4.0769 8.89656 4.0769 8.89656 4.0769 8.89656C4.0769 8.89656 4.0769 8.89656 4.0769 8.89656C4.0769 8.89656 4.0769 8.89656 4.0769 8.89656C4.0769 8.89656 4.0769 8.89656 4.0769 8.89656C4.0769 8.89656 4.0769 8.89656 4.0769 8.89656C4.0769 8.89656 4.0769 8.89656 4.0769 8.89656C4.0769 8.89656 4.0769 8.89656 4.0769 8.89656C4.0769 8.89656 4.0769 8.89656 4.0769 8.89656C4.0769 8.89656 4.0769 8.89656 4.0769 8.89656C4.0769 8.89656 4.0769 8.89656 4.0769 8.89656C4.0769 8.89656 4.0769 8.89656 4.0769 8.89656C4.0769 8.89656 4.0769 8.89656 4.0769 8.89656C4.0769 8.89656 4.0769 8.89656 4.0769 8.89656C4.0769 8.89656 4.0769 8.89656 4.0769 8.89656C4.0769 8.89656 4.0769 8.89656 4.0769 8.89656C4.0769 8.89656 4.0769 8.89656 4.0769 8.89656C4.0769 8.89656 4.0769 8.89656 4.0769 8.89656C4.0769 8.89656 4.0769 8.89656 4.0769 8.89656C4.0769 8.89656 4.0769 8.89656 4.0769 8.89656C4.0769 8.89656 4.0769 8.89656 4.0769 8.89656C4.0769 8.89656 4.0769 8.89656 4.0769 8.89656C4.0769 8.89656 4.0769 8.89656 4.0769 8.89656C4.0769 8.89656 4.0769 8.89656 4.0769 8.89656C4.0769 8.89656 4.0769 8.89656 4.0769 8.89656C4.0769 8.89656 4.0769 8.89656 4.0769 8.89656C4.0769 8.89656 4.0769 8.89656 4.0769 8.89656C4.0769 8.89656 4.0769 8.89656 4.0769 8.89656C4.0769 8.89656 4.0769 8.89656 4.0769 8.89656C4.0769 8.89656 4.0769 8.89656 4.0769 8.89656C4.0769 8.89656 4.0769 8.89656 4.0769 8.89656C4.0769 8.89656 4.0769 8.89656 4.0769 8.89656C4.0769 8.89656 4.0769 8.89656 4.0769 8.89656C4.0769 8.89656 4.0769 8.89656 4.0769 8.89656C4.0769 8.89656 4.0769 8.89656 4.0769 8.89656C4.0769 8.89656 4.0769 8.89656 4.0769 8.89656C4.0769 8.89656 4.0769 8.89656 4.0769 8.89656C4.0769 8.89656 4.0769 8.89656 4.0769 8.89656C4.0769 8.89656 4.0769 8.89656 4.0769 8.89656C4.0769 8.89656 4.0769 8.89656 4.0769 8.89656C4.0769 8.89656 4.0769 8.89656 4.0769 8.89656C4.0769 8.89656 4.0769 8.89656 4.0769 8.89656C4.0769 8.89656 4.0769 8.89656 4.0769 8.89656C4.0769 8.89656 4.0769 8.89656 4.0769 8.89656C4.0769 8.89656 4.0769 8.89656 4.0769 8.89656C4.0769 8.89656 4.0769 8.89656 4.0769 8.89656C4.0769 8.89656 4.0769 8.89656 4.0769 8.89656C4.0769 8.89656 4.0769 8.89656 4.0769 8.89656C4.0769 8.89656 4.0769 8.89656 4.0769 8.89656C4.0769 8.89656 4.0769 8.89656 4.0769 8.89656C4.0769 8.89656 4.0769 8.89656 4.0769 8.89656C4.0769 8.89656 4.0769 8.89656 4.0769 8.89656C4.0769 8.89656 4.0769 8.89656 4.0769 8.89656C4.0769 8.89656 4.0769 8.89656 4.0769 8.89656C4.0769 8.89656 4.0769 8.89656 4.0769 8.89656C4.0769 8.89656 4.0769 8.89656 4.0769 8.89656C4.0769 8.89656 4.0769 8.89656 4.0769 8.89656C4.0769 8.89656 4.0769 8.89656 4.0769 8.89656C4.0769 8.89656 4.0769 8.89656 4.0769 8.89656C4.0769 8.89656 4.0769 8.89656 4.0769 8.89656C4.0769 8.89656 4.0769 8.89656 4.0769 8.89656C4.0769 8.89656 4.0769 8.89656 4.0769 8.89656C4.0769 8.89656 4.0769 8.89656 4.0769 8.89656C4.0769 8.89656 4.0769 8.89656 4.0769 8.89656C4.0769 8.89656 4.0769 8.89656 4.0769 8.89656C4.0769 8.89656 4.0769 8.89656 4.0769 8.89656C4.0769 8.89656 4.0769 8.89656 4.0769 8.89656C4.0769 8.89656 4.0769 8.89656 4.0769 8.89656C4.0769 8.89656 4.0769 8.89656 4.0769 8.89656C4.0769 8.89656 4.0769 8.89656 4.0769 8.89656C4.0769 8.89656 4.0769 8.89656 4.0769 8.89656C4.0769 8.89656 4.0769 8.89656 4.0769 8.89656C4.0769 8.89656 4.0769 8.89656 4.0769 8.89656C4.0769 8.89656 4.0769 8.89656 4.0769 8.89656C4.0769 8.89656 4.0769 8.89656 4.0769 8.89656C4.0769 8.89656 4.0769 8.89656 4.0769 8.89656C4.0769 8.89656 4.0769 8.89656 4.0769 8.89656C4.0769 8.89656 4.0769 8.89656 4.0769 8.89656C4.0769 8.89656 4.0769 8.89656 4.0769 8.89656C4.0769 8.89656 4.0769 8.89656 4.0769 8.89656C4.0769 8.89656 4.0769 8.89656 4.0769 8.89656C4.0769 8.89656 4.0769 8.89656 4.0769 8.89656C4.0769 8.89656 4.0769 8.89656 4.0769 8.89656C4.0769 8.89656 4.0769 8.89656 4.0769 8.89656C4.0769 8.89656 4.0769 8.89656 4.0769 8.89656C4.0769 8.89656 4.0769 8.89656 4.0769 8.89656C4.0769 8.89656 4.0769 8.89656 4.0769 8.89656C4.0769 8.89656 4.0769 8.89656 4.0769 8.89656C4.0769 8.89656 4.0769 8.89656 4.0769 8.89656C4.0769 8.89656 4.0769 8.89656 4.0769 8.89656C4.0769 8.89656 4.0769 8.89656 4.0769 8.89656C4.0769 8.89656 4.0769 8.89656 4.0769 8.89656C4.0769 8.89656 4.0769 8.89656 4.0769 8.89656C4.0769 8.89656 4.0769 8.89656 4.0769 8.89656C4.0769 8.89656 4.0769 8.89656 4.0769 8.89656C4.0769 8.89656 4.0769 8.89656 4.0769 8.89656C4.0769 8.89656 4.0769 8.89656 4.0769 8.89656C4.0769 8.89656 4.0769 8.89656 4.0769 8.89656C4.0769 8.89656 4.0769 8.89656 4.0769 8.89656C4.0769 8.89656 4.0769 8.89656 4.0769 8.89656C4.0769 8.89656 4.0769 8.89656 4.0769 8.89656C4.0769 8.89656 4.0769 8.89656 4.0769 8.89656C4.0769 8.89656 4.0769 8.89656 4.0769 8.89656C4.0769 8.89656 4.0769 8.89656 4.0769 8.89656C4.0769 8.89656 4.0769 8.89656 4.0769 8.89656C4.0769 8.89656 4.0769 8.89656 4.0769 8.89656C4.0769 8.89656 4.0769 8.89656 4.0769 8.89656C4.0769 8.89656 4.0769 8.89656 4.0769 8.89656C4.0769 8.89656 4.0769 8.89656 4.0769 8.89656C4.0769 8.89656 4.0769 8.89656 4.0769 8.89656C4.0769 8.89656 4.0769 8.89656 4.0769 8.89656C4.0769 8.89656 4.0769 8.89656 4.0769 8.89656C4.0769 8.89656 4.0769 8.89656 4.0769 8.89656C4.0769 8.89656 4.0769 8.89656 4.0769 8.89656C4.0769 8.89656 4.0769 8.89656 4.0769 8.89656C4.0769 8.89656 4.0769 8.89656 4.0769 8.89656C4.0769 8.89656 4.0769 8.89656 4.0769 8.89656C4.0769 8.89656 4.0769 8.89656 4.0769 8.89656C4.0769 8.89656 4.0769 8.89656 4.0769 8.89656C4.0769 8.89656 4.0769 8.89656 4.0769 8.89656C4.0769 8.89656 4.0769 8.89656 4.0769 8.89656C4.0769 8.89656 4.0769 8.89656 4.0769 8.89656C4.0769 8.89656 4.0769 8.89656 4.0769 8.89656C4.0769 8.89656 4.0769 8.89656 4.0769 8.89656C4.0769 8.89656 4.0769 8.89656 4.0769 8.89656C4.0769 8.89656 4.0769 8.89656 4.0769 8.89656C4.0769 8.89656 4.0769 8.89656 4.0769 8.89656C4.0769 8.89656 4.0769 8.89656 4.0769 8.89656C4.0769 8.89656 4.0769 8.89656 4.0769 8.89656C4.0769 8.89656 4.0769 8.89656 4.0769 8.89656C4.0769 8.89656 4.0769 8.89656 4.0769 8.89656C4.0769 8.89656 4.0769 8.89656 4.0769 8.89656C4.0769 8.89656 4.0769 8.89656 4.0769 8.89656C4.0769 8.89656 4.0769 8.89656 4.0769 8.89656C4.0769 8.89656 4.0769 8.89656 4.0769 8.89656C4.0769 8.89656 4.0769 8.89656 4.0769 8.89656C4.0769 8.89656 4.0769 8.89656 4.0769 8.89656C4.0769 8.89656 4.0769 8.89656 4.0769 8.89656C4.0769 8.89656 4.0769 8.89656 4.0769 8.89656C4.0769 8.89656 4.0769 8.89656 4.0769 8.89656C4.0769 8.89656 4.0769 8.89656 4.0769 8.89656C4.0769 8.89656 4.0769 8.89656 4.0769 8.89656C4.0769 8.89656 4.0769 8.89656 4.0769 8.89656C4.0769 8.89656 4.0769 8.89656 4.0769 8.89656C4.0769 8.89656 4.0769 8.89656 4.0769 8.89656C4.0769 8.89656 4.0769 8.89656 4.0769 8.89656C4.0769 8.89656 4.0769 8.89656 4.0769 8.89656C4.0769 8.89656 4.0769 8.89656 4.0769 8.89656C4.0769 8.89656 4.0769 8.89656 4.0769 8.89656C4.0769 8.89656 4.0769 8.89656 4.0769 8.89656C4.0769 8.89656 4.0769 8.89656 4.0769 8.89656C4.0769 8.89656 4.0769 8.89656 4.0769 8.89656C4.0769 8.89656 4.0769 8.89656 4.0769 8.89656C4.0769 8.89656 4.0769 8.89656 4.0769 8.89656C4.0769 8.89656 4.0769 8.89656 4.0769 8.89656C4.0769 8.89656 4.0769 8.89656 4.0769 8.89656C4.0769 8.89656 4.0769 8.89656 4.0769 8.89656C4.0769 8.89656 4.0769 8.89656 4.0769 8.89656C4.0769 8.89656 4.0769 8.89656 4.0769 8.89656C4.0769 8.89656 4.0769 8.89656 4.0769 8.89656C4.0769 8.89656 4.0769 8.89656 4.0769 8.89656C4.0769 8.89656 4.0769 8.89656 4.0769 8.89656C4.0769 8.89656 4.0769 8.89656 4.0769 8.89656C4.0769 8.89656 4.0769 8.89656 4.0769 8.89656C4.0769 8.89656 4.0769 8.89656 4.0769 8.89656C4.0769 8.89656 4.0769 8.89656 4.0769 8.89656C4.0769 8.89656 4.0769 8.89656 4.0769 8.89656C4.0769 8.89656 4.0769 8.89656 4.0769 8.89656C4.0769 8.89656 4.0769 8.89656 4.0769 8.89656C4.0769 8.89656 4.0769 8.89656 4.0769 8.89656C4.0769 8.89656 4.0769 8.89656 4.0769 8.89656C4.0769 8.89656 4.0769 8.89656 4.0769 8.89656C4.0769 8.89656 4.0769 8.89656 4.0769 8.89656C4.0769 8.89656 4.0769 8.89656 4.0769 8.89656C4.0769 8.89656 4.0769 8.89656 4.0769 8.89656C4.0769 8.89656 4.0769 8.89656 4.0769 8.89656C4.0769 8.89656 4.0769 8.89656 4.0769 8.89656C4.0769 8.89656 4.0769 8.89656 4.0769 8.89656C4.0769 8.89656 4.0769 8.89656 4.0769 8.89656C4.0769 8.89656 4.0769 8.89656 4.0769 8.89656C4.0769 8.89656 4.0769 8.89656 4.0769 8.89656C4.0769 8.89656 4.0769 8.89656 4.0769 8.89656C4.0769 8.89656 4.0769 8.89656 4.0769 8.89656C4.0769 8.89656 4.0769 8.89656 4.0769 8.89656C4.0769 8.89656 4.0769 8.89656 4.0769 8.89656C4.0769 8.89656 4.0769 8.89656 4.0769 8.89656C4.0769 8.89656 4.0769 8.89656 4.0769 8.89656C4.0769 8.89656 4.0769 8.89656 4.0769 8.89656C4.0769 8.89656 4.0769 8.89656 4.0769 8.89656C4.0769 8.89656 4.0769 8.89656 4.0769 8.89656C4.0769 8.89656 4.0769 8.89656 4.0769 8.89656C4.0769 8.89656 4.0769 8.89656 4.0769 8.89656C4.0769 8.89656 4.0769 8.89656 4.0769 8.89656C4.0769 8.89656 4.0769 8.89656 4.0769 8.89656C4.0769 8.89656 4.0769 8.89656 4.0769 8.89656C4.0769 8.89656 4.0769 8.89656 4.0769 8.89656C4.0769 8.89656 4.0769 8.89656 4.0769 8.89656C4.0769 8.89656 4.0769 8.89656 4.0769 8.89656C4.0769 8.89656 4.0769 8.89656 4.0769 8.89656C4.0769 8.89656 4.0769 8.89656 4.0769 8.89656C4.0769 8.89656 4.0769 8.89656 4.0769 8.89656C4.0769 8.89656 4.0769 8.89656 4.0769 8.89656C4.0769 8.89656 4.0769 8.89656 4.0769 8.89656C4.0769 8.89656 4.0769 8.89656 4.0769 8.89656C4.0769 8.89656 4.0769 8.89656 4.0769 8.89656C4.0769 8.89656 4.0769 8.89656 4.0769 8.89656C4.0769 8.89656 4.0769 8.89656 4.0769 8.89656C4.0769 8.89656 4.0769 8.89656 4.0769 8.89656C4.0769 8.89656 4.0769 8.89656 4.0769 8.89656C4.0769 8.89656 4.0769 8.89656 4.0769 8.89656C4.0769 8.89656 4.0769 8.89656 4.0769 8.89656C4.0769 8.89656 4.0769 8.89656 4.0769 8.89656H6.0769ZM12.8167 21.423C10.3354 17.9105 8.63988 15.4583 7.55925 13.5033C6.48787 11.565 6.0769 10.2113 6.0769 8.89656H4.0769C4.0769 10.6852 4.65495 12.3832 5.80885 14.4708C6.95349 16.5417 8.71954 19.0895 11.1832 22.577L12.8167 21.423ZM17.9231 8.89656C17.9231 10.2113 17.5121 11.565 16.4407 13.5033C15.3601 15.4583 13.6646 17.9105 11.1832 21.423L12.8167 22.577C15.2804 19.0895 17.0465 16.5417 18.1911 14.4708C19.345 12.3832 19.9231 10.6852 19.9231 8.89656H17.9231Z" fill="#1A1A1A"/>
<circle cx="12" cy="9" r="2" stroke="#1A1A1A" stroke-width="2"/>
</svg>
