<?xml version="1.0" encoding="UTF-8" standalone="no"?><!DOCTYPE svg PUBLIC "-//W3C//DTD SVG 1.1//EN" "http://www.w3.org/Graphics/SVG/1.1/DTD/svg11.dtd"><svg width="100%" height="100%" viewBox="0 0 172 210" version="1.1" xmlns="http://www.w3.org/2000/svg" xmlns:xlink="http://www.w3.org/1999/xlink" xml:space="preserve" xmlns:serif="http://www.serif.com/" style="fill-rule:evenodd;clip-rule:evenodd;stroke-linejoin:round;stroke-miterlimit:2;"><g><g><clipPath id="_clip1"><rect x="0" y="0.249" width="171" height="210"/></clipPath><g clip-path="url(#_clip1)"><path d="M53.544,190.46l-14.604,0l0,-6.094c0,-2.25 2.158,-3.919 4.667,-3.919l5.272,0c2.508,0 4.665,1.669 4.665,3.919l0,6.094Zm-3.543,-14.872l-7.517,0c-5.362,0 -9.94,3.554 -9.94,7.978l0,18.136c0,4.498 4.405,8.268 9.418,8.268l11.498,0c1.469,0 2.592,-0.797 2.592,-2.031l0,-0.797c0,-1.231 -1.123,-2.031 -2.592,-2.031l-8.906,0c-3.801,0 -5.614,-1.741 -5.614,-4.424l0,-5.732l15.989,0c2.679,0 5.012,-1.232 5.012,-4.351l0,-7.038c0,-4.424 -4.666,-7.978 -9.94,-7.978Zm-13.962,-11.824l0,-0.799c0,-1.233 -1.207,-2.031 -2.593,-2.031l-28.695,0c-1.467,0 -2.593,0.798 -2.593,2.031l0,0.799c0,1.231 1.126,2.028 2.593,2.028l11.142,0l0,42.002c0,1.231 1.125,2.176 2.593,2.176l1.211,0c1.383,0 2.593,-0.945 2.593,-2.176l0,-42.002l11.156,0c1.386,0 2.593,-0.797 2.593,-2.028Zm81.926,11.708c0,0 -5.413,-0.003 -5.56,0c-2.017,0.04 -3.518,0.838 -4.761,1.58c-0.055,0.031 -0.092,0.052 -0.156,0.087c-0.952,0.533 -1.399,0.691 -1.807,0.204l-0.392,-0.658c-0.257,-0.36 -0.776,-1.012 -1.638,-1.012l-1.12,0c-1.64,0 -2.328,0.868 -2.328,1.808l0,30.319c0,1.228 1.12,2.17 2.587,2.17l1.206,0c1.38,0 2.587,-0.942 2.587,-2.17l0,-22.648c0,-3.039 2.846,-4.631 5.435,-4.631l3.706,0c2.672,0 5.43,1.664 5.43,4.631l0,22.648c0,1.228 1.123,2.17 2.587,2.17l1.207,0c1.381,0 2.588,-0.942 2.588,-2.17l0,-24.24c0,-4.27 -3.969,-8.088 -9.571,-8.088Zm-36.785,14.551l12.448,-10.519c1.125,-0.943 1.125,-1.959 0,-2.902l-0.691,-0.58c-1.038,-0.871 -2.508,-0.871 -3.542,0l-15.649,13.128l0,-26.041c0,-1.232 -1.208,-2.175 -2.593,-2.175l-1.209,0c-1.47,0 -2.591,0.943 -2.591,2.175l0,44.685c0,1.231 1.121,2.176 2.591,2.176l1.209,0c1.385,0 2.593,-0.945 2.593,-2.176l0,-11.532l2.856,-2.396l11.925,15.307c0.778,1.012 2.593,1.375 3.804,0.652l1.125,-0.652c0.778,-0.437 1.124,-1.016 1.124,-1.597c0,-0.582 -0.346,-1.015 -0.518,-1.231l-12.882,-16.322Zm74.493,11.208c0,2.898 -2.16,3.914 -4.663,3.914l-5.267,0c-2.505,0 -4.665,-1.671 -4.665,-3.914l0,-3.825c0.007,-2.443 2.16,-3.915 4.665,-3.915l5.267,0l2.762,-0.002l1.901,0l0,7.742Zm-3.022,-25.583l-11.483,0c-1.471,0 -2.591,0.797 -2.591,2.029l0,0.796c0,1.234 1.12,2.03 2.591,2.03l8.893,0c3.796,0 5.612,1.74 5.612,4.421l0,3.993l-1.901,0l-1.639,-0.013l-7.512,0c-5.268,0 -9.918,3.16 -9.933,7.968l0,5.153c0,4.421 4.665,7.975 9.933,7.975l7.512,0c6.297,0 9.928,-2.498 9.928,-7.975l0,-18.115c0,-4.492 -4.404,-8.262 -9.41,-8.262Z" style="fill:#757573;fill-rule:nonzero;"/><path d="M44.622,68.696l0,-56.047c-0.008,-2.028 -1.644,-3.094 -3.704,-2.168c-24.498,12.544 -40.918,35.527 -40.918,61.814c0,12.748 3.864,24.721 10.634,35.102c0.379,0.608 1.727,1.926 3.736,1.285c17.523,-5.409 30.252,-21.287 30.252,-39.986Zm24.134,1.25c-0.002,-0.418 -0.041,-0.83 -0.041,-1.25l0,-64.005c0,-1.748 -1.551,-2.913 -3.126,-2.579c-3.35,0.671 -5.523,1.132 -8.564,2.003c-1.454,0.492 -2.934,1.653 -2.918,3.984c0.014,1.496 0,60.597 0,60.597c0,21.19 -13.418,39.394 -32.475,47.14c-1.928,0.723 -1.857,3.071 -0.882,3.837c2.316,2.278 4.795,4.43 7.426,6.437c1.022,0.814 2.621,1.22 4.294,0.423c21.2,-10.724 35.805,-32.017 36.286,-56.587Zm16.819,31.455l0,0.006l0.017,0l0,-0.006c0.463,-0.005 0.929,-0.263 1.201,-0.794c3.814,-9.5 5.961,-19.79 6.132,-30.542c-0.008,-0.457 -0.038,-0.909 -0.038,-1.369l0,-65.178c0,-1.604 -1.18,-2.914 -3.122,-3.114c-0.535,-0.054 -1.342,-0.134 -4.173,-0.155l-0.017,0c-2.832,0.021 -3.638,0.101 -4.173,0.155c-1.942,0.2 -3.123,1.51 -3.123,3.114l0,65.178c0,0.46 -0.03,0.912 -0.039,1.369c0.172,10.752 2.319,21.042 6.132,30.542c0.273,0.531 0.738,0.789 1.203,0.794Zm-6.561,10.149c-1.988,-3.926 -3.702,-8.006 -5.14,-12.206c-0.42,-1.097 -1.895,-1.169 -2.396,-0.149c-6.208,13.282 -16.337,24.495 -28.95,32.263c-1.084,0.634 -1.46,2.635 0.144,3.527c3.37,1.635 6.885,3.074 10.521,4.294c1.823,0.539 2.849,0.138 4.191,-0.643c8.435,-6.326 15.709,-14.036 21.437,-22.786c0.916,-1.536 0.897,-3.072 0.193,-4.3Zm70.523,4.286c-19.058,-7.746 -32.477,-25.95 -32.477,-47.14c0,0 -0.014,-59.101 0,-60.597c0.015,-2.331 -1.465,-3.492 -2.918,-3.984c-3.038,-0.871 -5.214,-1.332 -8.566,-2.003c-1.573,-0.334 -3.124,0.831 -3.124,2.579l0,64.005c0,0.42 -0.037,0.832 -0.04,1.25c0.48,24.57 15.085,45.863 36.284,56.587c1.671,0.797 3.273,0.391 4.295,-0.423c2.632,-2.007 5.11,-4.159 7.426,-6.437c0.973,-0.766 1.046,-3.114 -0.88,-3.837Zm-20.897,15.622c-12.618,-7.768 -22.744,-18.981 -28.952,-32.263c-0.5,-1.02 -1.974,-0.948 -2.395,0.149c-1.437,4.2 -3.152,8.28 -5.141,12.206c-0.703,1.228 -0.721,2.764 0.192,4.3c5.729,8.75 13.007,16.46 21.439,22.786c1.342,0.781 2.366,1.182 4.193,0.643c3.634,-1.22 7.15,-2.659 10.517,-4.294c1.607,-0.892 1.23,-2.893 0.147,-3.527Zm1.608,-120.977c-2.06,-0.926 -3.695,0.14 -3.703,2.168l0,56.047c0,18.699 12.727,34.577 30.251,39.986c2.009,0.641 3.353,-0.677 3.735,-1.285c6.77,-10.381 10.635,-22.354 10.635,-35.102c0,-26.287 -16.42,-49.27 -40.918,-61.814Zm-43.422,113.896c-0.323,-0.436 -0.782,-0.617 -1.234,-0.606l-0.017,0c-0.453,-0.011 -0.913,0.17 -1.234,0.606c-4.13,5.727 -8.879,11.009 -14.151,15.751c-1.058,0.915 -0.824,2.924 0.983,3.285c4.075,0.538 8.246,0.855 12.49,0.855l3.838,0c4.247,0 8.416,-0.317 12.494,-0.855c1.808,-0.361 2.04,-2.37 0.982,-3.285c-5.275,-4.742 -10.022,-10.024 -14.151,-15.751Z" style="fill:#757573;fill-rule:nonzero;"/></g></g></g></svg>